G04 #@! TF.GenerationSoftware,KiCad,Pcbnew,5.1.2-f72e74a~84~ubuntu16.04.1*
G04 #@! TF.CreationDate,2019-06-15T11:53:25+02:00*
G04 #@! TF.ProjectId,sakura,73616b75-7261-42e6-9b69-6361645f7063,2.1.2019*
G04 #@! TF.SameCoordinates,Original*
G04 #@! TF.FileFunction,Legend,Top*
G04 #@! TF.FilePolarity,Positive*
%FSLAX46Y46*%
G04 Gerber Fmt 4.6, Leading zero omitted, Abs format (unit mm)*
G04 Created by KiCad (PCBNEW 5.1.2-f72e74a~84~ubuntu16.04.1) date 2019-06-15 11:53:25*
%MOMM*%
%LPD*%
G04 APERTURE LIST*
%ADD10C,0.125000*%
%ADD11C,0.200000*%
%ADD12C,0.250000*%
%ADD13C,0.150000*%
%ADD14C,0.120000*%
%ADD15C,0.100000*%
%ADD16R,4.100000X0.900000*%
%ADD17C,0.900000*%
%ADD18R,2.600000X1.350000*%
%ADD19C,1.000000*%
%ADD20R,1.850000X0.550000*%
%ADD21R,0.550000X1.850000*%
%ADD22O,1.800000X1.800000*%
%ADD23R,1.800000X1.800000*%
%ADD24R,1.200000X0.350000*%
%ADD25R,0.650000X1.600000*%
%ADD26R,1.600000X0.650000*%
G04 APERTURE END LIST*
D10*
X173727921Y-85862554D02*
X173270778Y-85862554D01*
X173499350Y-85862554D02*
X173499350Y-85062554D01*
X173423159Y-85176840D01*
X173346969Y-85253030D01*
X173270778Y-85291126D01*
D11*
X126339430Y-108554828D02*
X125339430Y-108554828D01*
X125339430Y-108316732D01*
X125387050Y-108173875D01*
X125482288Y-108078637D01*
X125577526Y-108031018D01*
X125768002Y-107983399D01*
X125910859Y-107983399D01*
X126101335Y-108031018D01*
X126196573Y-108078637D01*
X126291811Y-108173875D01*
X126339430Y-108316732D01*
X126339430Y-108554828D01*
X126339430Y-107554828D02*
X125339430Y-107554828D01*
X126291811Y-107126256D02*
X126339430Y-106983399D01*
X126339430Y-106745304D01*
X126291811Y-106650066D01*
X126244192Y-106602447D01*
X126148954Y-106554828D01*
X126053716Y-106554828D01*
X125958478Y-106602447D01*
X125910859Y-106650066D01*
X125863240Y-106745304D01*
X125815621Y-106935780D01*
X125768002Y-107031018D01*
X125720383Y-107078637D01*
X125625145Y-107126256D01*
X125529907Y-107126256D01*
X125434669Y-107078637D01*
X125387050Y-107031018D01*
X125339430Y-106935780D01*
X125339430Y-106697685D01*
X125387050Y-106554828D01*
X126339430Y-106126256D02*
X125339430Y-106126256D01*
X126339430Y-105554828D02*
X125768002Y-105983399D01*
X125339430Y-105554828D02*
X125910859Y-106126256D01*
X125958478Y-105126256D02*
X125958478Y-104364351D01*
X126339430Y-103316732D02*
X125863240Y-103650066D01*
X126339430Y-103888161D02*
X125339430Y-103888161D01*
X125339430Y-103507209D01*
X125387050Y-103411970D01*
X125434669Y-103364351D01*
X125529907Y-103316732D01*
X125672764Y-103316732D01*
X125768002Y-103364351D01*
X125815621Y-103411970D01*
X125863240Y-103507209D01*
X125863240Y-103888161D01*
X126053716Y-102935780D02*
X126053716Y-102459590D01*
X126339430Y-103031018D02*
X125339430Y-102697685D01*
X126339430Y-102364351D01*
X126339430Y-102031018D02*
X125339430Y-102031018D01*
X126053716Y-101697685D01*
X125339430Y-101364351D01*
X126339430Y-101364351D01*
D12*
X118638607Y-98384078D02*
X118638607Y-97698364D01*
X119838607Y-98041221D02*
X118638607Y-98041221D01*
X119838607Y-97298364D02*
X118638607Y-97298364D01*
X119838607Y-96784078D02*
X119210035Y-96784078D01*
X119095750Y-96841221D01*
X119038607Y-96955507D01*
X119038607Y-97126935D01*
X119095750Y-97241221D01*
X119152892Y-97298364D01*
X119838607Y-96212650D02*
X119038607Y-96212650D01*
X118638607Y-96212650D02*
X118695750Y-96269792D01*
X118752892Y-96212650D01*
X118695750Y-96155507D01*
X118638607Y-96212650D01*
X118752892Y-96212650D01*
X119781464Y-95698364D02*
X119838607Y-95584078D01*
X119838607Y-95355507D01*
X119781464Y-95241221D01*
X119667178Y-95184078D01*
X119610035Y-95184078D01*
X119495750Y-95241221D01*
X119438607Y-95355507D01*
X119438607Y-95526935D01*
X119381464Y-95641221D01*
X119267178Y-95698364D01*
X119210035Y-95698364D01*
X119095750Y-95641221D01*
X119038607Y-95526935D01*
X119038607Y-95355507D01*
X119095750Y-95241221D01*
X119781464Y-93812650D02*
X119838607Y-93698364D01*
X119838607Y-93469792D01*
X119781464Y-93355507D01*
X119667178Y-93298364D01*
X119610035Y-93298364D01*
X119495750Y-93355507D01*
X119438607Y-93469792D01*
X119438607Y-93641221D01*
X119381464Y-93755507D01*
X119267178Y-93812650D01*
X119210035Y-93812650D01*
X119095750Y-93755507D01*
X119038607Y-93641221D01*
X119038607Y-93469792D01*
X119095750Y-93355507D01*
X119838607Y-92784078D02*
X119038607Y-92784078D01*
X118638607Y-92784078D02*
X118695750Y-92841221D01*
X118752892Y-92784078D01*
X118695750Y-92726935D01*
X118638607Y-92784078D01*
X118752892Y-92784078D01*
X119838607Y-91698364D02*
X118638607Y-91698364D01*
X119781464Y-91698364D02*
X119838607Y-91812650D01*
X119838607Y-92041221D01*
X119781464Y-92155507D01*
X119724321Y-92212650D01*
X119610035Y-92269792D01*
X119267178Y-92269792D01*
X119152892Y-92212650D01*
X119095750Y-92155507D01*
X119038607Y-92041221D01*
X119038607Y-91812650D01*
X119095750Y-91698364D01*
X119781464Y-90669792D02*
X119838607Y-90784078D01*
X119838607Y-91012650D01*
X119781464Y-91126935D01*
X119667178Y-91184078D01*
X119210035Y-91184078D01*
X119095750Y-91126935D01*
X119038607Y-91012650D01*
X119038607Y-90784078D01*
X119095750Y-90669792D01*
X119210035Y-90612650D01*
X119324321Y-90612650D01*
X119438607Y-91184078D01*
X119038607Y-88669792D02*
X119838607Y-88669792D01*
X119038607Y-89184078D02*
X119667178Y-89184078D01*
X119781464Y-89126935D01*
X119838607Y-89012650D01*
X119838607Y-88841221D01*
X119781464Y-88726935D01*
X119724321Y-88669792D01*
X119038607Y-88098364D02*
X120238607Y-88098364D01*
X119095750Y-88098364D02*
X119038607Y-87984078D01*
X119038607Y-87755507D01*
X119095750Y-87641221D01*
X119152892Y-87584078D01*
X119267178Y-87526935D01*
X119610035Y-87526935D01*
X119724321Y-87584078D01*
X119781464Y-87641221D01*
X119838607Y-87755507D01*
X119838607Y-87984078D01*
X119781464Y-88098364D01*
X119724321Y-87012650D02*
X119781464Y-86955507D01*
X119838607Y-87012650D01*
X119781464Y-87069792D01*
X119724321Y-87012650D01*
X119838607Y-87012650D01*
X119381464Y-87012650D02*
X118695750Y-87069792D01*
X118638607Y-87012650D01*
X118695750Y-86955507D01*
X119381464Y-87012650D01*
X118638607Y-87012650D01*
D10*
X163683878Y-106694361D02*
X163683878Y-106294361D01*
X164283878Y-106551504D01*
X163883878Y-105808647D02*
X164283878Y-105808647D01*
X163655307Y-105951504D02*
X164083878Y-106094361D01*
X164083878Y-105722932D01*
X164283878Y-105208647D02*
X164283878Y-105494361D01*
X163683878Y-105494361D01*
X164226735Y-104665790D02*
X164255307Y-104694361D01*
X164283878Y-104780075D01*
X164283878Y-104837218D01*
X164255307Y-104922932D01*
X164198164Y-104980075D01*
X164141021Y-105008647D01*
X164026735Y-105037218D01*
X163941021Y-105037218D01*
X163826735Y-105008647D01*
X163769592Y-104980075D01*
X163712450Y-104922932D01*
X163683878Y-104837218D01*
X163683878Y-104780075D01*
X163712450Y-104694361D01*
X163741021Y-104665790D01*
X163683878Y-104465790D02*
X164283878Y-104065790D01*
X163683878Y-104065790D02*
X164283878Y-104465790D01*
X163683878Y-103551504D02*
X163683878Y-103837218D01*
X163969592Y-103865790D01*
X163941021Y-103837218D01*
X163912450Y-103780075D01*
X163912450Y-103637218D01*
X163941021Y-103580075D01*
X163969592Y-103551504D01*
X164026735Y-103522932D01*
X164169592Y-103522932D01*
X164226735Y-103551504D01*
X164255307Y-103580075D01*
X164283878Y-103637218D01*
X164283878Y-103780075D01*
X164255307Y-103837218D01*
X164226735Y-103865790D01*
X163883878Y-103008647D02*
X164283878Y-103008647D01*
X163655307Y-103151504D02*
X164083878Y-103294361D01*
X164083878Y-102922932D01*
X164283878Y-102380075D02*
X164283878Y-102722932D01*
X164283878Y-102551504D02*
X163683878Y-102551504D01*
X163769592Y-102608647D01*
X163826735Y-102665790D01*
X163855307Y-102722932D01*
X163683878Y-102208647D02*
X163683878Y-101865790D01*
X164283878Y-102037218D02*
X163683878Y-102037218D01*
X163683878Y-101751504D02*
X163683878Y-101408647D01*
X164283878Y-101580075D02*
X163683878Y-101580075D01*
X164283878Y-100865790D02*
X163998164Y-101065790D01*
X164283878Y-101208647D02*
X163683878Y-101208647D01*
X163683878Y-100980075D01*
X163712450Y-100922932D01*
X163741021Y-100894361D01*
X163798164Y-100865790D01*
X163883878Y-100865790D01*
X163941021Y-100894361D01*
X163969592Y-100922932D01*
X163998164Y-100980075D01*
X163998164Y-101208647D01*
X138174450Y-100809790D02*
X138460164Y-100809790D01*
X138117307Y-100981218D02*
X138317307Y-100381218D01*
X138517307Y-100981218D01*
X138688735Y-100952647D02*
X138774450Y-100981218D01*
X138917307Y-100981218D01*
X138974450Y-100952647D01*
X139003021Y-100924075D01*
X139031592Y-100866932D01*
X139031592Y-100809790D01*
X139003021Y-100752647D01*
X138974450Y-100724075D01*
X138917307Y-100695504D01*
X138803021Y-100666932D01*
X138745878Y-100638361D01*
X138717307Y-100609790D01*
X138688735Y-100552647D01*
X138688735Y-100495504D01*
X138717307Y-100438361D01*
X138745878Y-100409790D01*
X138803021Y-100381218D01*
X138945878Y-100381218D01*
X139031592Y-100409790D01*
X139545878Y-100381218D02*
X139431592Y-100381218D01*
X139374450Y-100409790D01*
X139345878Y-100438361D01*
X139288735Y-100524075D01*
X139260164Y-100638361D01*
X139260164Y-100866932D01*
X139288735Y-100924075D01*
X139317307Y-100952647D01*
X139374450Y-100981218D01*
X139488735Y-100981218D01*
X139545878Y-100952647D01*
X139574450Y-100924075D01*
X139603021Y-100866932D01*
X139603021Y-100724075D01*
X139574450Y-100666932D01*
X139545878Y-100638361D01*
X139488735Y-100609790D01*
X139374450Y-100609790D01*
X139317307Y-100638361D01*
X139288735Y-100666932D01*
X139260164Y-100724075D01*
X140203021Y-100924075D02*
X140174450Y-100952647D01*
X140088735Y-100981218D01*
X140031592Y-100981218D01*
X139945878Y-100952647D01*
X139888735Y-100895504D01*
X139860164Y-100838361D01*
X139831592Y-100724075D01*
X139831592Y-100638361D01*
X139860164Y-100524075D01*
X139888735Y-100466932D01*
X139945878Y-100409790D01*
X140031592Y-100381218D01*
X140088735Y-100381218D01*
X140174450Y-100409790D01*
X140203021Y-100438361D01*
X140403021Y-100381218D02*
X140774450Y-100381218D01*
X140574450Y-100609790D01*
X140660164Y-100609790D01*
X140717307Y-100638361D01*
X140745878Y-100666932D01*
X140774450Y-100724075D01*
X140774450Y-100866932D01*
X140745878Y-100924075D01*
X140717307Y-100952647D01*
X140660164Y-100981218D01*
X140488735Y-100981218D01*
X140431592Y-100952647D01*
X140403021Y-100924075D01*
X141003021Y-100438361D02*
X141031592Y-100409790D01*
X141088735Y-100381218D01*
X141231592Y-100381218D01*
X141288735Y-100409790D01*
X141317307Y-100438361D01*
X141345878Y-100495504D01*
X141345878Y-100552647D01*
X141317307Y-100638361D01*
X140974450Y-100981218D01*
X141345878Y-100981218D01*
X141917307Y-100981218D02*
X141574450Y-100981218D01*
X141745878Y-100981218D02*
X141745878Y-100381218D01*
X141688735Y-100466932D01*
X141631592Y-100524075D01*
X141574450Y-100552647D01*
X142431592Y-100381218D02*
X142317307Y-100381218D01*
X142260164Y-100409790D01*
X142231592Y-100438361D01*
X142174450Y-100524075D01*
X142145878Y-100638361D01*
X142145878Y-100866932D01*
X142174450Y-100924075D01*
X142203021Y-100952647D01*
X142260164Y-100981218D01*
X142374450Y-100981218D01*
X142431592Y-100952647D01*
X142460164Y-100924075D01*
X142488735Y-100866932D01*
X142488735Y-100724075D01*
X142460164Y-100666932D01*
X142431592Y-100638361D01*
X142374450Y-100609790D01*
X142260164Y-100609790D01*
X142203021Y-100638361D01*
X142174450Y-100666932D01*
X142145878Y-100724075D01*
X142745878Y-100752647D02*
X143203021Y-100752647D01*
X143774450Y-100381218D02*
X143488735Y-100381218D01*
X143460164Y-100666932D01*
X143488735Y-100638361D01*
X143545878Y-100609790D01*
X143688735Y-100609790D01*
X143745878Y-100638361D01*
X143774450Y-100666932D01*
X143803021Y-100724075D01*
X143803021Y-100866932D01*
X143774450Y-100924075D01*
X143745878Y-100952647D01*
X143688735Y-100981218D01*
X143545878Y-100981218D01*
X143488735Y-100952647D01*
X143460164Y-100924075D01*
X144345878Y-100381218D02*
X144060164Y-100381218D01*
X144031592Y-100666932D01*
X144060164Y-100638361D01*
X144117307Y-100609790D01*
X144260164Y-100609790D01*
X144317307Y-100638361D01*
X144345878Y-100666932D01*
X144374450Y-100724075D01*
X144374450Y-100866932D01*
X144345878Y-100924075D01*
X144317307Y-100952647D01*
X144260164Y-100981218D01*
X144117307Y-100981218D01*
X144060164Y-100952647D01*
X144031592Y-100924075D01*
X126066478Y-92828487D02*
X126066478Y-92428487D01*
X126666478Y-92685630D01*
X126266478Y-91942772D02*
X126666478Y-91942772D01*
X126037907Y-92085630D02*
X126466478Y-92228487D01*
X126466478Y-91857058D01*
X126666478Y-91342772D02*
X126666478Y-91628487D01*
X126066478Y-91628487D01*
X126609335Y-90799915D02*
X126637907Y-90828487D01*
X126666478Y-90914201D01*
X126666478Y-90971344D01*
X126637907Y-91057058D01*
X126580764Y-91114201D01*
X126523621Y-91142772D01*
X126409335Y-91171344D01*
X126323621Y-91171344D01*
X126209335Y-91142772D01*
X126152192Y-91114201D01*
X126095050Y-91057058D01*
X126066478Y-90971344D01*
X126066478Y-90914201D01*
X126095050Y-90828487D01*
X126123621Y-90799915D01*
X126066478Y-90599915D02*
X126666478Y-90199915D01*
X126066478Y-90199915D02*
X126666478Y-90599915D01*
X126123621Y-89999915D02*
X126095050Y-89971344D01*
X126066478Y-89914201D01*
X126066478Y-89771344D01*
X126095050Y-89714201D01*
X126123621Y-89685630D01*
X126180764Y-89657058D01*
X126237907Y-89657058D01*
X126323621Y-89685630D01*
X126666478Y-90028487D01*
X126666478Y-89657058D01*
X126266478Y-89142772D02*
X126666478Y-89142772D01*
X126037907Y-89285630D02*
X126466478Y-89428487D01*
X126466478Y-89057058D01*
X126066478Y-88542772D02*
X126066478Y-88828487D01*
X126352192Y-88857058D01*
X126323621Y-88828487D01*
X126295050Y-88771344D01*
X126295050Y-88628487D01*
X126323621Y-88571344D01*
X126352192Y-88542772D01*
X126409335Y-88514201D01*
X126552192Y-88514201D01*
X126609335Y-88542772D01*
X126637907Y-88571344D01*
X126666478Y-88628487D01*
X126666478Y-88771344D01*
X126637907Y-88828487D01*
X126609335Y-88857058D01*
X126666478Y-88257058D02*
X126066478Y-88257058D01*
X126495050Y-88057058D01*
X126066478Y-87857058D01*
X126666478Y-87857058D01*
X126066478Y-87657058D02*
X126066478Y-87314201D01*
X126666478Y-87485630D02*
X126066478Y-87485630D01*
X126609335Y-86771344D02*
X126637907Y-86799915D01*
X126666478Y-86885630D01*
X126666478Y-86942772D01*
X126637907Y-87028487D01*
X126580764Y-87085630D01*
X126523621Y-87114201D01*
X126409335Y-87142772D01*
X126323621Y-87142772D01*
X126209335Y-87114201D01*
X126152192Y-87085630D01*
X126095050Y-87028487D01*
X126066478Y-86942772D01*
X126066478Y-86885630D01*
X126095050Y-86799915D01*
X126123621Y-86771344D01*
X161273418Y-94073087D02*
X161273418Y-93673087D01*
X161873418Y-93930230D01*
X161473418Y-93187372D02*
X161873418Y-93187372D01*
X161244847Y-93330230D02*
X161673418Y-93473087D01*
X161673418Y-93101658D01*
X161873418Y-92587372D02*
X161873418Y-92873087D01*
X161273418Y-92873087D01*
X161816275Y-92044515D02*
X161844847Y-92073087D01*
X161873418Y-92158801D01*
X161873418Y-92215944D01*
X161844847Y-92301658D01*
X161787704Y-92358801D01*
X161730561Y-92387372D01*
X161616275Y-92415944D01*
X161530561Y-92415944D01*
X161416275Y-92387372D01*
X161359132Y-92358801D01*
X161301990Y-92301658D01*
X161273418Y-92215944D01*
X161273418Y-92158801D01*
X161301990Y-92073087D01*
X161330561Y-92044515D01*
X161273418Y-91844515D02*
X161873418Y-91444515D01*
X161273418Y-91444515D02*
X161873418Y-91844515D01*
X161330561Y-91244515D02*
X161301990Y-91215944D01*
X161273418Y-91158801D01*
X161273418Y-91015944D01*
X161301990Y-90958801D01*
X161330561Y-90930230D01*
X161387704Y-90901658D01*
X161444847Y-90901658D01*
X161530561Y-90930230D01*
X161873418Y-91273087D01*
X161873418Y-90901658D01*
X161473418Y-90387372D02*
X161873418Y-90387372D01*
X161244847Y-90530230D02*
X161673418Y-90673087D01*
X161673418Y-90301658D01*
X161273418Y-89787372D02*
X161273418Y-90073087D01*
X161559132Y-90101658D01*
X161530561Y-90073087D01*
X161501990Y-90015944D01*
X161501990Y-89873087D01*
X161530561Y-89815944D01*
X161559132Y-89787372D01*
X161616275Y-89758801D01*
X161759132Y-89758801D01*
X161816275Y-89787372D01*
X161844847Y-89815944D01*
X161873418Y-89873087D01*
X161873418Y-90015944D01*
X161844847Y-90073087D01*
X161816275Y-90101658D01*
X161873418Y-89501658D02*
X161273418Y-89501658D01*
X161701990Y-89301658D01*
X161273418Y-89101658D01*
X161873418Y-89101658D01*
X161273418Y-88901658D02*
X161273418Y-88558801D01*
X161873418Y-88730230D02*
X161273418Y-88730230D01*
X161816275Y-88015944D02*
X161844847Y-88044515D01*
X161873418Y-88130230D01*
X161873418Y-88187372D01*
X161844847Y-88273087D01*
X161787704Y-88330230D01*
X161730561Y-88358801D01*
X161616275Y-88387372D01*
X161530561Y-88387372D01*
X161416275Y-88358801D01*
X161359132Y-88330230D01*
X161301990Y-88273087D01*
X161273418Y-88187372D01*
X161273418Y-88130230D01*
X161301990Y-88044515D01*
X161330561Y-88015944D01*
X140823878Y-94108647D02*
X140823878Y-93708647D01*
X141423878Y-93965790D01*
X141023878Y-93222932D02*
X141423878Y-93222932D01*
X140795307Y-93365790D02*
X141223878Y-93508647D01*
X141223878Y-93137218D01*
X141423878Y-92622932D02*
X141423878Y-92908647D01*
X140823878Y-92908647D01*
X141366735Y-92080075D02*
X141395307Y-92108647D01*
X141423878Y-92194361D01*
X141423878Y-92251504D01*
X141395307Y-92337218D01*
X141338164Y-92394361D01*
X141281021Y-92422932D01*
X141166735Y-92451504D01*
X141081021Y-92451504D01*
X140966735Y-92422932D01*
X140909592Y-92394361D01*
X140852450Y-92337218D01*
X140823878Y-92251504D01*
X140823878Y-92194361D01*
X140852450Y-92108647D01*
X140881021Y-92080075D01*
X140823878Y-91880075D02*
X141423878Y-91480075D01*
X140823878Y-91480075D02*
X141423878Y-91880075D01*
X140881021Y-91280075D02*
X140852450Y-91251504D01*
X140823878Y-91194361D01*
X140823878Y-91051504D01*
X140852450Y-90994361D01*
X140881021Y-90965790D01*
X140938164Y-90937218D01*
X140995307Y-90937218D01*
X141081021Y-90965790D01*
X141423878Y-91308647D01*
X141423878Y-90937218D01*
X141023878Y-90422932D02*
X141423878Y-90422932D01*
X140795307Y-90565790D02*
X141223878Y-90708647D01*
X141223878Y-90337218D01*
X140823878Y-89822932D02*
X140823878Y-90108647D01*
X141109592Y-90137218D01*
X141081021Y-90108647D01*
X141052450Y-90051504D01*
X141052450Y-89908647D01*
X141081021Y-89851504D01*
X141109592Y-89822932D01*
X141166735Y-89794361D01*
X141309592Y-89794361D01*
X141366735Y-89822932D01*
X141395307Y-89851504D01*
X141423878Y-89908647D01*
X141423878Y-90051504D01*
X141395307Y-90108647D01*
X141366735Y-90137218D01*
X141423878Y-89537218D02*
X140823878Y-89537218D01*
X141252450Y-89337218D01*
X140823878Y-89137218D01*
X141423878Y-89137218D01*
X140823878Y-88937218D02*
X140823878Y-88594361D01*
X141423878Y-88765790D02*
X140823878Y-88765790D01*
X141366735Y-88051504D02*
X141395307Y-88080075D01*
X141423878Y-88165790D01*
X141423878Y-88222932D01*
X141395307Y-88308647D01*
X141338164Y-88365790D01*
X141281021Y-88394361D01*
X141166735Y-88422932D01*
X141081021Y-88422932D01*
X140966735Y-88394361D01*
X140909592Y-88365790D01*
X140852450Y-88308647D01*
X140823878Y-88222932D01*
X140823878Y-88165790D01*
X140852450Y-88080075D01*
X140881021Y-88051504D01*
X159570038Y-120551738D02*
X159970038Y-120551738D01*
X159712895Y-121151738D01*
X160455752Y-120751738D02*
X160455752Y-121151738D01*
X160312895Y-120523167D02*
X160170038Y-120951738D01*
X160541467Y-120951738D01*
X161055752Y-121151738D02*
X160770038Y-121151738D01*
X160770038Y-120551738D01*
X161598610Y-121094595D02*
X161570038Y-121123167D01*
X161484324Y-121151738D01*
X161427181Y-121151738D01*
X161341467Y-121123167D01*
X161284324Y-121066024D01*
X161255752Y-121008881D01*
X161227181Y-120894595D01*
X161227181Y-120808881D01*
X161255752Y-120694595D01*
X161284324Y-120637452D01*
X161341467Y-120580310D01*
X161427181Y-120551738D01*
X161484324Y-120551738D01*
X161570038Y-120580310D01*
X161598610Y-120608881D01*
X161798610Y-120551738D02*
X162198610Y-121151738D01*
X162198610Y-120551738D02*
X161798610Y-121151738D01*
X162712895Y-120551738D02*
X162427181Y-120551738D01*
X162398610Y-120837452D01*
X162427181Y-120808881D01*
X162484324Y-120780310D01*
X162627181Y-120780310D01*
X162684324Y-120808881D01*
X162712895Y-120837452D01*
X162741467Y-120894595D01*
X162741467Y-121037452D01*
X162712895Y-121094595D01*
X162684324Y-121123167D01*
X162627181Y-121151738D01*
X162484324Y-121151738D01*
X162427181Y-121123167D01*
X162398610Y-121094595D01*
X163255752Y-120751738D02*
X163255752Y-121151738D01*
X163112895Y-120523167D02*
X162970038Y-120951738D01*
X163341467Y-120951738D01*
X163884324Y-121151738D02*
X163541467Y-121151738D01*
X163712895Y-121151738D02*
X163712895Y-120551738D01*
X163655752Y-120637452D01*
X163598610Y-120694595D01*
X163541467Y-120723167D01*
X164055752Y-120551738D02*
X164398610Y-120551738D01*
X164227181Y-121151738D02*
X164227181Y-120551738D01*
X164512895Y-120551738D02*
X164855752Y-120551738D01*
X164684324Y-121151738D02*
X164684324Y-120551738D01*
X165398610Y-121151738D02*
X165198610Y-120866024D01*
X165055752Y-121151738D02*
X165055752Y-120551738D01*
X165284324Y-120551738D01*
X165341467Y-120580310D01*
X165370038Y-120608881D01*
X165398610Y-120666024D01*
X165398610Y-120751738D01*
X165370038Y-120808881D01*
X165341467Y-120837452D01*
X165284324Y-120866024D01*
X165055752Y-120866024D01*
X146288378Y-119553518D02*
X146688378Y-119553518D01*
X146431235Y-120153518D01*
X147174092Y-119753518D02*
X147174092Y-120153518D01*
X147031235Y-119524947D02*
X146888378Y-119953518D01*
X147259807Y-119953518D01*
X147774092Y-120153518D02*
X147488378Y-120153518D01*
X147488378Y-119553518D01*
X148316950Y-120096375D02*
X148288378Y-120124947D01*
X148202664Y-120153518D01*
X148145521Y-120153518D01*
X148059807Y-120124947D01*
X148002664Y-120067804D01*
X147974092Y-120010661D01*
X147945521Y-119896375D01*
X147945521Y-119810661D01*
X147974092Y-119696375D01*
X148002664Y-119639232D01*
X148059807Y-119582090D01*
X148145521Y-119553518D01*
X148202664Y-119553518D01*
X148288378Y-119582090D01*
X148316950Y-119610661D01*
X148516950Y-119553518D02*
X148916950Y-120153518D01*
X148916950Y-119553518D02*
X148516950Y-120153518D01*
X149431235Y-119553518D02*
X149145521Y-119553518D01*
X149116950Y-119839232D01*
X149145521Y-119810661D01*
X149202664Y-119782090D01*
X149345521Y-119782090D01*
X149402664Y-119810661D01*
X149431235Y-119839232D01*
X149459807Y-119896375D01*
X149459807Y-120039232D01*
X149431235Y-120096375D01*
X149402664Y-120124947D01*
X149345521Y-120153518D01*
X149202664Y-120153518D01*
X149145521Y-120124947D01*
X149116950Y-120096375D01*
X149974092Y-119753518D02*
X149974092Y-120153518D01*
X149831235Y-119524947D02*
X149688378Y-119953518D01*
X150059807Y-119953518D01*
X150602664Y-120153518D02*
X150259807Y-120153518D01*
X150431235Y-120153518D02*
X150431235Y-119553518D01*
X150374092Y-119639232D01*
X150316950Y-119696375D01*
X150259807Y-119724947D01*
X150774092Y-119553518D02*
X151116950Y-119553518D01*
X150945521Y-120153518D02*
X150945521Y-119553518D01*
X151231235Y-119553518D02*
X151574092Y-119553518D01*
X151402664Y-120153518D02*
X151402664Y-119553518D01*
X152116950Y-120153518D02*
X151916950Y-119867804D01*
X151774092Y-120153518D02*
X151774092Y-119553518D01*
X152002664Y-119553518D01*
X152059807Y-119582090D01*
X152088378Y-119610661D01*
X152116950Y-119667804D01*
X152116950Y-119753518D01*
X152088378Y-119810661D01*
X152059807Y-119839232D01*
X152002664Y-119867804D01*
X151774092Y-119867804D01*
X130789692Y-119909118D02*
X131189692Y-120509118D01*
X131189692Y-119909118D02*
X130789692Y-120509118D01*
X131761121Y-120451975D02*
X131732550Y-120480547D01*
X131646835Y-120509118D01*
X131589692Y-120509118D01*
X131503978Y-120480547D01*
X131446835Y-120423404D01*
X131418264Y-120366261D01*
X131389692Y-120251975D01*
X131389692Y-120166261D01*
X131418264Y-120051975D01*
X131446835Y-119994832D01*
X131503978Y-119937690D01*
X131589692Y-119909118D01*
X131646835Y-119909118D01*
X131732550Y-119937690D01*
X131761121Y-119966261D01*
X132046835Y-120509118D02*
X132161121Y-120509118D01*
X132218264Y-120480547D01*
X132246835Y-120451975D01*
X132303978Y-120366261D01*
X132332550Y-120251975D01*
X132332550Y-120023404D01*
X132303978Y-119966261D01*
X132275407Y-119937690D01*
X132218264Y-119909118D01*
X132103978Y-119909118D01*
X132046835Y-119937690D01*
X132018264Y-119966261D01*
X131989692Y-120023404D01*
X131989692Y-120166261D01*
X132018264Y-120223404D01*
X132046835Y-120251975D01*
X132103978Y-120280547D01*
X132218264Y-120280547D01*
X132275407Y-120251975D01*
X132303978Y-120223404D01*
X132332550Y-120166261D01*
X132875407Y-119909118D02*
X132589692Y-119909118D01*
X132561121Y-120194832D01*
X132589692Y-120166261D01*
X132646835Y-120137690D01*
X132789692Y-120137690D01*
X132846835Y-120166261D01*
X132875407Y-120194832D01*
X132903978Y-120251975D01*
X132903978Y-120394832D01*
X132875407Y-120451975D01*
X132846835Y-120480547D01*
X132789692Y-120509118D01*
X132646835Y-120509118D01*
X132589692Y-120480547D01*
X132561121Y-120451975D01*
X133103978Y-119909118D02*
X133475407Y-119909118D01*
X133275407Y-120137690D01*
X133361121Y-120137690D01*
X133418264Y-120166261D01*
X133446835Y-120194832D01*
X133475407Y-120251975D01*
X133475407Y-120394832D01*
X133446835Y-120451975D01*
X133418264Y-120480547D01*
X133361121Y-120509118D01*
X133189692Y-120509118D01*
X133132550Y-120480547D01*
X133103978Y-120451975D01*
X133989692Y-119909118D02*
X133875407Y-119909118D01*
X133818264Y-119937690D01*
X133789692Y-119966261D01*
X133732550Y-120051975D01*
X133703978Y-120166261D01*
X133703978Y-120394832D01*
X133732550Y-120451975D01*
X133761121Y-120480547D01*
X133818264Y-120509118D01*
X133932550Y-120509118D01*
X133989692Y-120480547D01*
X134018264Y-120451975D01*
X134046835Y-120394832D01*
X134046835Y-120251975D01*
X134018264Y-120194832D01*
X133989692Y-120166261D01*
X133932550Y-120137690D01*
X133818264Y-120137690D01*
X133761121Y-120166261D01*
X133732550Y-120194832D01*
X133703978Y-120251975D01*
X134246835Y-119909118D02*
X134646835Y-120509118D01*
X134646835Y-119909118D02*
X134246835Y-120509118D01*
X135161121Y-120509118D02*
X134875407Y-120509118D01*
X134875407Y-119909118D01*
X135218264Y-120566261D02*
X135675407Y-120566261D01*
X136075407Y-120109118D02*
X136075407Y-120509118D01*
X135932550Y-119880547D02*
X135789692Y-120309118D01*
X136161121Y-120309118D01*
X136646835Y-120109118D02*
X136646835Y-120509118D01*
X136503978Y-119880547D02*
X136361121Y-120309118D01*
X136732550Y-120309118D01*
X136875407Y-119909118D02*
X137075407Y-120509118D01*
X137275407Y-119909118D01*
X137875407Y-120566261D02*
X137818264Y-120537690D01*
X137761121Y-120480547D01*
X137675407Y-120394832D01*
X137618264Y-120366261D01*
X137561121Y-120366261D01*
X137589692Y-120509118D02*
X137532550Y-120480547D01*
X137475407Y-120423404D01*
X137446835Y-120309118D01*
X137446835Y-120109118D01*
X137475407Y-119994832D01*
X137532550Y-119937690D01*
X137589692Y-119909118D01*
X137703978Y-119909118D01*
X137761121Y-119937690D01*
X137818264Y-119994832D01*
X137846835Y-120109118D01*
X137846835Y-120309118D01*
X137818264Y-120423404D01*
X137761121Y-120480547D01*
X137703978Y-120509118D01*
X137589692Y-120509118D01*
X119211164Y-110889789D02*
X119211164Y-111354075D01*
X118925450Y-111104075D01*
X118925450Y-111211218D01*
X118889735Y-111282647D01*
X118854021Y-111318361D01*
X118782592Y-111354075D01*
X118604021Y-111354075D01*
X118532592Y-111318361D01*
X118496878Y-111282647D01*
X118461164Y-111211218D01*
X118461164Y-110996932D01*
X118496878Y-110925504D01*
X118532592Y-110889789D01*
X119211164Y-111568361D02*
X118461164Y-111818361D01*
X119211164Y-112068361D01*
X119211164Y-112246932D02*
X119211164Y-112711218D01*
X118925450Y-112461218D01*
X118925450Y-112568361D01*
X118889735Y-112639789D01*
X118854021Y-112675504D01*
X118782592Y-112711218D01*
X118604021Y-112711218D01*
X118532592Y-112675504D01*
X118496878Y-112639789D01*
X118461164Y-112568361D01*
X118461164Y-112354075D01*
X118496878Y-112282647D01*
X118532592Y-112246932D01*
X119211164Y-113496932D02*
X119211164Y-113925504D01*
X118461164Y-113711218D02*
X119211164Y-113711218D01*
X118461164Y-114175504D02*
X119211164Y-114175504D01*
X119211164Y-114354075D01*
X119175450Y-114461218D01*
X119104021Y-114532647D01*
X119032592Y-114568361D01*
X118889735Y-114604075D01*
X118782592Y-114604075D01*
X118639735Y-114568361D01*
X118568307Y-114532647D01*
X118496878Y-114461218D01*
X118461164Y-114354075D01*
X118461164Y-114175504D01*
X118461164Y-114925504D02*
X119211164Y-114925504D01*
X119211164Y-115746932D02*
X119211164Y-116175504D01*
X118461164Y-115961218D02*
X119211164Y-115961218D01*
X118461164Y-116425504D02*
X119211164Y-116425504D01*
X118675450Y-116675504D01*
X119211164Y-116925504D01*
X118461164Y-116925504D01*
X118496878Y-117246932D02*
X118461164Y-117354075D01*
X118461164Y-117532647D01*
X118496878Y-117604075D01*
X118532592Y-117639789D01*
X118604021Y-117675504D01*
X118675450Y-117675504D01*
X118746878Y-117639789D01*
X118782592Y-117604075D01*
X118818307Y-117532647D01*
X118854021Y-117389789D01*
X118889735Y-117318361D01*
X118925450Y-117282647D01*
X118996878Y-117246932D01*
X119068307Y-117246932D01*
X119139735Y-117282647D01*
X119175450Y-117318361D01*
X119211164Y-117389789D01*
X119211164Y-117568361D01*
X119175450Y-117675504D01*
X119211164Y-118461218D02*
X119211164Y-118889789D01*
X118461164Y-118675504D02*
X119211164Y-118675504D01*
X118532592Y-119568361D02*
X118496878Y-119532647D01*
X118461164Y-119425504D01*
X118461164Y-119354075D01*
X118496878Y-119246932D01*
X118568307Y-119175504D01*
X118639735Y-119139789D01*
X118782592Y-119104075D01*
X118889735Y-119104075D01*
X119032592Y-119139789D01*
X119104021Y-119175504D01*
X119175450Y-119246932D01*
X119211164Y-119354075D01*
X119211164Y-119425504D01*
X119175450Y-119532647D01*
X119139735Y-119568361D01*
X118461164Y-119889789D02*
X119211164Y-119889789D01*
X118461164Y-120318361D02*
X118889735Y-119996932D01*
X119211164Y-120318361D02*
X118782592Y-119889789D01*
X119211164Y-121104075D02*
X119211164Y-121532647D01*
X118461164Y-121318361D02*
X119211164Y-121318361D01*
X118461164Y-121782647D02*
X119211164Y-121782647D01*
X119211164Y-121961218D01*
X119175450Y-122068361D01*
X119104021Y-122139789D01*
X119032592Y-122175504D01*
X118889735Y-122211218D01*
X118782592Y-122211218D01*
X118639735Y-122175504D01*
X118568307Y-122139789D01*
X118496878Y-122068361D01*
X118461164Y-121961218D01*
X118461164Y-121782647D01*
X119211164Y-122675504D02*
X119211164Y-122818361D01*
X119175450Y-122889789D01*
X119104021Y-122961218D01*
X118961164Y-122996932D01*
X118711164Y-122996932D01*
X118568307Y-122961218D01*
X118496878Y-122889789D01*
X118461164Y-122818361D01*
X118461164Y-122675504D01*
X118496878Y-122604075D01*
X118568307Y-122532647D01*
X118711164Y-122496932D01*
X118961164Y-122496932D01*
X119104021Y-122532647D01*
X119175450Y-122604075D01*
X119211164Y-122675504D01*
X119175450Y-124282647D02*
X119211164Y-124211218D01*
X119211164Y-124104075D01*
X119175450Y-123996932D01*
X119104021Y-123925504D01*
X119032592Y-123889789D01*
X118889735Y-123854075D01*
X118782592Y-123854075D01*
X118639735Y-123889789D01*
X118568307Y-123925504D01*
X118496878Y-123996932D01*
X118461164Y-124104075D01*
X118461164Y-124175504D01*
X118496878Y-124282647D01*
X118532592Y-124318361D01*
X118782592Y-124318361D01*
X118782592Y-124175504D01*
X118461164Y-124639789D02*
X119211164Y-124639789D01*
X118461164Y-125068361D01*
X119211164Y-125068361D01*
X118461164Y-125425504D02*
X119211164Y-125425504D01*
X119211164Y-125604075D01*
X119175450Y-125711218D01*
X119104021Y-125782647D01*
X119032592Y-125818361D01*
X118889735Y-125854075D01*
X118782592Y-125854075D01*
X118639735Y-125818361D01*
X118568307Y-125782647D01*
X118496878Y-125711218D01*
X118461164Y-125604075D01*
X118461164Y-125425504D01*
D13*
X178964550Y-81233450D02*
X178964550Y-132033450D01*
X177264550Y-130643450D02*
G75*
G03X177264550Y-130643450I-600000J0D01*
G01*
X177264550Y-82633450D02*
G75*
G03X177264550Y-82633450I-600000J0D01*
G01*
X174464550Y-81233450D02*
X178964550Y-81233450D01*
X174464550Y-132033450D02*
X178964550Y-132033450D01*
D14*
X122320450Y-108131790D02*
X122320450Y-109531790D01*
X122320450Y-109531790D02*
X118520450Y-109531790D01*
X118520450Y-100331790D02*
X122320450Y-100331790D01*
X122320450Y-100331790D02*
X122320450Y-101731790D01*
X122320450Y-106731790D02*
X122320450Y-105631790D01*
X122320450Y-105631790D02*
X122320450Y-105631790D01*
X122320450Y-104231790D02*
X122320450Y-103131790D01*
X122320450Y-103131790D02*
X122320450Y-103131790D01*
X118520450Y-109531790D02*
X118520450Y-107831790D01*
X118520450Y-107831790D02*
X118220450Y-107831790D01*
X118220450Y-107831790D02*
X118220450Y-107031790D01*
X118220450Y-107031790D02*
X118520450Y-107031790D01*
X118520450Y-107031790D02*
X118520450Y-105331790D01*
X118520450Y-105331790D02*
X118220450Y-105331790D01*
X118220450Y-105331790D02*
X118220450Y-104531790D01*
X118220450Y-104531790D02*
X118520450Y-104531790D01*
X118520450Y-104531790D02*
X118520450Y-102831790D01*
X118520450Y-102831790D02*
X118220450Y-102831790D01*
X118220450Y-102831790D02*
X118220450Y-102031790D01*
X118220450Y-102031790D02*
X118520450Y-102031790D01*
X118520450Y-102031790D02*
X118520450Y-100331790D01*
X118520450Y-100331790D02*
X118520450Y-100331790D01*
X116620450Y-102931790D02*
X117120450Y-102931790D01*
X117120450Y-102931790D02*
X117120450Y-102931790D01*
X116620450Y-102931790D02*
X116620450Y-103431790D01*
X116620450Y-103431790D02*
X116620450Y-103431790D01*
X116620450Y-106931790D02*
X116620450Y-106431790D01*
X116620450Y-106431790D02*
X116620450Y-106431790D01*
X116620450Y-106931790D02*
X117120450Y-106931790D01*
X117120450Y-106931790D02*
X117120450Y-106931790D01*
X117420450Y-106931790D02*
X117920450Y-106931790D01*
X117920450Y-106931790D02*
X117920450Y-106931790D01*
X117420450Y-102931790D02*
X117920450Y-102931790D01*
X117920450Y-102931790D02*
X117920450Y-102931790D01*
X116620450Y-103731790D02*
X116620450Y-104231790D01*
X116620450Y-104231790D02*
X116620450Y-104231790D01*
X116620450Y-106131790D02*
X116620450Y-105631790D01*
X116620450Y-105631790D02*
X116620450Y-105631790D01*
X116620450Y-105331790D02*
X116620450Y-104531790D01*
X116620450Y-104531790D02*
X116620450Y-104531790D01*
D13*
X158959300Y-87254940D02*
X158959300Y-87604940D01*
X164709300Y-87254940D02*
X164709300Y-87704940D01*
X164709300Y-94904940D02*
X164709300Y-94454940D01*
X158959300Y-94904940D02*
X158959300Y-94454940D01*
X158959300Y-87254940D02*
X164709300Y-87254940D01*
X158959300Y-94904940D02*
X164709300Y-94904940D01*
X158959300Y-87604940D02*
X157359300Y-87604940D01*
X144029300Y-94554940D02*
X145629300Y-94554940D01*
X144029300Y-87254940D02*
X138279300Y-87254940D01*
X144029300Y-94904940D02*
X138279300Y-94904940D01*
X144029300Y-87254940D02*
X144029300Y-87704940D01*
X138279300Y-87254940D02*
X138279300Y-87704940D01*
X138279300Y-94904940D02*
X138279300Y-94454940D01*
X144029300Y-94904940D02*
X144029300Y-94554940D01*
X122609300Y-85964940D02*
X122609300Y-86314940D01*
X128359300Y-85964940D02*
X128359300Y-86414940D01*
X128359300Y-93614940D02*
X128359300Y-93164940D01*
X122609300Y-93614940D02*
X122609300Y-93164940D01*
X122609300Y-85964940D02*
X128359300Y-85964940D01*
X122609300Y-93614940D02*
X128359300Y-93614940D01*
X122609300Y-86314940D02*
X121009300Y-86314940D01*
X145829300Y-123244940D02*
X145829300Y-124844940D01*
X153129300Y-123244940D02*
X153129300Y-117494940D01*
X145479300Y-123244940D02*
X145479300Y-117494940D01*
X153129300Y-123244940D02*
X152679300Y-123244940D01*
X153129300Y-117494940D02*
X152679300Y-117494940D01*
X145479300Y-117494940D02*
X145929300Y-117494940D01*
X145479300Y-123244940D02*
X145829300Y-123244940D01*
X166309300Y-117364940D02*
X165959300Y-117364940D01*
X166309300Y-123114940D02*
X165859300Y-123114940D01*
X158659300Y-123114940D02*
X159109300Y-123114940D01*
X158659300Y-117364940D02*
X159109300Y-117364940D01*
X166309300Y-117364940D02*
X166309300Y-123114940D01*
X158659300Y-117364940D02*
X158659300Y-123114940D01*
X165959300Y-117364940D02*
X165959300Y-115764940D01*
X165749300Y-107204940D02*
X167349300Y-107204940D01*
X165749300Y-99904940D02*
X159999300Y-99904940D01*
X165749300Y-107554940D02*
X159999300Y-107554940D01*
X165749300Y-99904940D02*
X165749300Y-100354940D01*
X159999300Y-99904940D02*
X159999300Y-100354940D01*
X159999300Y-107554940D02*
X159999300Y-107104940D01*
X165749300Y-107554940D02*
X165749300Y-107204940D01*
D14*
X122304300Y-125879940D02*
X120974300Y-125879940D01*
X122304300Y-124549940D02*
X122304300Y-125879940D01*
X119644300Y-123279940D02*
X122304300Y-123279940D01*
X119644300Y-110519940D02*
X119644300Y-123279940D01*
X122304300Y-110519940D02*
X119644300Y-110519940D01*
X122304300Y-123279940D02*
X122304300Y-110519940D01*
D15*
X131844300Y-108999940D02*
X151244300Y-108999940D01*
D14*
X150244300Y-96759940D02*
X131844300Y-96759940D01*
D13*
X128989300Y-124094940D02*
X129564300Y-124094940D01*
X128989300Y-113744940D02*
X129664300Y-113744940D01*
X139339300Y-113744940D02*
X138664300Y-113744940D01*
X139339300Y-124094940D02*
X138664300Y-124094940D01*
X128989300Y-124094940D02*
X128989300Y-123419940D01*
X139339300Y-124094940D02*
X139339300Y-123419940D01*
X139339300Y-113744940D02*
X139339300Y-114419940D01*
X128989300Y-113744940D02*
X128989300Y-114419940D01*
X129564300Y-124094940D02*
X129564300Y-125369940D01*
X120716511Y-106188783D02*
X120764130Y-106045926D01*
X120764130Y-105807830D01*
X120716511Y-105712592D01*
X120668892Y-105664973D01*
X120573654Y-105617354D01*
X120478416Y-105617354D01*
X120383178Y-105664973D01*
X120335559Y-105712592D01*
X120287940Y-105807830D01*
X120240321Y-105998307D01*
X120192702Y-106093545D01*
X120145083Y-106141164D01*
X120049845Y-106188783D01*
X119954607Y-106188783D01*
X119859369Y-106141164D01*
X119811750Y-106093545D01*
X119764130Y-105998307D01*
X119764130Y-105760211D01*
X119811750Y-105617354D01*
X119764130Y-105284021D02*
X120764130Y-105045926D01*
X120049845Y-104855450D01*
X120764130Y-104664973D01*
X119764130Y-104426878D01*
X120764130Y-103522116D02*
X120764130Y-104093545D01*
X120764130Y-103807830D02*
X119764130Y-103807830D01*
X119906988Y-103903069D01*
X120002226Y-103998307D01*
X120049845Y-104093545D01*
X160858109Y-86782320D02*
X160858109Y-85782320D01*
X161905728Y-86687082D02*
X161858109Y-86734701D01*
X161715252Y-86782320D01*
X161620014Y-86782320D01*
X161477157Y-86734701D01*
X161381919Y-86639463D01*
X161334300Y-86544225D01*
X161286680Y-86353749D01*
X161286680Y-86210892D01*
X161334300Y-86020416D01*
X161381919Y-85925178D01*
X161477157Y-85829940D01*
X161620014Y-85782320D01*
X161715252Y-85782320D01*
X161858109Y-85829940D01*
X161905728Y-85877559D01*
X162286680Y-85877559D02*
X162334300Y-85829940D01*
X162429538Y-85782320D01*
X162667633Y-85782320D01*
X162762871Y-85829940D01*
X162810490Y-85877559D01*
X162858109Y-85972797D01*
X162858109Y-86068035D01*
X162810490Y-86210892D01*
X162239061Y-86782320D01*
X162858109Y-86782320D01*
X140178109Y-86782320D02*
X140178109Y-85782320D01*
X141225728Y-86687082D02*
X141178109Y-86734701D01*
X141035252Y-86782320D01*
X140940014Y-86782320D01*
X140797157Y-86734701D01*
X140701919Y-86639463D01*
X140654300Y-86544225D01*
X140606680Y-86353749D01*
X140606680Y-86210892D01*
X140654300Y-86020416D01*
X140701919Y-85925178D01*
X140797157Y-85829940D01*
X140940014Y-85782320D01*
X141035252Y-85782320D01*
X141178109Y-85829940D01*
X141225728Y-85877559D01*
X141559061Y-85782320D02*
X142178109Y-85782320D01*
X141844776Y-86163273D01*
X141987633Y-86163273D01*
X142082871Y-86210892D01*
X142130490Y-86258511D01*
X142178109Y-86353749D01*
X142178109Y-86591844D01*
X142130490Y-86687082D01*
X142082871Y-86734701D01*
X141987633Y-86782320D01*
X141701919Y-86782320D01*
X141606680Y-86734701D01*
X141559061Y-86687082D01*
X124508109Y-85492320D02*
X124508109Y-84492320D01*
X125555728Y-85397082D02*
X125508109Y-85444701D01*
X125365252Y-85492320D01*
X125270014Y-85492320D01*
X125127157Y-85444701D01*
X125031919Y-85349463D01*
X124984300Y-85254225D01*
X124936680Y-85063749D01*
X124936680Y-84920892D01*
X124984300Y-84730416D01*
X125031919Y-84635178D01*
X125127157Y-84539940D01*
X125270014Y-84492320D01*
X125365252Y-84492320D01*
X125508109Y-84539940D01*
X125555728Y-84587559D01*
X126412871Y-84825654D02*
X126412871Y-85492320D01*
X126174776Y-84444701D02*
X125936680Y-85158987D01*
X126555728Y-85158987D01*
X145006680Y-121346130D02*
X144006680Y-121346130D01*
X144911442Y-120298511D02*
X144959061Y-120346130D01*
X145006680Y-120488987D01*
X145006680Y-120584225D01*
X144959061Y-120727082D01*
X144863823Y-120822320D01*
X144768585Y-120869940D01*
X144578109Y-120917559D01*
X144435252Y-120917559D01*
X144244776Y-120869940D01*
X144149538Y-120822320D01*
X144054300Y-120727082D01*
X144006680Y-120584225D01*
X144006680Y-120488987D01*
X144054300Y-120346130D01*
X144101919Y-120298511D01*
X144006680Y-119393749D02*
X144006680Y-119869940D01*
X144482871Y-119917559D01*
X144435252Y-119869940D01*
X144387633Y-119774701D01*
X144387633Y-119536606D01*
X144435252Y-119441368D01*
X144482871Y-119393749D01*
X144578109Y-119346130D01*
X144816204Y-119346130D01*
X144911442Y-119393749D01*
X144959061Y-119441368D01*
X145006680Y-119536606D01*
X145006680Y-119774701D01*
X144959061Y-119869940D01*
X144911442Y-119917559D01*
X167686680Y-121216130D02*
X166686680Y-121216130D01*
X167591442Y-120168511D02*
X167639061Y-120216130D01*
X167686680Y-120358987D01*
X167686680Y-120454225D01*
X167639061Y-120597082D01*
X167543823Y-120692320D01*
X167448585Y-120739940D01*
X167258109Y-120787559D01*
X167115252Y-120787559D01*
X166924776Y-120739940D01*
X166829538Y-120692320D01*
X166734300Y-120597082D01*
X166686680Y-120454225D01*
X166686680Y-120358987D01*
X166734300Y-120216130D01*
X166781919Y-120168511D01*
X166686680Y-119311368D02*
X166686680Y-119501844D01*
X166734300Y-119597082D01*
X166781919Y-119644701D01*
X166924776Y-119739940D01*
X167115252Y-119787559D01*
X167496204Y-119787559D01*
X167591442Y-119739940D01*
X167639061Y-119692320D01*
X167686680Y-119597082D01*
X167686680Y-119406606D01*
X167639061Y-119311368D01*
X167591442Y-119263749D01*
X167496204Y-119216130D01*
X167258109Y-119216130D01*
X167162871Y-119263749D01*
X167115252Y-119311368D01*
X167067633Y-119406606D01*
X167067633Y-119597082D01*
X167115252Y-119692320D01*
X167162871Y-119739940D01*
X167258109Y-119787559D01*
X161898109Y-108932320D02*
X161898109Y-107932320D01*
X162945728Y-108837082D02*
X162898109Y-108884701D01*
X162755252Y-108932320D01*
X162660014Y-108932320D01*
X162517157Y-108884701D01*
X162421919Y-108789463D01*
X162374300Y-108694225D01*
X162326680Y-108503749D01*
X162326680Y-108360892D01*
X162374300Y-108170416D01*
X162421919Y-108075178D01*
X162517157Y-107979940D01*
X162660014Y-107932320D01*
X162755252Y-107932320D01*
X162898109Y-107979940D01*
X162945728Y-108027559D01*
X163279061Y-107932320D02*
X163945728Y-107932320D01*
X163517157Y-108932320D01*
X122761330Y-125395907D02*
X123475616Y-125395907D01*
X123618473Y-125443526D01*
X123713711Y-125538764D01*
X123761330Y-125681621D01*
X123761330Y-125776859D01*
X122761330Y-125062573D02*
X122761330Y-124491145D01*
X123761330Y-124776859D02*
X122761330Y-124776859D01*
X123475616Y-124205430D02*
X123475616Y-123729240D01*
X123761330Y-124300669D02*
X122761330Y-123967335D01*
X123761330Y-123634002D01*
X122808950Y-122776859D02*
X122761330Y-122872097D01*
X122761330Y-123014954D01*
X122808950Y-123157811D01*
X122904188Y-123253050D01*
X122999426Y-123300669D01*
X123189902Y-123348288D01*
X123332759Y-123348288D01*
X123523235Y-123300669D01*
X123618473Y-123253050D01*
X123713711Y-123157811D01*
X123761330Y-123014954D01*
X123761330Y-122919716D01*
X123713711Y-122776859D01*
X123666092Y-122729240D01*
X123332759Y-122729240D01*
X123332759Y-122919716D01*
X123761330Y-121776859D02*
X123761330Y-122348288D01*
X123761330Y-122062573D02*
X122761330Y-122062573D01*
X122904188Y-122157811D01*
X122999426Y-122253050D01*
X123047045Y-122348288D01*
X140068109Y-110332320D02*
X140068109Y-109332320D01*
X141115728Y-110237082D02*
X141068109Y-110284701D01*
X140925252Y-110332320D01*
X140830014Y-110332320D01*
X140687157Y-110284701D01*
X140591919Y-110189463D01*
X140544300Y-110094225D01*
X140496680Y-109903749D01*
X140496680Y-109760892D01*
X140544300Y-109570416D01*
X140591919Y-109475178D01*
X140687157Y-109379940D01*
X140830014Y-109332320D01*
X140925252Y-109332320D01*
X141068109Y-109379940D01*
X141115728Y-109427559D01*
X142068109Y-110332320D02*
X141496680Y-110332320D01*
X141782395Y-110332320D02*
X141782395Y-109332320D01*
X141687157Y-109475178D01*
X141591919Y-109570416D01*
X141496680Y-109618035D01*
X127166680Y-119896130D02*
X126166680Y-119896130D01*
X127071442Y-118848511D02*
X127119061Y-118896130D01*
X127166680Y-119038987D01*
X127166680Y-119134225D01*
X127119061Y-119277082D01*
X127023823Y-119372320D01*
X126928585Y-119419940D01*
X126738109Y-119467559D01*
X126595252Y-119467559D01*
X126404776Y-119419940D01*
X126309538Y-119372320D01*
X126214300Y-119277082D01*
X126166680Y-119134225D01*
X126166680Y-119038987D01*
X126214300Y-118896130D01*
X126261919Y-118848511D01*
X126595252Y-118277082D02*
X126547633Y-118372320D01*
X126500014Y-118419940D01*
X126404776Y-118467559D01*
X126357157Y-118467559D01*
X126261919Y-118419940D01*
X126214300Y-118372320D01*
X126166680Y-118277082D01*
X126166680Y-118086606D01*
X126214300Y-117991368D01*
X126261919Y-117943749D01*
X126357157Y-117896130D01*
X126404776Y-117896130D01*
X126500014Y-117943749D01*
X126547633Y-117991368D01*
X126595252Y-118086606D01*
X126595252Y-118277082D01*
X126642871Y-118372320D01*
X126690490Y-118419940D01*
X126785728Y-118467559D01*
X126976204Y-118467559D01*
X127071442Y-118419940D01*
X127119061Y-118372320D01*
X127166680Y-118277082D01*
X127166680Y-118086606D01*
X127119061Y-117991368D01*
X127071442Y-117943749D01*
X126976204Y-117896130D01*
X126785728Y-117896130D01*
X126690490Y-117943749D01*
X126642871Y-117991368D01*
X126595252Y-118086606D01*
%LPC*%
D16*
X176464550Y-127593450D03*
X176464550Y-126323450D03*
X176464550Y-125053450D03*
X176464550Y-123783450D03*
X176464550Y-122513450D03*
X176464550Y-121243450D03*
X176464550Y-119973450D03*
X176464550Y-118703450D03*
X176464550Y-117433450D03*
X176464550Y-116163450D03*
X176464550Y-114893450D03*
X176464550Y-113623450D03*
X176464550Y-112353450D03*
X176464550Y-111083450D03*
X176464550Y-109813450D03*
X176464550Y-108543450D03*
X176464550Y-107273450D03*
X176464550Y-106003450D03*
X176464550Y-104733450D03*
X176464550Y-103463450D03*
X176464550Y-102193450D03*
X176464550Y-100923450D03*
X176464550Y-99653450D03*
X176464550Y-98383450D03*
X176464550Y-97113450D03*
X176464550Y-95843450D03*
X176464550Y-94573450D03*
X176464550Y-93303450D03*
X176464550Y-92033450D03*
X176464550Y-90763450D03*
X176464550Y-89493450D03*
X176464550Y-88223450D03*
X176464550Y-86953450D03*
X176464550Y-85683450D03*
D17*
X117524450Y-127859790D03*
X117524450Y-125359790D03*
X117524450Y-122859790D03*
X117524450Y-120359790D03*
X117524450Y-117859790D03*
X117524450Y-115359790D03*
X117524450Y-112859790D03*
X117524450Y-110359790D03*
X117524450Y-107859790D03*
X117524450Y-105359790D03*
X117524450Y-102859790D03*
X117524450Y-100359790D03*
X117524450Y-97859790D03*
X117524450Y-95359790D03*
X117524450Y-92859790D03*
X117524450Y-90359790D03*
X117524450Y-87859790D03*
X117524450Y-85359790D03*
X122934450Y-130669790D03*
X125434450Y-130669790D03*
X127934450Y-130669790D03*
X130434450Y-130669790D03*
X132934450Y-130669790D03*
X135434450Y-130669790D03*
X137934450Y-130669790D03*
X140434450Y-130669790D03*
X142934450Y-130669790D03*
X145434450Y-130669790D03*
X147934450Y-130669790D03*
X150434450Y-130669790D03*
X152934450Y-130669790D03*
X155434450Y-130669790D03*
X157934450Y-130669790D03*
X160434450Y-130669790D03*
X162934450Y-130669790D03*
X165434450Y-130669790D03*
X122924450Y-82739790D03*
X125424450Y-82739790D03*
X127924450Y-82739790D03*
X130424450Y-82739790D03*
X132924450Y-82739790D03*
X135424450Y-82739790D03*
X137924450Y-82739790D03*
X140424450Y-82739790D03*
X142924450Y-82739790D03*
X145424450Y-82739790D03*
X147924450Y-82739790D03*
X150424450Y-82739790D03*
X152924450Y-82739790D03*
X155424450Y-82739790D03*
X157924450Y-82739790D03*
X160424450Y-82739790D03*
X162924450Y-82739790D03*
X165424450Y-82739790D03*
D18*
X123170450Y-102431790D03*
X123170450Y-104931790D03*
X123170450Y-107431790D03*
D19*
X120420450Y-101531790D03*
X120420450Y-108331790D03*
D20*
X158234300Y-88154940D03*
X158234300Y-88804940D03*
X158234300Y-89454940D03*
X158234300Y-90104940D03*
X158234300Y-90754940D03*
X158234300Y-91404940D03*
X158234300Y-92054940D03*
X158234300Y-92704940D03*
X158234300Y-93354940D03*
X158234300Y-94004940D03*
X165434300Y-94004940D03*
X165434300Y-93354940D03*
X165434300Y-92704940D03*
X165434300Y-92054940D03*
X165434300Y-91404940D03*
X165434300Y-90754940D03*
X165434300Y-90104940D03*
X165434300Y-89454940D03*
X165434300Y-88804940D03*
X165434300Y-88154940D03*
X137554300Y-94004940D03*
X137554300Y-93354940D03*
X137554300Y-92704940D03*
X137554300Y-92054940D03*
X137554300Y-91404940D03*
X137554300Y-90754940D03*
X137554300Y-90104940D03*
X137554300Y-89454940D03*
X137554300Y-88804940D03*
X137554300Y-88154940D03*
X144754300Y-88154940D03*
X144754300Y-88804940D03*
X144754300Y-89454940D03*
X144754300Y-90104940D03*
X144754300Y-90754940D03*
X144754300Y-91404940D03*
X144754300Y-92054940D03*
X144754300Y-92704940D03*
X144754300Y-93354940D03*
X144754300Y-94004940D03*
X121884300Y-86864940D03*
X121884300Y-87514940D03*
X121884300Y-88164940D03*
X121884300Y-88814940D03*
X121884300Y-89464940D03*
X121884300Y-90114940D03*
X121884300Y-90764940D03*
X121884300Y-91414940D03*
X121884300Y-92064940D03*
X121884300Y-92714940D03*
X129084300Y-92714940D03*
X129084300Y-92064940D03*
X129084300Y-91414940D03*
X129084300Y-90764940D03*
X129084300Y-90114940D03*
X129084300Y-89464940D03*
X129084300Y-88814940D03*
X129084300Y-88164940D03*
X129084300Y-87514940D03*
X129084300Y-86864940D03*
D21*
X146379300Y-116769940D03*
X147029300Y-116769940D03*
X147679300Y-116769940D03*
X148329300Y-116769940D03*
X148979300Y-116769940D03*
X149629300Y-116769940D03*
X150279300Y-116769940D03*
X150929300Y-116769940D03*
X151579300Y-116769940D03*
X152229300Y-116769940D03*
X152229300Y-123969940D03*
X151579300Y-123969940D03*
X150929300Y-123969940D03*
X150279300Y-123969940D03*
X149629300Y-123969940D03*
X148979300Y-123969940D03*
X148329300Y-123969940D03*
X147679300Y-123969940D03*
X147029300Y-123969940D03*
X146379300Y-123969940D03*
X165409300Y-116639940D03*
X164759300Y-116639940D03*
X164109300Y-116639940D03*
X163459300Y-116639940D03*
X162809300Y-116639940D03*
X162159300Y-116639940D03*
X161509300Y-116639940D03*
X160859300Y-116639940D03*
X160209300Y-116639940D03*
X159559300Y-116639940D03*
X159559300Y-123839940D03*
X160209300Y-123839940D03*
X160859300Y-123839940D03*
X161509300Y-123839940D03*
X162159300Y-123839940D03*
X162809300Y-123839940D03*
X163459300Y-123839940D03*
X164109300Y-123839940D03*
X164759300Y-123839940D03*
X165409300Y-123839940D03*
D20*
X159274300Y-106654940D03*
X159274300Y-106004940D03*
X159274300Y-105354940D03*
X159274300Y-104704940D03*
X159274300Y-104054940D03*
X159274300Y-103404940D03*
X159274300Y-102754940D03*
X159274300Y-102104940D03*
X159274300Y-101454940D03*
X159274300Y-100804940D03*
X166474300Y-100804940D03*
X166474300Y-101454940D03*
X166474300Y-102104940D03*
X166474300Y-102754940D03*
X166474300Y-103404940D03*
X166474300Y-104054940D03*
X166474300Y-104704940D03*
X166474300Y-105354940D03*
X166474300Y-106004940D03*
X166474300Y-106654940D03*
D22*
X120974300Y-111849940D03*
X120974300Y-114389940D03*
X120974300Y-116929940D03*
X120974300Y-119469940D03*
X120974300Y-122009940D03*
D23*
X120974300Y-124549940D03*
D24*
X131294300Y-108629940D03*
X131294300Y-108129940D03*
X131294300Y-107629940D03*
X131294300Y-107129940D03*
X131294300Y-106629940D03*
X131294300Y-106129940D03*
X131294300Y-105629940D03*
X131294300Y-105129940D03*
X131294300Y-104629940D03*
X131294300Y-104129940D03*
X131294300Y-103629940D03*
X131294300Y-103129940D03*
X131294300Y-102629940D03*
X131294300Y-102129940D03*
X131294300Y-101629940D03*
X131294300Y-101129940D03*
X131294300Y-100629940D03*
X131294300Y-100129940D03*
X131294300Y-99629940D03*
X131294300Y-99129940D03*
X131294300Y-98629940D03*
X131294300Y-98129940D03*
X131294300Y-97629940D03*
X150794300Y-97129940D03*
X150794300Y-97629940D03*
X150794300Y-98129940D03*
X150794300Y-98629940D03*
X150794300Y-99129940D03*
X150794300Y-99629940D03*
X150794300Y-100129940D03*
X150794300Y-100629940D03*
X150794300Y-101129940D03*
X150794300Y-101629940D03*
X150794300Y-102129940D03*
X150794300Y-102629940D03*
X150794300Y-103129940D03*
X150794300Y-103629940D03*
X150794300Y-104129940D03*
X150794300Y-104629940D03*
X150794300Y-105129940D03*
X150794300Y-105629940D03*
X150794300Y-106129940D03*
X150794300Y-106629940D03*
X150794300Y-107129940D03*
X150794300Y-107629940D03*
X150794300Y-108129940D03*
X131294300Y-97129940D03*
X150794300Y-108629940D03*
D25*
X130164300Y-124619940D03*
X130964300Y-124619940D03*
X131764300Y-124619940D03*
X132564300Y-124619940D03*
X133364300Y-124619940D03*
X134164300Y-124619940D03*
X134964300Y-124619940D03*
X135764300Y-124619940D03*
X136564300Y-124619940D03*
X137364300Y-124619940D03*
X138164300Y-124619940D03*
D26*
X139864300Y-122919940D03*
X139864300Y-122119940D03*
X139864300Y-121319940D03*
X139864300Y-120519940D03*
X139864300Y-119719940D03*
X139864300Y-118919940D03*
X139864300Y-118119940D03*
X139864300Y-117319940D03*
X139864300Y-116519940D03*
X139864300Y-115719940D03*
X139864300Y-114919940D03*
D25*
X138164300Y-113219940D03*
X137364300Y-113219940D03*
X136564300Y-113219940D03*
X135764300Y-113219940D03*
X134964300Y-113219940D03*
X134164300Y-113219940D03*
X133364300Y-113219940D03*
X132564300Y-113219940D03*
X131764300Y-113219940D03*
X130964300Y-113219940D03*
X130164300Y-113219940D03*
D26*
X128464300Y-114919940D03*
X128464300Y-115719940D03*
X128464300Y-116519940D03*
X128464300Y-117319940D03*
X128464300Y-118119940D03*
X128464300Y-118919940D03*
X128464300Y-119719940D03*
X128464300Y-120519940D03*
X128464300Y-121319940D03*
X128464300Y-122119940D03*
X128464300Y-122919940D03*
M02*
