G04 #@! TF.GenerationSoftware,KiCad,Pcbnew,5.1.2-f72e74a~84~ubuntu16.04.1*
G04 #@! TF.CreationDate,2019-06-15T11:53:25+02:00*
G04 #@! TF.ProjectId,sakura,73616b75-7261-42e6-9b69-6361645f7063,2.1.2019*
G04 #@! TF.SameCoordinates,Original*
G04 #@! TF.FileFunction,Paste,Top*
G04 #@! TF.FilePolarity,Positive*
%FSLAX46Y46*%
G04 Gerber Fmt 4.6, Leading zero omitted, Abs format (unit mm)*
G04 Created by KiCad (PCBNEW 5.1.2-f72e74a~84~ubuntu16.04.1) date 2019-06-15 11:53:25*
%MOMM*%
%LPD*%
G04 APERTURE LIST*
%ADD10R,4.000000X0.800000*%
%ADD11R,2.500000X1.250000*%
%ADD12R,1.750000X0.450000*%
%ADD13R,0.450000X1.750000*%
%ADD14R,1.100000X0.250000*%
%ADD15R,0.550000X1.500000*%
%ADD16R,1.500000X0.550000*%
G04 APERTURE END LIST*
D10*
X176464550Y-127593450D03*
X176464550Y-126323450D03*
X176464550Y-125053450D03*
X176464550Y-123783450D03*
X176464550Y-122513450D03*
X176464550Y-121243450D03*
X176464550Y-119973450D03*
X176464550Y-118703450D03*
X176464550Y-117433450D03*
X176464550Y-116163450D03*
X176464550Y-114893450D03*
X176464550Y-113623450D03*
X176464550Y-112353450D03*
X176464550Y-111083450D03*
X176464550Y-109813450D03*
X176464550Y-108543450D03*
X176464550Y-107273450D03*
X176464550Y-106003450D03*
X176464550Y-104733450D03*
X176464550Y-103463450D03*
X176464550Y-102193450D03*
X176464550Y-100923450D03*
X176464550Y-99653450D03*
X176464550Y-98383450D03*
X176464550Y-97113450D03*
X176464550Y-95843450D03*
X176464550Y-94573450D03*
X176464550Y-93303450D03*
X176464550Y-92033450D03*
X176464550Y-90763450D03*
X176464550Y-89493450D03*
X176464550Y-88223450D03*
X176464550Y-86953450D03*
X176464550Y-85683450D03*
D11*
X123170450Y-102431790D03*
X123170450Y-104931790D03*
X123170450Y-107431790D03*
D12*
X158234300Y-88154940D03*
X158234300Y-88804940D03*
X158234300Y-89454940D03*
X158234300Y-90104940D03*
X158234300Y-90754940D03*
X158234300Y-91404940D03*
X158234300Y-92054940D03*
X158234300Y-92704940D03*
X158234300Y-93354940D03*
X158234300Y-94004940D03*
X165434300Y-94004940D03*
X165434300Y-93354940D03*
X165434300Y-92704940D03*
X165434300Y-92054940D03*
X165434300Y-91404940D03*
X165434300Y-90754940D03*
X165434300Y-90104940D03*
X165434300Y-89454940D03*
X165434300Y-88804940D03*
X165434300Y-88154940D03*
X137554300Y-94004940D03*
X137554300Y-93354940D03*
X137554300Y-92704940D03*
X137554300Y-92054940D03*
X137554300Y-91404940D03*
X137554300Y-90754940D03*
X137554300Y-90104940D03*
X137554300Y-89454940D03*
X137554300Y-88804940D03*
X137554300Y-88154940D03*
X144754300Y-88154940D03*
X144754300Y-88804940D03*
X144754300Y-89454940D03*
X144754300Y-90104940D03*
X144754300Y-90754940D03*
X144754300Y-91404940D03*
X144754300Y-92054940D03*
X144754300Y-92704940D03*
X144754300Y-93354940D03*
X144754300Y-94004940D03*
X121884300Y-86864940D03*
X121884300Y-87514940D03*
X121884300Y-88164940D03*
X121884300Y-88814940D03*
X121884300Y-89464940D03*
X121884300Y-90114940D03*
X121884300Y-90764940D03*
X121884300Y-91414940D03*
X121884300Y-92064940D03*
X121884300Y-92714940D03*
X129084300Y-92714940D03*
X129084300Y-92064940D03*
X129084300Y-91414940D03*
X129084300Y-90764940D03*
X129084300Y-90114940D03*
X129084300Y-89464940D03*
X129084300Y-88814940D03*
X129084300Y-88164940D03*
X129084300Y-87514940D03*
X129084300Y-86864940D03*
D13*
X146379300Y-116769940D03*
X147029300Y-116769940D03*
X147679300Y-116769940D03*
X148329300Y-116769940D03*
X148979300Y-116769940D03*
X149629300Y-116769940D03*
X150279300Y-116769940D03*
X150929300Y-116769940D03*
X151579300Y-116769940D03*
X152229300Y-116769940D03*
X152229300Y-123969940D03*
X151579300Y-123969940D03*
X150929300Y-123969940D03*
X150279300Y-123969940D03*
X149629300Y-123969940D03*
X148979300Y-123969940D03*
X148329300Y-123969940D03*
X147679300Y-123969940D03*
X147029300Y-123969940D03*
X146379300Y-123969940D03*
X165409300Y-116639940D03*
X164759300Y-116639940D03*
X164109300Y-116639940D03*
X163459300Y-116639940D03*
X162809300Y-116639940D03*
X162159300Y-116639940D03*
X161509300Y-116639940D03*
X160859300Y-116639940D03*
X160209300Y-116639940D03*
X159559300Y-116639940D03*
X159559300Y-123839940D03*
X160209300Y-123839940D03*
X160859300Y-123839940D03*
X161509300Y-123839940D03*
X162159300Y-123839940D03*
X162809300Y-123839940D03*
X163459300Y-123839940D03*
X164109300Y-123839940D03*
X164759300Y-123839940D03*
X165409300Y-123839940D03*
D12*
X159274300Y-106654940D03*
X159274300Y-106004940D03*
X159274300Y-105354940D03*
X159274300Y-104704940D03*
X159274300Y-104054940D03*
X159274300Y-103404940D03*
X159274300Y-102754940D03*
X159274300Y-102104940D03*
X159274300Y-101454940D03*
X159274300Y-100804940D03*
X166474300Y-100804940D03*
X166474300Y-101454940D03*
X166474300Y-102104940D03*
X166474300Y-102754940D03*
X166474300Y-103404940D03*
X166474300Y-104054940D03*
X166474300Y-104704940D03*
X166474300Y-105354940D03*
X166474300Y-106004940D03*
X166474300Y-106654940D03*
D14*
X131294300Y-108629940D03*
X131294300Y-108129940D03*
X131294300Y-107629940D03*
X131294300Y-107129940D03*
X131294300Y-106629940D03*
X131294300Y-106129940D03*
X131294300Y-105629940D03*
X131294300Y-105129940D03*
X131294300Y-104629940D03*
X131294300Y-104129940D03*
X131294300Y-103629940D03*
X131294300Y-103129940D03*
X131294300Y-102629940D03*
X131294300Y-102129940D03*
X131294300Y-101629940D03*
X131294300Y-101129940D03*
X131294300Y-100629940D03*
X131294300Y-100129940D03*
X131294300Y-99629940D03*
X131294300Y-99129940D03*
X131294300Y-98629940D03*
X131294300Y-98129940D03*
X131294300Y-97629940D03*
X150794300Y-97129940D03*
X150794300Y-97629940D03*
X150794300Y-98129940D03*
X150794300Y-98629940D03*
X150794300Y-99129940D03*
X150794300Y-99629940D03*
X150794300Y-100129940D03*
X150794300Y-100629940D03*
X150794300Y-101129940D03*
X150794300Y-101629940D03*
X150794300Y-102129940D03*
X150794300Y-102629940D03*
X150794300Y-103129940D03*
X150794300Y-103629940D03*
X150794300Y-104129940D03*
X150794300Y-104629940D03*
X150794300Y-105129940D03*
X150794300Y-105629940D03*
X150794300Y-106129940D03*
X150794300Y-106629940D03*
X150794300Y-107129940D03*
X150794300Y-107629940D03*
X150794300Y-108129940D03*
X131294300Y-97129940D03*
X150794300Y-108629940D03*
D15*
X130164300Y-124619940D03*
X130964300Y-124619940D03*
X131764300Y-124619940D03*
X132564300Y-124619940D03*
X133364300Y-124619940D03*
X134164300Y-124619940D03*
X134964300Y-124619940D03*
X135764300Y-124619940D03*
X136564300Y-124619940D03*
X137364300Y-124619940D03*
X138164300Y-124619940D03*
D16*
X139864300Y-122919940D03*
X139864300Y-122119940D03*
X139864300Y-121319940D03*
X139864300Y-120519940D03*
X139864300Y-119719940D03*
X139864300Y-118919940D03*
X139864300Y-118119940D03*
X139864300Y-117319940D03*
X139864300Y-116519940D03*
X139864300Y-115719940D03*
X139864300Y-114919940D03*
D15*
X138164300Y-113219940D03*
X137364300Y-113219940D03*
X136564300Y-113219940D03*
X135764300Y-113219940D03*
X134964300Y-113219940D03*
X134164300Y-113219940D03*
X133364300Y-113219940D03*
X132564300Y-113219940D03*
X131764300Y-113219940D03*
X130964300Y-113219940D03*
X130164300Y-113219940D03*
D16*
X128464300Y-114919940D03*
X128464300Y-115719940D03*
X128464300Y-116519940D03*
X128464300Y-117319940D03*
X128464300Y-118119940D03*
X128464300Y-118919940D03*
X128464300Y-119719940D03*
X128464300Y-120519940D03*
X128464300Y-121319940D03*
X128464300Y-122119940D03*
X128464300Y-122919940D03*
M02*
