M48
INCH,TZ
T1C0.0157
T2C0.0197
T3C0.0394
T4C0.0354
%
G90
G05
T1
X47709Y-37425
X47709Y-38379
X47712Y-39253
X48291Y-47134
X48500Y-47449
X48708Y-47764
X48917Y-48079
X48931Y-34201
X49126Y-48394
X49275Y-49683
X49334Y-48709
X49543Y-49024
X49752Y-49339
X50028Y-33886
X50032Y-45874
X50032Y-46189
X50032Y-46504
X50112Y-34455
X50112Y-34711
X50112Y-34967
X50112Y-35222
X50112Y-35478
X50112Y-35734
X50112Y-35990
X50112Y-36246
X50112Y-36502
X50168Y-42986
X50172Y-41853
X50470Y-37964
X50532Y-42733
X50598Y-49105
X50672Y-37184
X50805Y-42047
X50991Y-43787
X51084Y-46818
X51387Y-48338
X51716Y-46132
X51822Y-50188
X51875Y-45109
X51916Y-37188
X52110Y-46329
X52191Y-48494
X52208Y-40701
X52503Y-46526
X52506Y-48494
X52514Y-34195
X52524Y-50188
X52622Y-37013
X52821Y-48494
X52868Y-42173
X52872Y-46313
X53119Y-46818
X53136Y-48494
X53380Y-41657
X53449Y-45557
X53451Y-43846
X53451Y-48494
X53664Y-42132
X53779Y-46818
X53936Y-41101
X53936Y-43043
X54198Y-38238
X54218Y-37429
X54293Y-45838
X54826Y-35474
X54826Y-35730
X54826Y-35986
X54826Y-36242
X54826Y-36498
X54826Y-36754
X55028Y-44534
X55072Y-34729
X55648Y-47134
X55915Y-47449
X56033Y-41153
X56424Y-44595
X56752Y-37429
X56935Y-48984
X57084Y-45811
X57627Y-46869
X57689Y-37028
X57891Y-41193
X57891Y-41783
X58147Y-40996
X58147Y-41783
X58401Y-37028
X58403Y-40799
X58403Y-41783
X58659Y-40602
X58659Y-41783
X58915Y-41783
X59255Y-37028
X59932Y-46731
X59974Y-40484
X60014Y-43531
X60465Y-48483
X60532Y-38483
X60550Y-47179
X60814Y-40799
X60816Y-37028
X60958Y-44042
X61205Y-47605
X61284Y-48860
X61388Y-45319
X61460Y-39481
X61632Y-45642
X61819Y-48064
X61876Y-45980
X61990Y-37690
X62102Y-38559
X62238Y-42854
X62379Y-45149
X62581Y-43277
X62832Y-37909
X62976Y-35109
X62976Y-35502
X62976Y-35896
X62976Y-36290
X62976Y-36683
X64098Y-46547
X64151Y-37008
X64203Y-39697
X64203Y-42842
X64870Y-47165
X65124Y-48059
X65836Y-45193
X65980Y-35320
X66380Y-34165
X66380Y-34423
X66380Y-34685
X66384Y-33640
X66384Y-33902
X66474Y-44530
X66502Y-45859
X66769Y-35618
X67140Y-45196
X67169Y-48888
X67169Y-49183
X67169Y-49479
X67169Y-49774
X67169Y-50069
X67407Y-37909
X67602Y-35428
X67602Y-35732
X67602Y-36059
X67602Y-36394
X67602Y-36740
X67602Y-37463
X67604Y-42362
X67837Y-40006
X67841Y-39506
X67841Y-41006
X67841Y-41506
X67849Y-40506
X67855Y-44529
X68065Y-37740
X68153Y-42216
X68230Y-47520
X68310Y-33987
X68310Y-49991
T2
X48399Y-51445
X49384Y-51445
X50368Y-51445
X51352Y-51445
X52336Y-51445
X53321Y-51445
X54305Y-51445
X55289Y-51445
X56273Y-51445
X57258Y-51445
X58242Y-51445
X59226Y-51445
X60210Y-51445
X61195Y-51445
X62179Y-51445
X63163Y-51445
X64147Y-51445
X65132Y-51445
X46269Y-33606
X46269Y-34590
X46269Y-35575
X46269Y-36559
X46269Y-37543
X46269Y-38527
X46269Y-39512
X46269Y-40496
X46269Y-41480
X46269Y-42464
X46269Y-43449
X46269Y-44433
X46269Y-45417
X46269Y-46401
X46269Y-47386
X46269Y-48370
X46269Y-49354
X46269Y-50339
X48395Y-32575
X49380Y-32575
X50364Y-32575
X51348Y-32575
X52332Y-32575
X53317Y-32575
X54301Y-32575
X55285Y-32575
X56269Y-32575
X57254Y-32575
X58238Y-32575
X59222Y-32575
X60206Y-32575
X61191Y-32575
X62175Y-32575
X63159Y-32575
X64143Y-32575
X65128Y-32575
T3
X47628Y-44035
X47628Y-45035
X47628Y-46035
X47628Y-47035
X47628Y-48035
X47628Y-49035
T4
X47410Y-39973
X47410Y-42650
T0
M30
