G04 #@! TF.GenerationSoftware,KiCad,Pcbnew,5.1.2-f72e74a~84~ubuntu16.04.1*
G04 #@! TF.CreationDate,2019-06-15T11:53:25+02:00*
G04 #@! TF.ProjectId,sakura,73616b75-7261-42e6-9b69-6361645f7063,2.1.2019*
G04 #@! TF.SameCoordinates,Original*
G04 #@! TF.FileFunction,Legend,Bot*
G04 #@! TF.FilePolarity,Positive*
%FSLAX46Y46*%
G04 Gerber Fmt 4.6, Leading zero omitted, Abs format (unit mm)*
G04 Created by KiCad (PCBNEW 5.1.2-f72e74a~84~ubuntu16.04.1) date 2019-06-15 11:53:25*
%MOMM*%
%LPD*%
G04 APERTURE LIST*
%ADD10C,0.200000*%
%ADD11C,0.125000*%
%ADD12C,0.150000*%
%ADD13C,0.010000*%
%ADD14C,0.120000*%
%ADD15R,4.100000X0.900000*%
%ADD16C,0.900000*%
%ADD17C,1.000000*%
%ADD18R,1.600000X1.350000*%
%ADD19R,1.350000X1.600000*%
%ADD20R,2.100000X1.700000*%
%ADD21R,2.100000X1.600000*%
%ADD22R,2.100000X3.900000*%
%ADD23O,1.800000X1.800000*%
%ADD24R,1.800000X1.800000*%
G04 APERTURE END LIST*
D10*
X132869888Y-129077150D02*
X132869888Y-128410484D01*
X132869888Y-128600960D02*
X132822269Y-128505722D01*
X132774650Y-128458103D01*
X132679411Y-128410484D01*
X132584173Y-128410484D01*
X131869888Y-129029531D02*
X131965126Y-129077150D01*
X132155602Y-129077150D01*
X132250840Y-129029531D01*
X132298459Y-128934293D01*
X132298459Y-128553341D01*
X132250840Y-128458103D01*
X132155602Y-128410484D01*
X131965126Y-128410484D01*
X131869888Y-128458103D01*
X131822269Y-128553341D01*
X131822269Y-128648579D01*
X132298459Y-128743817D01*
X131488935Y-128410484D02*
X131250840Y-129077150D01*
X131012745Y-128410484D01*
X129917507Y-128172389D02*
X129869888Y-128124770D01*
X129774650Y-128077150D01*
X129536554Y-128077150D01*
X129441316Y-128124770D01*
X129393697Y-128172389D01*
X129346078Y-128267627D01*
X129346078Y-128362865D01*
X129393697Y-128505722D01*
X129965126Y-129077150D01*
X129346078Y-129077150D01*
X128917507Y-128981912D02*
X128869888Y-129029531D01*
X128917507Y-129077150D01*
X128965126Y-129029531D01*
X128917507Y-128981912D01*
X128917507Y-129077150D01*
X127917507Y-129077150D02*
X128488935Y-129077150D01*
X128203221Y-129077150D02*
X128203221Y-128077150D01*
X128298459Y-128220008D01*
X128393697Y-128315246D01*
X128488935Y-128362865D01*
X127488935Y-128981912D02*
X127441316Y-129029531D01*
X127488935Y-129077150D01*
X127536554Y-129029531D01*
X127488935Y-128981912D01*
X127488935Y-129077150D01*
X127060364Y-128172389D02*
X127012745Y-128124770D01*
X126917507Y-128077150D01*
X126679411Y-128077150D01*
X126584173Y-128124770D01*
X126536554Y-128172389D01*
X126488935Y-128267627D01*
X126488935Y-128362865D01*
X126536554Y-128505722D01*
X127107983Y-129077150D01*
X126488935Y-129077150D01*
X125869888Y-128077150D02*
X125774650Y-128077150D01*
X125679411Y-128124770D01*
X125631792Y-128172389D01*
X125584173Y-128267627D01*
X125536554Y-128458103D01*
X125536554Y-128696198D01*
X125584173Y-128886674D01*
X125631792Y-128981912D01*
X125679411Y-129029531D01*
X125774650Y-129077150D01*
X125869888Y-129077150D01*
X125965126Y-129029531D01*
X126012745Y-128981912D01*
X126060364Y-128886674D01*
X126107983Y-128696198D01*
X126107983Y-128458103D01*
X126060364Y-128267627D01*
X126012745Y-128172389D01*
X125965126Y-128124770D01*
X125869888Y-128077150D01*
X124584173Y-129077150D02*
X125155602Y-129077150D01*
X124869888Y-129077150D02*
X124869888Y-128077150D01*
X124965126Y-128220008D01*
X125060364Y-128315246D01*
X125155602Y-128362865D01*
X124107983Y-129077150D02*
X123917507Y-129077150D01*
X123822269Y-129029531D01*
X123774650Y-128981912D01*
X123679411Y-128839055D01*
X123631792Y-128648579D01*
X123631792Y-128267627D01*
X123679411Y-128172389D01*
X123727030Y-128124770D01*
X123822269Y-128077150D01*
X124012745Y-128077150D01*
X124107983Y-128124770D01*
X124155602Y-128172389D01*
X124203221Y-128267627D01*
X124203221Y-128505722D01*
X124155602Y-128600960D01*
X124107983Y-128648579D01*
X124012745Y-128696198D01*
X123822269Y-128696198D01*
X123727030Y-128648579D01*
X123679411Y-128600960D01*
X123631792Y-128505722D01*
X171683211Y-108801332D02*
X171073688Y-108801332D01*
X171378450Y-109106094D02*
X171378450Y-108496570D01*
X171683211Y-98869932D02*
X171073688Y-98869932D01*
X171378450Y-99174694D02*
X171378450Y-98565170D01*
D11*
X122606735Y-94311040D02*
X123106735Y-94311040D01*
X122321021Y-94132468D02*
X122856735Y-93953897D01*
X122856735Y-94418182D01*
X123106735Y-94703897D02*
X122356735Y-94703897D01*
X122892450Y-94953897D01*
X122356735Y-95203897D01*
X123106735Y-95203897D01*
X122713878Y-95811040D02*
X122749592Y-95918182D01*
X122785307Y-95953897D01*
X122856735Y-95989611D01*
X122963878Y-95989611D01*
X123035307Y-95953897D01*
X123071021Y-95918182D01*
X123106735Y-95846754D01*
X123106735Y-95561040D01*
X122356735Y-95561040D01*
X122356735Y-95811040D01*
X122392450Y-95882468D01*
X122428164Y-95918182D01*
X122499592Y-95953897D01*
X122571021Y-95953897D01*
X122642450Y-95918182D01*
X122678164Y-95882468D01*
X122713878Y-95811040D01*
X122713878Y-95561040D01*
X123071021Y-96846754D02*
X123106735Y-96953897D01*
X123106735Y-97132468D01*
X123071021Y-97203897D01*
X123035307Y-97239611D01*
X122963878Y-97275325D01*
X122892450Y-97275325D01*
X122821021Y-97239611D01*
X122785307Y-97203897D01*
X122749592Y-97132468D01*
X122713878Y-96989611D01*
X122678164Y-96918182D01*
X122642450Y-96882468D01*
X122571021Y-96846754D01*
X122499592Y-96846754D01*
X122428164Y-96882468D01*
X122392450Y-96918182D01*
X122356735Y-96989611D01*
X122356735Y-97168182D01*
X122392450Y-97275325D01*
X123106735Y-98025325D02*
X122749592Y-97775325D01*
X123106735Y-97596754D02*
X122356735Y-97596754D01*
X122356735Y-97882468D01*
X122392450Y-97953897D01*
X122428164Y-97989611D01*
X122499592Y-98025325D01*
X122606735Y-98025325D01*
X122678164Y-97989611D01*
X122713878Y-97953897D01*
X122749592Y-97882468D01*
X122749592Y-97596754D01*
X122892450Y-98311040D02*
X122892450Y-98668182D01*
X123106735Y-98239611D02*
X122356735Y-98489611D01*
X123106735Y-98739611D01*
X123106735Y-98989611D02*
X122356735Y-98989611D01*
X122892450Y-99239611D01*
X122356735Y-99489611D01*
X123106735Y-99489611D01*
X122821021Y-100418182D02*
X122821021Y-100989611D01*
X122713878Y-102168182D02*
X122713878Y-101918182D01*
X123106735Y-101918182D02*
X122356735Y-101918182D01*
X122356735Y-102275325D01*
X123106735Y-102882468D02*
X122713878Y-102882468D01*
X122642450Y-102846754D01*
X122606735Y-102775325D01*
X122606735Y-102632468D01*
X122642450Y-102561040D01*
X123071021Y-102882468D02*
X123106735Y-102811040D01*
X123106735Y-102632468D01*
X123071021Y-102561040D01*
X122999592Y-102525325D01*
X122928164Y-102525325D01*
X122856735Y-102561040D01*
X122821021Y-102632468D01*
X122821021Y-102811040D01*
X122785307Y-102882468D01*
X123071021Y-103203897D02*
X123106735Y-103275325D01*
X123106735Y-103418182D01*
X123071021Y-103489611D01*
X122999592Y-103525325D01*
X122963878Y-103525325D01*
X122892450Y-103489611D01*
X122856735Y-103418182D01*
X122856735Y-103311040D01*
X122821021Y-103239611D01*
X122749592Y-103203897D01*
X122713878Y-103203897D01*
X122642450Y-103239611D01*
X122606735Y-103311040D01*
X122606735Y-103418182D01*
X122642450Y-103489611D01*
X122606735Y-103739611D02*
X122606735Y-104025325D01*
X122356735Y-103846754D02*
X122999592Y-103846754D01*
X123071021Y-103882468D01*
X123106735Y-103953897D01*
X123106735Y-104025325D01*
X123106735Y-104703897D02*
X122749592Y-104453897D01*
X123106735Y-104275325D02*
X122356735Y-104275325D01*
X122356735Y-104561040D01*
X122392450Y-104632468D01*
X122428164Y-104668182D01*
X122499592Y-104703897D01*
X122606735Y-104703897D01*
X122678164Y-104668182D01*
X122713878Y-104632468D01*
X122749592Y-104561040D01*
X122749592Y-104275325D01*
X122892450Y-104989611D02*
X122892450Y-105346754D01*
X123106735Y-104918182D02*
X122356735Y-105168182D01*
X123106735Y-105418182D01*
X123106735Y-105668182D02*
X122356735Y-105668182D01*
X122892450Y-105918182D01*
X122356735Y-106168182D01*
X123106735Y-106168182D01*
X123071021Y-107382468D02*
X123106735Y-107311040D01*
X123106735Y-107168182D01*
X123071021Y-107096754D01*
X122999592Y-107061040D01*
X122713878Y-107061040D01*
X122642450Y-107096754D01*
X122606735Y-107168182D01*
X122606735Y-107311040D01*
X122642450Y-107382468D01*
X122713878Y-107418182D01*
X122785307Y-107418182D01*
X122856735Y-107061040D01*
X123106735Y-107668182D02*
X122606735Y-108061040D01*
X122606735Y-107668182D02*
X123106735Y-108061040D01*
X122606735Y-108346754D02*
X123356735Y-108346754D01*
X122642450Y-108346754D02*
X122606735Y-108418182D01*
X122606735Y-108561040D01*
X122642450Y-108632468D01*
X122678164Y-108668182D01*
X122749592Y-108703897D01*
X122963878Y-108703897D01*
X123035307Y-108668182D01*
X123071021Y-108632468D01*
X123106735Y-108561040D01*
X123106735Y-108418182D01*
X123071021Y-108346754D01*
X123106735Y-109346754D02*
X122713878Y-109346754D01*
X122642450Y-109311040D01*
X122606735Y-109239611D01*
X122606735Y-109096754D01*
X122642450Y-109025325D01*
X123071021Y-109346754D02*
X123106735Y-109275325D01*
X123106735Y-109096754D01*
X123071021Y-109025325D01*
X122999592Y-108989611D01*
X122928164Y-108989611D01*
X122856735Y-109025325D01*
X122821021Y-109096754D01*
X122821021Y-109275325D01*
X122785307Y-109346754D01*
X122606735Y-109703897D02*
X123106735Y-109703897D01*
X122678164Y-109703897D02*
X122642450Y-109739611D01*
X122606735Y-109811040D01*
X122606735Y-109918182D01*
X122642450Y-109989611D01*
X122713878Y-110025325D01*
X123106735Y-110025325D01*
X123071021Y-110346754D02*
X123106735Y-110418182D01*
X123106735Y-110561040D01*
X123071021Y-110632468D01*
X122999592Y-110668182D01*
X122963878Y-110668182D01*
X122892450Y-110632468D01*
X122856735Y-110561040D01*
X122856735Y-110453897D01*
X122821021Y-110382468D01*
X122749592Y-110346754D01*
X122713878Y-110346754D01*
X122642450Y-110382468D01*
X122606735Y-110453897D01*
X122606735Y-110561040D01*
X122642450Y-110632468D01*
X123106735Y-110989611D02*
X122606735Y-110989611D01*
X122356735Y-110989611D02*
X122392450Y-110953897D01*
X122428164Y-110989611D01*
X122392450Y-111025325D01*
X122356735Y-110989611D01*
X122428164Y-110989611D01*
X123106735Y-111453897D02*
X123071021Y-111382468D01*
X123035307Y-111346754D01*
X122963878Y-111311040D01*
X122749592Y-111311040D01*
X122678164Y-111346754D01*
X122642450Y-111382468D01*
X122606735Y-111453897D01*
X122606735Y-111561040D01*
X122642450Y-111632468D01*
X122678164Y-111668182D01*
X122749592Y-111703897D01*
X122963878Y-111703897D01*
X123035307Y-111668182D01*
X123071021Y-111632468D01*
X123106735Y-111561040D01*
X123106735Y-111453897D01*
X122606735Y-112025325D02*
X123106735Y-112025325D01*
X122678164Y-112025325D02*
X122642450Y-112061040D01*
X122606735Y-112132468D01*
X122606735Y-112239611D01*
X122642450Y-112311040D01*
X122713878Y-112346754D01*
X123106735Y-112346754D01*
X123856735Y-93882468D02*
X123856735Y-94168182D01*
X124356735Y-93989611D02*
X123713878Y-93989611D01*
X123642450Y-94025325D01*
X123606735Y-94096754D01*
X123606735Y-94168182D01*
X124356735Y-94525325D02*
X124321021Y-94453897D01*
X124285307Y-94418182D01*
X124213878Y-94382468D01*
X123999592Y-94382468D01*
X123928164Y-94418182D01*
X123892450Y-94453897D01*
X123856735Y-94525325D01*
X123856735Y-94632468D01*
X123892450Y-94703897D01*
X123928164Y-94739611D01*
X123999592Y-94775325D01*
X124213878Y-94775325D01*
X124285307Y-94739611D01*
X124321021Y-94703897D01*
X124356735Y-94632468D01*
X124356735Y-94525325D01*
X124356735Y-95096754D02*
X123856735Y-95096754D01*
X123999592Y-95096754D02*
X123928164Y-95132468D01*
X123892450Y-95168182D01*
X123856735Y-95239611D01*
X123856735Y-95311040D01*
X124142450Y-96096754D02*
X124142450Y-96453897D01*
X124356735Y-96025325D02*
X123606735Y-96275325D01*
X124356735Y-96525325D01*
X124356735Y-96775325D02*
X123856735Y-96775325D01*
X123928164Y-96775325D02*
X123892450Y-96811040D01*
X123856735Y-96882468D01*
X123856735Y-96989611D01*
X123892450Y-97061040D01*
X123963878Y-97096754D01*
X124356735Y-97096754D01*
X123963878Y-97096754D02*
X123892450Y-97132468D01*
X123856735Y-97203897D01*
X123856735Y-97311040D01*
X123892450Y-97382468D01*
X123963878Y-97418182D01*
X124356735Y-97418182D01*
X124356735Y-97775325D02*
X123856735Y-97775325D01*
X123606735Y-97775325D02*
X123642450Y-97739611D01*
X123678164Y-97775325D01*
X123642450Y-97811040D01*
X123606735Y-97775325D01*
X123678164Y-97775325D01*
X123856735Y-98453897D02*
X124463878Y-98453897D01*
X124535307Y-98418182D01*
X124571021Y-98382468D01*
X124606735Y-98311040D01*
X124606735Y-98203897D01*
X124571021Y-98132468D01*
X124321021Y-98453897D02*
X124356735Y-98382468D01*
X124356735Y-98239611D01*
X124321021Y-98168182D01*
X124285307Y-98132468D01*
X124213878Y-98096754D01*
X123999592Y-98096754D01*
X123928164Y-98132468D01*
X123892450Y-98168182D01*
X123856735Y-98239611D01*
X123856735Y-98382468D01*
X123892450Y-98453897D01*
X124356735Y-99132468D02*
X123963878Y-99132468D01*
X123892450Y-99096754D01*
X123856735Y-99025325D01*
X123856735Y-98882468D01*
X123892450Y-98811040D01*
X124321021Y-99132468D02*
X124356735Y-99061040D01*
X124356735Y-98882468D01*
X124321021Y-98811040D01*
X124249592Y-98775325D01*
X124178164Y-98775325D01*
X124106735Y-98811040D01*
X124071021Y-98882468D01*
X124071021Y-99061040D01*
X124035307Y-99132468D01*
X123606735Y-100382468D02*
X123606735Y-100239611D01*
X123642450Y-100168182D01*
X123678164Y-100132468D01*
X123785307Y-100061040D01*
X123928164Y-100025325D01*
X124213878Y-100025325D01*
X124285307Y-100061040D01*
X124321021Y-100096754D01*
X124356735Y-100168182D01*
X124356735Y-100311040D01*
X124321021Y-100382468D01*
X124285307Y-100418182D01*
X124213878Y-100453897D01*
X124035307Y-100453897D01*
X123963878Y-100418182D01*
X123928164Y-100382468D01*
X123892450Y-100311040D01*
X123892450Y-100168182D01*
X123928164Y-100096754D01*
X123963878Y-100061040D01*
X124035307Y-100025325D01*
X123606735Y-100918182D02*
X123606735Y-100989611D01*
X123642450Y-101061040D01*
X123678164Y-101096754D01*
X123749592Y-101132468D01*
X123892450Y-101168182D01*
X124071021Y-101168182D01*
X124213878Y-101132468D01*
X124285307Y-101096754D01*
X124321021Y-101061040D01*
X124356735Y-100989611D01*
X124356735Y-100918182D01*
X124321021Y-100846754D01*
X124285307Y-100811040D01*
X124213878Y-100775325D01*
X124071021Y-100739611D01*
X123892450Y-100739611D01*
X123749592Y-100775325D01*
X123678164Y-100811040D01*
X123642450Y-100846754D01*
X123606735Y-100918182D01*
X123606735Y-101632468D02*
X123606735Y-101703897D01*
X123642450Y-101775325D01*
X123678164Y-101811040D01*
X123749592Y-101846754D01*
X123892450Y-101882468D01*
X124071021Y-101882468D01*
X124213878Y-101846754D01*
X124285307Y-101811040D01*
X124321021Y-101775325D01*
X124356735Y-101703897D01*
X124356735Y-101632468D01*
X124321021Y-101561040D01*
X124285307Y-101525325D01*
X124213878Y-101489611D01*
X124071021Y-101453897D01*
X123892450Y-101453897D01*
X123749592Y-101489611D01*
X123678164Y-101525325D01*
X123642450Y-101561040D01*
X123606735Y-101632468D01*
X123571021Y-102739611D02*
X124535307Y-102096754D01*
X124356735Y-103382468D02*
X124356735Y-102953897D01*
X124356735Y-103168182D02*
X123606735Y-103168182D01*
X123713878Y-103096754D01*
X123785307Y-103025325D01*
X123821021Y-102953897D01*
X123678164Y-103668182D02*
X123642450Y-103703897D01*
X123606735Y-103775325D01*
X123606735Y-103953897D01*
X123642450Y-104025325D01*
X123678164Y-104061040D01*
X123749592Y-104096754D01*
X123821021Y-104096754D01*
X123928164Y-104061040D01*
X124356735Y-103632468D01*
X124356735Y-104096754D01*
X123606735Y-104561040D02*
X123606735Y-104632468D01*
X123642450Y-104703897D01*
X123678164Y-104739611D01*
X123749592Y-104775325D01*
X123892450Y-104811040D01*
X124071021Y-104811040D01*
X124213878Y-104775325D01*
X124285307Y-104739611D01*
X124321021Y-104703897D01*
X124356735Y-104632468D01*
X124356735Y-104561040D01*
X124321021Y-104489611D01*
X124285307Y-104453897D01*
X124213878Y-104418182D01*
X124071021Y-104382468D01*
X123892450Y-104382468D01*
X123749592Y-104418182D01*
X123678164Y-104453897D01*
X123642450Y-104489611D01*
X123606735Y-104561040D01*
X123606735Y-105275325D02*
X123606735Y-105346754D01*
X123642450Y-105418182D01*
X123678164Y-105453897D01*
X123749592Y-105489611D01*
X123892450Y-105525325D01*
X124071021Y-105525325D01*
X124213878Y-105489611D01*
X124285307Y-105453897D01*
X124321021Y-105418182D01*
X124356735Y-105346754D01*
X124356735Y-105275325D01*
X124321021Y-105203897D01*
X124285307Y-105168182D01*
X124213878Y-105132468D01*
X124071021Y-105096754D01*
X123892450Y-105096754D01*
X123749592Y-105132468D01*
X123678164Y-105168182D01*
X123642450Y-105203897D01*
X123606735Y-105275325D01*
X124356735Y-106418182D02*
X123606735Y-106418182D01*
X123892450Y-106418182D02*
X123856735Y-106489611D01*
X123856735Y-106632468D01*
X123892450Y-106703897D01*
X123928164Y-106739611D01*
X123999592Y-106775325D01*
X124213878Y-106775325D01*
X124285307Y-106739611D01*
X124321021Y-106703897D01*
X124356735Y-106632468D01*
X124356735Y-106489611D01*
X124321021Y-106418182D01*
X123856735Y-107025325D02*
X124356735Y-107203897D01*
X123856735Y-107382468D02*
X124356735Y-107203897D01*
X124535307Y-107132468D01*
X124571021Y-107096754D01*
X124606735Y-107025325D01*
X124321021Y-108203897D02*
X124356735Y-108275325D01*
X124356735Y-108418182D01*
X124321021Y-108489611D01*
X124249592Y-108525325D01*
X124213878Y-108525325D01*
X124142450Y-108489611D01*
X124106735Y-108418182D01*
X124106735Y-108311040D01*
X124071021Y-108239611D01*
X123999592Y-108203897D01*
X123963878Y-108203897D01*
X123892450Y-108239611D01*
X123856735Y-108311040D01*
X123856735Y-108418182D01*
X123892450Y-108489611D01*
X123856735Y-108739611D02*
X123856735Y-109025325D01*
X123606735Y-108846754D02*
X124249592Y-108846754D01*
X124321021Y-108882468D01*
X124356735Y-108953897D01*
X124356735Y-109025325D01*
X124356735Y-109275325D02*
X123856735Y-109275325D01*
X123999592Y-109275325D02*
X123928164Y-109311040D01*
X123892450Y-109346754D01*
X123856735Y-109418182D01*
X123856735Y-109489611D01*
X124356735Y-109739611D02*
X123856735Y-109739611D01*
X123606735Y-109739611D02*
X123642450Y-109703897D01*
X123678164Y-109739611D01*
X123642450Y-109775325D01*
X123606735Y-109739611D01*
X123678164Y-109739611D01*
X124356735Y-110096754D02*
X123856735Y-110096754D01*
X123928164Y-110096754D02*
X123892450Y-110132468D01*
X123856735Y-110203897D01*
X123856735Y-110311040D01*
X123892450Y-110382468D01*
X123963878Y-110418182D01*
X124356735Y-110418182D01*
X123963878Y-110418182D02*
X123892450Y-110453897D01*
X123856735Y-110525325D01*
X123856735Y-110632468D01*
X123892450Y-110703897D01*
X123963878Y-110739611D01*
X124356735Y-110739611D01*
X124356735Y-112275325D02*
X124356735Y-112239611D01*
X124321021Y-112168182D01*
X124213878Y-112061040D01*
X123999592Y-111882468D01*
X123892450Y-111811040D01*
X123785307Y-111775325D01*
X123713878Y-111775325D01*
X123642450Y-111811040D01*
X123606735Y-111882468D01*
X123606735Y-111918182D01*
X123642450Y-111989611D01*
X123713878Y-112025325D01*
X123749592Y-112025325D01*
X123821021Y-111989611D01*
X123856735Y-111953897D01*
X123999592Y-111739611D01*
X124035307Y-111703897D01*
X124106735Y-111668182D01*
X124213878Y-111668182D01*
X124285307Y-111703897D01*
X124321021Y-111739611D01*
X124356735Y-111811040D01*
X124356735Y-111918182D01*
X124321021Y-111989611D01*
X124285307Y-112025325D01*
X124142450Y-112132468D01*
X124035307Y-112168182D01*
X123963878Y-112168182D01*
X123856735Y-113168182D02*
X124499592Y-113168182D01*
X124571021Y-113132468D01*
X124606735Y-113061040D01*
X124606735Y-113025325D01*
X123606735Y-113168182D02*
X123642450Y-113132468D01*
X123678164Y-113168182D01*
X123642450Y-113203897D01*
X123606735Y-113168182D01*
X123678164Y-113168182D01*
X124356735Y-113846754D02*
X123963878Y-113846754D01*
X123892450Y-113811040D01*
X123856735Y-113739611D01*
X123856735Y-113596754D01*
X123892450Y-113525325D01*
X124321021Y-113846754D02*
X124356735Y-113775325D01*
X124356735Y-113596754D01*
X124321021Y-113525325D01*
X124249592Y-113489611D01*
X124178164Y-113489611D01*
X124106735Y-113525325D01*
X124071021Y-113596754D01*
X124071021Y-113775325D01*
X124035307Y-113846754D01*
X124321021Y-114525325D02*
X124356735Y-114453897D01*
X124356735Y-114311040D01*
X124321021Y-114239611D01*
X124285307Y-114203897D01*
X124213878Y-114168182D01*
X123999592Y-114168182D01*
X123928164Y-114203897D01*
X123892450Y-114239611D01*
X123856735Y-114311040D01*
X123856735Y-114453897D01*
X123892450Y-114525325D01*
X124356735Y-114953897D02*
X124321021Y-114882468D01*
X124285307Y-114846754D01*
X124213878Y-114811040D01*
X123999592Y-114811040D01*
X123928164Y-114846754D01*
X123892450Y-114882468D01*
X123856735Y-114953897D01*
X123856735Y-115061040D01*
X123892450Y-115132468D01*
X123928164Y-115168182D01*
X123999592Y-115203897D01*
X124213878Y-115203897D01*
X124285307Y-115168182D01*
X124321021Y-115132468D01*
X124356735Y-115061040D01*
X124356735Y-114953897D01*
X124356735Y-115525325D02*
X123606735Y-115525325D01*
X123892450Y-115525325D02*
X123856735Y-115596754D01*
X123856735Y-115739611D01*
X123892450Y-115811040D01*
X123928164Y-115846754D01*
X123999592Y-115882468D01*
X124213878Y-115882468D01*
X124285307Y-115846754D01*
X124321021Y-115811040D01*
X124356735Y-115739611D01*
X124356735Y-115596754D01*
X124321021Y-115525325D01*
X125606735Y-93989611D02*
X125106735Y-93989611D01*
X125249592Y-93989611D02*
X125178164Y-94025325D01*
X125142450Y-94061040D01*
X125106735Y-94132468D01*
X125106735Y-94203897D01*
X125571021Y-94739611D02*
X125606735Y-94668182D01*
X125606735Y-94525325D01*
X125571021Y-94453897D01*
X125499592Y-94418182D01*
X125213878Y-94418182D01*
X125142450Y-94453897D01*
X125106735Y-94525325D01*
X125106735Y-94668182D01*
X125142450Y-94739611D01*
X125213878Y-94775325D01*
X125285307Y-94775325D01*
X125356735Y-94418182D01*
X125106735Y-95025325D02*
X125606735Y-95203897D01*
X125106735Y-95382468D01*
X125606735Y-95668182D02*
X125106735Y-95668182D01*
X124856735Y-95668182D02*
X124892450Y-95632468D01*
X124928164Y-95668182D01*
X124892450Y-95703897D01*
X124856735Y-95668182D01*
X124928164Y-95668182D01*
X125571021Y-95989611D02*
X125606735Y-96061040D01*
X125606735Y-96203897D01*
X125571021Y-96275325D01*
X125499592Y-96311040D01*
X125463878Y-96311040D01*
X125392450Y-96275325D01*
X125356735Y-96203897D01*
X125356735Y-96096754D01*
X125321021Y-96025325D01*
X125249592Y-95989611D01*
X125213878Y-95989611D01*
X125142450Y-96025325D01*
X125106735Y-96096754D01*
X125106735Y-96203897D01*
X125142450Y-96275325D01*
X125571021Y-96918182D02*
X125606735Y-96846754D01*
X125606735Y-96703897D01*
X125571021Y-96632468D01*
X125499592Y-96596754D01*
X125213878Y-96596754D01*
X125142450Y-96632468D01*
X125106735Y-96703897D01*
X125106735Y-96846754D01*
X125142450Y-96918182D01*
X125213878Y-96953897D01*
X125285307Y-96953897D01*
X125356735Y-96596754D01*
X125606735Y-97596754D02*
X124856735Y-97596754D01*
X125571021Y-97596754D02*
X125606735Y-97525325D01*
X125606735Y-97382468D01*
X125571021Y-97311040D01*
X125535307Y-97275325D01*
X125463878Y-97239611D01*
X125249592Y-97239611D01*
X125178164Y-97275325D01*
X125142450Y-97311040D01*
X125106735Y-97382468D01*
X125106735Y-97525325D01*
X125142450Y-97596754D01*
X125606735Y-98525325D02*
X124856735Y-98525325D01*
X125142450Y-98525325D02*
X125106735Y-98596754D01*
X125106735Y-98739611D01*
X125142450Y-98811040D01*
X125178164Y-98846754D01*
X125249592Y-98882468D01*
X125463878Y-98882468D01*
X125535307Y-98846754D01*
X125571021Y-98811040D01*
X125606735Y-98739611D01*
X125606735Y-98596754D01*
X125571021Y-98525325D01*
X125106735Y-99132468D02*
X125606735Y-99311040D01*
X125106735Y-99489611D02*
X125606735Y-99311040D01*
X125785307Y-99239611D01*
X125821021Y-99203897D01*
X125856735Y-99132468D01*
X125106735Y-100346754D02*
X125749592Y-100346754D01*
X125821021Y-100311040D01*
X125856735Y-100239611D01*
X125856735Y-100203897D01*
X124856735Y-100346754D02*
X124892450Y-100311040D01*
X124928164Y-100346754D01*
X124892450Y-100382468D01*
X124856735Y-100346754D01*
X124928164Y-100346754D01*
X125571021Y-100989611D02*
X125606735Y-100918182D01*
X125606735Y-100775325D01*
X125571021Y-100703897D01*
X125499592Y-100668182D01*
X125213878Y-100668182D01*
X125142450Y-100703897D01*
X125106735Y-100775325D01*
X125106735Y-100918182D01*
X125142450Y-100989611D01*
X125213878Y-101025325D01*
X125285307Y-101025325D01*
X125356735Y-100668182D01*
X125106735Y-101346754D02*
X125606735Y-101346754D01*
X125178164Y-101346754D02*
X125142450Y-101382468D01*
X125106735Y-101453897D01*
X125106735Y-101561040D01*
X125142450Y-101632468D01*
X125213878Y-101668182D01*
X125606735Y-101668182D01*
X125571021Y-101989611D02*
X125606735Y-102061040D01*
X125606735Y-102203897D01*
X125571021Y-102275325D01*
X125499592Y-102311040D01*
X125463878Y-102311040D01*
X125392450Y-102275325D01*
X125356735Y-102203897D01*
X125356735Y-102096754D01*
X125321021Y-102025325D01*
X125249592Y-101989611D01*
X125213878Y-101989611D01*
X125142450Y-102025325D01*
X125106735Y-102096754D01*
X125106735Y-102203897D01*
X125142450Y-102275325D01*
X125606735Y-102632468D02*
X125106735Y-102632468D01*
X125178164Y-102632468D02*
X125142450Y-102668182D01*
X125106735Y-102739611D01*
X125106735Y-102846754D01*
X125142450Y-102918182D01*
X125213878Y-102953897D01*
X125606735Y-102953897D01*
X125213878Y-102953897D02*
X125142450Y-102989611D01*
X125106735Y-103061040D01*
X125106735Y-103168182D01*
X125142450Y-103239611D01*
X125213878Y-103275325D01*
X125606735Y-103275325D01*
X125606735Y-103953897D02*
X125213878Y-103953897D01*
X125142450Y-103918182D01*
X125106735Y-103846754D01*
X125106735Y-103703897D01*
X125142450Y-103632468D01*
X125571021Y-103953897D02*
X125606735Y-103882468D01*
X125606735Y-103703897D01*
X125571021Y-103632468D01*
X125499592Y-103596754D01*
X125428164Y-103596754D01*
X125356735Y-103632468D01*
X125321021Y-103703897D01*
X125321021Y-103882468D01*
X125285307Y-103953897D01*
X124928164Y-104846754D02*
X124892450Y-104882468D01*
X124856735Y-104953897D01*
X124856735Y-105132468D01*
X124892450Y-105203897D01*
X124928164Y-105239611D01*
X124999592Y-105275325D01*
X125071021Y-105275325D01*
X125178164Y-105239611D01*
X125606735Y-104811040D01*
X125606735Y-105275325D01*
X124856735Y-105739611D02*
X124856735Y-105811040D01*
X124892450Y-105882468D01*
X124928164Y-105918182D01*
X124999592Y-105953897D01*
X125142450Y-105989611D01*
X125321021Y-105989611D01*
X125463878Y-105953897D01*
X125535307Y-105918182D01*
X125571021Y-105882468D01*
X125606735Y-105811040D01*
X125606735Y-105739611D01*
X125571021Y-105668182D01*
X125535307Y-105632468D01*
X125463878Y-105596754D01*
X125321021Y-105561040D01*
X125142450Y-105561040D01*
X124999592Y-105596754D01*
X124928164Y-105632468D01*
X124892450Y-105668182D01*
X124856735Y-105739611D01*
X125606735Y-106703897D02*
X125606735Y-106275325D01*
X125606735Y-106489611D02*
X124856735Y-106489611D01*
X124963878Y-106418182D01*
X125035307Y-106346754D01*
X125071021Y-106275325D01*
X125178164Y-107132468D02*
X125142450Y-107061040D01*
X125106735Y-107025325D01*
X125035307Y-106989611D01*
X124999592Y-106989611D01*
X124928164Y-107025325D01*
X124892450Y-107061040D01*
X124856735Y-107132468D01*
X124856735Y-107275325D01*
X124892450Y-107346754D01*
X124928164Y-107382468D01*
X124999592Y-107418182D01*
X125035307Y-107418182D01*
X125106735Y-107382468D01*
X125142450Y-107346754D01*
X125178164Y-107275325D01*
X125178164Y-107132468D01*
X125213878Y-107061040D01*
X125249592Y-107025325D01*
X125321021Y-106989611D01*
X125463878Y-106989611D01*
X125535307Y-107025325D01*
X125571021Y-107061040D01*
X125606735Y-107132468D01*
X125606735Y-107275325D01*
X125571021Y-107346754D01*
X125535307Y-107382468D01*
X125463878Y-107418182D01*
X125321021Y-107418182D01*
X125249592Y-107382468D01*
X125213878Y-107346754D01*
X125178164Y-107275325D01*
X126856735Y-93989611D02*
X126356735Y-93989611D01*
X126499592Y-93989611D02*
X126428164Y-94025325D01*
X126392450Y-94061040D01*
X126356735Y-94132468D01*
X126356735Y-94203897D01*
X126821021Y-94739611D02*
X126856735Y-94668182D01*
X126856735Y-94525325D01*
X126821021Y-94453897D01*
X126749592Y-94418182D01*
X126463878Y-94418182D01*
X126392450Y-94453897D01*
X126356735Y-94525325D01*
X126356735Y-94668182D01*
X126392450Y-94739611D01*
X126463878Y-94775325D01*
X126535307Y-94775325D01*
X126606735Y-94418182D01*
X126356735Y-95025325D02*
X126856735Y-95203897D01*
X126356735Y-95382468D01*
X126856735Y-95668182D02*
X126356735Y-95668182D01*
X126106735Y-95668182D02*
X126142450Y-95632468D01*
X126178164Y-95668182D01*
X126142450Y-95703897D01*
X126106735Y-95668182D01*
X126178164Y-95668182D01*
X126821021Y-95989611D02*
X126856735Y-96061040D01*
X126856735Y-96203897D01*
X126821021Y-96275325D01*
X126749592Y-96311040D01*
X126713878Y-96311040D01*
X126642450Y-96275325D01*
X126606735Y-96203897D01*
X126606735Y-96096754D01*
X126571021Y-96025325D01*
X126499592Y-95989611D01*
X126463878Y-95989611D01*
X126392450Y-96025325D01*
X126356735Y-96096754D01*
X126356735Y-96203897D01*
X126392450Y-96275325D01*
X126821021Y-96918182D02*
X126856735Y-96846754D01*
X126856735Y-96703897D01*
X126821021Y-96632468D01*
X126749592Y-96596754D01*
X126463878Y-96596754D01*
X126392450Y-96632468D01*
X126356735Y-96703897D01*
X126356735Y-96846754D01*
X126392450Y-96918182D01*
X126463878Y-96953897D01*
X126535307Y-96953897D01*
X126606735Y-96596754D01*
X126856735Y-97596754D02*
X126106735Y-97596754D01*
X126821021Y-97596754D02*
X126856735Y-97525325D01*
X126856735Y-97382468D01*
X126821021Y-97311040D01*
X126785307Y-97275325D01*
X126713878Y-97239611D01*
X126499592Y-97239611D01*
X126428164Y-97275325D01*
X126392450Y-97311040D01*
X126356735Y-97382468D01*
X126356735Y-97525325D01*
X126392450Y-97596754D01*
X126856735Y-98525325D02*
X126106735Y-98525325D01*
X126392450Y-98525325D02*
X126356735Y-98596754D01*
X126356735Y-98739611D01*
X126392450Y-98811040D01*
X126428164Y-98846754D01*
X126499592Y-98882468D01*
X126713878Y-98882468D01*
X126785307Y-98846754D01*
X126821021Y-98811040D01*
X126856735Y-98739611D01*
X126856735Y-98596754D01*
X126821021Y-98525325D01*
X126356735Y-99132468D02*
X126856735Y-99311040D01*
X126356735Y-99489611D02*
X126856735Y-99311040D01*
X127035307Y-99239611D01*
X127071021Y-99203897D01*
X127106735Y-99132468D01*
X126821021Y-100311040D02*
X126856735Y-100382468D01*
X126856735Y-100525325D01*
X126821021Y-100596754D01*
X126749592Y-100632468D01*
X126713878Y-100632468D01*
X126642450Y-100596754D01*
X126606735Y-100525325D01*
X126606735Y-100418182D01*
X126571021Y-100346754D01*
X126499592Y-100311040D01*
X126463878Y-100311040D01*
X126392450Y-100346754D01*
X126356735Y-100418182D01*
X126356735Y-100525325D01*
X126392450Y-100596754D01*
X126821021Y-101275325D02*
X126856735Y-101203897D01*
X126856735Y-101061040D01*
X126821021Y-100989611D01*
X126785307Y-100953897D01*
X126713878Y-100918182D01*
X126499592Y-100918182D01*
X126428164Y-100953897D01*
X126392450Y-100989611D01*
X126356735Y-101061040D01*
X126356735Y-101203897D01*
X126392450Y-101275325D01*
X126856735Y-101596754D02*
X126356735Y-101596754D01*
X126499592Y-101596754D02*
X126428164Y-101632468D01*
X126392450Y-101668182D01*
X126356735Y-101739611D01*
X126356735Y-101811040D01*
X126821021Y-102346754D02*
X126856735Y-102275325D01*
X126856735Y-102132468D01*
X126821021Y-102061040D01*
X126749592Y-102025325D01*
X126463878Y-102025325D01*
X126392450Y-102061040D01*
X126356735Y-102132468D01*
X126356735Y-102275325D01*
X126392450Y-102346754D01*
X126463878Y-102382468D01*
X126535307Y-102382468D01*
X126606735Y-102025325D01*
X126356735Y-102632468D02*
X126856735Y-102775325D01*
X126499592Y-102918182D01*
X126856735Y-103061040D01*
X126356735Y-103203897D01*
X126856735Y-103489611D02*
X126106735Y-103489611D01*
X126392450Y-103489611D02*
X126356735Y-103561040D01*
X126356735Y-103703897D01*
X126392450Y-103775325D01*
X126428164Y-103811040D01*
X126499592Y-103846754D01*
X126713878Y-103846754D01*
X126785307Y-103811040D01*
X126821021Y-103775325D01*
X126856735Y-103703897D01*
X126856735Y-103561040D01*
X126821021Y-103489611D01*
X126856735Y-104168182D02*
X126356735Y-104168182D01*
X126499592Y-104168182D02*
X126428164Y-104203897D01*
X126392450Y-104239611D01*
X126356735Y-104311040D01*
X126356735Y-104382468D01*
X126821021Y-104918182D02*
X126856735Y-104846754D01*
X126856735Y-104703897D01*
X126821021Y-104632468D01*
X126749592Y-104596754D01*
X126463878Y-104596754D01*
X126392450Y-104632468D01*
X126356735Y-104703897D01*
X126356735Y-104846754D01*
X126392450Y-104918182D01*
X126463878Y-104953897D01*
X126535307Y-104953897D01*
X126606735Y-104596754D01*
X126856735Y-105596754D02*
X126463878Y-105596754D01*
X126392450Y-105561040D01*
X126356735Y-105489611D01*
X126356735Y-105346754D01*
X126392450Y-105275325D01*
X126821021Y-105596754D02*
X126856735Y-105525325D01*
X126856735Y-105346754D01*
X126821021Y-105275325D01*
X126749592Y-105239611D01*
X126678164Y-105239611D01*
X126606735Y-105275325D01*
X126571021Y-105346754D01*
X126571021Y-105525325D01*
X126535307Y-105596754D01*
X126856735Y-105953897D02*
X126106735Y-105953897D01*
X126571021Y-106025325D02*
X126856735Y-106239611D01*
X126356735Y-106239611D02*
X126642450Y-105953897D01*
X126821021Y-106846754D02*
X126856735Y-106775325D01*
X126856735Y-106632468D01*
X126821021Y-106561040D01*
X126749592Y-106525325D01*
X126463878Y-106525325D01*
X126392450Y-106561040D01*
X126356735Y-106632468D01*
X126356735Y-106775325D01*
X126392450Y-106846754D01*
X126463878Y-106882468D01*
X126535307Y-106882468D01*
X126606735Y-106525325D01*
X126856735Y-107203897D02*
X126356735Y-107203897D01*
X126499592Y-107203897D02*
X126428164Y-107239611D01*
X126392450Y-107275325D01*
X126356735Y-107346754D01*
X126356735Y-107418182D01*
X126178164Y-108203897D02*
X126142450Y-108239611D01*
X126106735Y-108311040D01*
X126106735Y-108489611D01*
X126142450Y-108561040D01*
X126178164Y-108596754D01*
X126249592Y-108632468D01*
X126321021Y-108632468D01*
X126428164Y-108596754D01*
X126856735Y-108168182D01*
X126856735Y-108632468D01*
X126106735Y-109096754D02*
X126106735Y-109168182D01*
X126142450Y-109239611D01*
X126178164Y-109275325D01*
X126249592Y-109311040D01*
X126392450Y-109346754D01*
X126571021Y-109346754D01*
X126713878Y-109311040D01*
X126785307Y-109275325D01*
X126821021Y-109239611D01*
X126856735Y-109168182D01*
X126856735Y-109096754D01*
X126821021Y-109025325D01*
X126785307Y-108989611D01*
X126713878Y-108953897D01*
X126571021Y-108918182D01*
X126392450Y-108918182D01*
X126249592Y-108953897D01*
X126178164Y-108989611D01*
X126142450Y-109025325D01*
X126106735Y-109096754D01*
X126856735Y-110061040D02*
X126856735Y-109632468D01*
X126856735Y-109846754D02*
X126106735Y-109846754D01*
X126213878Y-109775325D01*
X126285307Y-109703897D01*
X126321021Y-109632468D01*
X126856735Y-110418182D02*
X126856735Y-110561040D01*
X126821021Y-110632468D01*
X126785307Y-110668182D01*
X126678164Y-110739611D01*
X126535307Y-110775325D01*
X126249592Y-110775325D01*
X126178164Y-110739611D01*
X126142450Y-110703897D01*
X126106735Y-110632468D01*
X126106735Y-110489611D01*
X126142450Y-110418182D01*
X126178164Y-110382468D01*
X126249592Y-110346754D01*
X126428164Y-110346754D01*
X126499592Y-110382468D01*
X126535307Y-110418182D01*
X126571021Y-110489611D01*
X126571021Y-110632468D01*
X126535307Y-110703897D01*
X126499592Y-110739611D01*
X126428164Y-110775325D01*
X151723735Y-86909075D02*
X151723735Y-86159075D01*
X151402307Y-86909075D02*
X151402307Y-86516218D01*
X151438021Y-86444790D01*
X151509450Y-86409075D01*
X151616592Y-86409075D01*
X151688021Y-86444790D01*
X151723735Y-86480504D01*
X151152307Y-86409075D02*
X150866592Y-86409075D01*
X151045164Y-86159075D02*
X151045164Y-86801932D01*
X151009450Y-86873361D01*
X150938021Y-86909075D01*
X150866592Y-86909075D01*
X150723735Y-86409075D02*
X150438021Y-86409075D01*
X150616592Y-86159075D02*
X150616592Y-86801932D01*
X150580878Y-86873361D01*
X150509450Y-86909075D01*
X150438021Y-86909075D01*
X150188021Y-86409075D02*
X150188021Y-87159075D01*
X150188021Y-86444790D02*
X150116592Y-86409075D01*
X149973735Y-86409075D01*
X149902307Y-86444790D01*
X149866592Y-86480504D01*
X149830878Y-86551932D01*
X149830878Y-86766218D01*
X149866592Y-86837647D01*
X149902307Y-86873361D01*
X149973735Y-86909075D01*
X150116592Y-86909075D01*
X150188021Y-86873361D01*
X149545164Y-86873361D02*
X149473735Y-86909075D01*
X149330878Y-86909075D01*
X149259450Y-86873361D01*
X149223735Y-86801932D01*
X149223735Y-86766218D01*
X149259450Y-86694790D01*
X149330878Y-86659075D01*
X149438021Y-86659075D01*
X149509450Y-86623361D01*
X149545164Y-86551932D01*
X149545164Y-86516218D01*
X149509450Y-86444790D01*
X149438021Y-86409075D01*
X149330878Y-86409075D01*
X149259450Y-86444790D01*
X148902307Y-86837647D02*
X148866592Y-86873361D01*
X148902307Y-86909075D01*
X148938021Y-86873361D01*
X148902307Y-86837647D01*
X148902307Y-86909075D01*
X148902307Y-86444790D02*
X148866592Y-86480504D01*
X148902307Y-86516218D01*
X148938021Y-86480504D01*
X148902307Y-86444790D01*
X148902307Y-86516218D01*
X148009450Y-86123361D02*
X148652307Y-87087647D01*
X147223735Y-86123361D02*
X147866592Y-87087647D01*
X147009450Y-86873361D02*
X146938021Y-86909075D01*
X146795164Y-86909075D01*
X146723735Y-86873361D01*
X146688021Y-86801932D01*
X146688021Y-86766218D01*
X146723735Y-86694790D01*
X146795164Y-86659075D01*
X146902307Y-86659075D01*
X146973735Y-86623361D01*
X147009450Y-86551932D01*
X147009450Y-86516218D01*
X146973735Y-86444790D01*
X146902307Y-86409075D01*
X146795164Y-86409075D01*
X146723735Y-86444790D01*
X146045164Y-86909075D02*
X146045164Y-86516218D01*
X146080878Y-86444790D01*
X146152307Y-86409075D01*
X146295164Y-86409075D01*
X146366592Y-86444790D01*
X146045164Y-86873361D02*
X146116592Y-86909075D01*
X146295164Y-86909075D01*
X146366592Y-86873361D01*
X146402307Y-86801932D01*
X146402307Y-86730504D01*
X146366592Y-86659075D01*
X146295164Y-86623361D01*
X146116592Y-86623361D01*
X146045164Y-86587647D01*
X145688021Y-86909075D02*
X145688021Y-86159075D01*
X145616592Y-86623361D02*
X145402307Y-86909075D01*
X145402307Y-86409075D02*
X145688021Y-86694790D01*
X144759450Y-86409075D02*
X144759450Y-86909075D01*
X145080878Y-86409075D02*
X145080878Y-86801932D01*
X145045164Y-86873361D01*
X144973735Y-86909075D01*
X144866592Y-86909075D01*
X144795164Y-86873361D01*
X144759450Y-86837647D01*
X144402307Y-86909075D02*
X144402307Y-86409075D01*
X144402307Y-86551932D02*
X144366592Y-86480504D01*
X144330878Y-86444790D01*
X144259450Y-86409075D01*
X144188021Y-86409075D01*
X143616592Y-86909075D02*
X143616592Y-86516218D01*
X143652307Y-86444790D01*
X143723735Y-86409075D01*
X143866592Y-86409075D01*
X143938021Y-86444790D01*
X143616592Y-86873361D02*
X143688021Y-86909075D01*
X143866592Y-86909075D01*
X143938021Y-86873361D01*
X143973735Y-86801932D01*
X143973735Y-86730504D01*
X143938021Y-86659075D01*
X143866592Y-86623361D01*
X143688021Y-86623361D01*
X143616592Y-86587647D01*
X143259450Y-86623361D02*
X142688021Y-86623361D01*
X142330878Y-86909075D02*
X142330878Y-86409075D01*
X142330878Y-86159075D02*
X142366592Y-86194790D01*
X142330878Y-86230504D01*
X142295164Y-86194790D01*
X142330878Y-86159075D01*
X142330878Y-86230504D01*
X142080878Y-86409075D02*
X141795164Y-86409075D01*
X141973735Y-86159075D02*
X141973735Y-86801932D01*
X141938021Y-86873361D01*
X141866592Y-86909075D01*
X141795164Y-86909075D01*
X141545164Y-86837647D02*
X141509450Y-86873361D01*
X141545164Y-86909075D01*
X141580878Y-86873361D01*
X141545164Y-86837647D01*
X141545164Y-86909075D01*
X141188021Y-86409075D02*
X141188021Y-87159075D01*
X141188021Y-86444790D02*
X141116592Y-86409075D01*
X140973735Y-86409075D01*
X140902307Y-86444790D01*
X140866592Y-86480504D01*
X140830878Y-86551932D01*
X140830878Y-86766218D01*
X140866592Y-86837647D01*
X140902307Y-86873361D01*
X140973735Y-86909075D01*
X141116592Y-86909075D01*
X141188021Y-86873361D01*
X140402307Y-86909075D02*
X140473735Y-86873361D01*
X140509450Y-86801932D01*
X140509450Y-86159075D01*
X139580878Y-86123361D02*
X140223735Y-87087647D01*
X139366592Y-86873361D02*
X139295164Y-86909075D01*
X139152307Y-86909075D01*
X139080878Y-86873361D01*
X139045164Y-86801932D01*
X139045164Y-86766218D01*
X139080878Y-86694790D01*
X139152307Y-86659075D01*
X139259450Y-86659075D01*
X139330878Y-86623361D01*
X139366592Y-86551932D01*
X139366592Y-86516218D01*
X139330878Y-86444790D01*
X139259450Y-86409075D01*
X139152307Y-86409075D01*
X139080878Y-86444790D01*
X138723735Y-86909075D02*
X138723735Y-86409075D01*
X138723735Y-86551932D02*
X138688021Y-86480504D01*
X138652307Y-86444790D01*
X138580878Y-86409075D01*
X138509450Y-86409075D01*
X137938021Y-86909075D02*
X137938021Y-86516218D01*
X137973735Y-86444790D01*
X138045164Y-86409075D01*
X138188021Y-86409075D01*
X138259450Y-86444790D01*
X137938021Y-86873361D02*
X138009450Y-86909075D01*
X138188021Y-86909075D01*
X138259450Y-86873361D01*
X138295164Y-86801932D01*
X138295164Y-86730504D01*
X138259450Y-86659075D01*
X138188021Y-86623361D01*
X138009450Y-86623361D01*
X137938021Y-86587647D01*
X137580878Y-86909075D02*
X137580878Y-86409075D01*
X137580878Y-86480504D02*
X137545164Y-86444790D01*
X137473735Y-86409075D01*
X137366592Y-86409075D01*
X137295164Y-86444790D01*
X137259450Y-86516218D01*
X137259450Y-86909075D01*
X137259450Y-86516218D02*
X137223735Y-86444790D01*
X137152307Y-86409075D01*
X137045164Y-86409075D01*
X136973735Y-86444790D01*
X136938021Y-86516218D01*
X136938021Y-86909075D01*
X136580878Y-86837647D02*
X136545164Y-86873361D01*
X136580878Y-86909075D01*
X136616592Y-86873361D01*
X136580878Y-86837647D01*
X136580878Y-86909075D01*
X136223735Y-86409075D02*
X136223735Y-87159075D01*
X136223735Y-86444790D02*
X136152307Y-86409075D01*
X136009450Y-86409075D01*
X135938021Y-86444790D01*
X135902307Y-86480504D01*
X135866592Y-86551932D01*
X135866592Y-86766218D01*
X135902307Y-86837647D01*
X135938021Y-86873361D01*
X136009450Y-86909075D01*
X136152307Y-86909075D01*
X136223735Y-86873361D01*
X135545164Y-86909075D02*
X135545164Y-86159075D01*
X135223735Y-86909075D02*
X135223735Y-86516218D01*
X135259450Y-86444790D01*
X135330878Y-86409075D01*
X135438021Y-86409075D01*
X135509450Y-86444790D01*
X135545164Y-86480504D01*
X134866592Y-86409075D02*
X134866592Y-87159075D01*
X134866592Y-86444790D02*
X134795164Y-86409075D01*
X134652307Y-86409075D01*
X134580878Y-86444790D01*
X134545164Y-86480504D01*
X134509450Y-86551932D01*
X134509450Y-86766218D01*
X134545164Y-86837647D01*
X134580878Y-86873361D01*
X134652307Y-86909075D01*
X134795164Y-86909075D01*
X134866592Y-86873361D01*
D12*
X177914550Y-130643450D02*
G75*
G03X177914550Y-130643450I-1250000J0D01*
G01*
X177914550Y-82633450D02*
G75*
G03X177914550Y-82633450I-1250000J0D01*
G01*
D13*
G36*
X154179385Y-85664107D02*
G01*
X153903274Y-85691233D01*
X153648292Y-85731757D01*
X153433511Y-85784115D01*
X153361873Y-85808497D01*
X153270247Y-85843333D01*
X153536887Y-86496645D01*
X153625132Y-86712600D01*
X153712261Y-86925359D01*
X153792270Y-87120290D01*
X153859151Y-87282761D01*
X153906898Y-87398138D01*
X153909320Y-87403957D01*
X153959533Y-87526267D01*
X153998813Y-87625235D01*
X154020367Y-87683641D01*
X154022259Y-87690191D01*
X153992069Y-87702225D01*
X153902523Y-87717486D01*
X153761867Y-87735000D01*
X153578348Y-87753789D01*
X153360210Y-87772879D01*
X153250470Y-87781496D01*
X153007891Y-87799920D01*
X152769881Y-87818045D01*
X152550902Y-87834768D01*
X152365415Y-87848982D01*
X152227883Y-87859584D01*
X152193390Y-87862265D01*
X151915244Y-87883962D01*
X151979545Y-88053190D01*
X152149672Y-88407943D01*
X152374180Y-88727456D01*
X152646790Y-89006628D01*
X152961223Y-89240357D01*
X153311203Y-89423543D01*
X153690450Y-89551084D01*
X153869901Y-89589125D01*
X154010089Y-89606348D01*
X154201355Y-89619762D01*
X154427132Y-89629070D01*
X154670858Y-89633975D01*
X154915967Y-89634183D01*
X155145893Y-89629397D01*
X155344073Y-89619321D01*
X155384070Y-89616169D01*
X155928352Y-89561222D01*
X156519940Y-89486049D01*
X157142213Y-89392818D01*
X157314470Y-89364640D01*
X157634101Y-89311374D01*
X157893258Y-89267880D01*
X158098279Y-89232798D01*
X158255503Y-89204767D01*
X158371266Y-89182426D01*
X158451908Y-89164414D01*
X158503766Y-89149370D01*
X158533178Y-89135933D01*
X158546483Y-89122742D01*
X158550018Y-89108436D01*
X158550091Y-89099310D01*
X158533709Y-89041223D01*
X158488956Y-88935514D01*
X158421527Y-88793103D01*
X158337118Y-88624910D01*
X158241425Y-88441855D01*
X158140144Y-88254858D01*
X158038971Y-88074839D01*
X157943602Y-87912718D01*
X157868934Y-87793424D01*
X157552749Y-87344300D01*
X157228590Y-86956632D01*
X156889809Y-86624154D01*
X156529758Y-86340601D01*
X156141790Y-86099709D01*
X155984526Y-86017487D01*
X155729755Y-85905249D01*
X155444775Y-85803860D01*
X155159833Y-85723163D01*
X154943803Y-85678758D01*
X154718720Y-85656305D01*
X154457558Y-85651943D01*
X154179385Y-85664107D01*
X154179385Y-85664107D01*
G37*
X154179385Y-85664107D02*
X153903274Y-85691233D01*
X153648292Y-85731757D01*
X153433511Y-85784115D01*
X153361873Y-85808497D01*
X153270247Y-85843333D01*
X153536887Y-86496645D01*
X153625132Y-86712600D01*
X153712261Y-86925359D01*
X153792270Y-87120290D01*
X153859151Y-87282761D01*
X153906898Y-87398138D01*
X153909320Y-87403957D01*
X153959533Y-87526267D01*
X153998813Y-87625235D01*
X154020367Y-87683641D01*
X154022259Y-87690191D01*
X153992069Y-87702225D01*
X153902523Y-87717486D01*
X153761867Y-87735000D01*
X153578348Y-87753789D01*
X153360210Y-87772879D01*
X153250470Y-87781496D01*
X153007891Y-87799920D01*
X152769881Y-87818045D01*
X152550902Y-87834768D01*
X152365415Y-87848982D01*
X152227883Y-87859584D01*
X152193390Y-87862265D01*
X151915244Y-87883962D01*
X151979545Y-88053190D01*
X152149672Y-88407943D01*
X152374180Y-88727456D01*
X152646790Y-89006628D01*
X152961223Y-89240357D01*
X153311203Y-89423543D01*
X153690450Y-89551084D01*
X153869901Y-89589125D01*
X154010089Y-89606348D01*
X154201355Y-89619762D01*
X154427132Y-89629070D01*
X154670858Y-89633975D01*
X154915967Y-89634183D01*
X155145893Y-89629397D01*
X155344073Y-89619321D01*
X155384070Y-89616169D01*
X155928352Y-89561222D01*
X156519940Y-89486049D01*
X157142213Y-89392818D01*
X157314470Y-89364640D01*
X157634101Y-89311374D01*
X157893258Y-89267880D01*
X158098279Y-89232798D01*
X158255503Y-89204767D01*
X158371266Y-89182426D01*
X158451908Y-89164414D01*
X158503766Y-89149370D01*
X158533178Y-89135933D01*
X158546483Y-89122742D01*
X158550018Y-89108436D01*
X158550091Y-89099310D01*
X158533709Y-89041223D01*
X158488956Y-88935514D01*
X158421527Y-88793103D01*
X158337118Y-88624910D01*
X158241425Y-88441855D01*
X158140144Y-88254858D01*
X158038971Y-88074839D01*
X157943602Y-87912718D01*
X157868934Y-87793424D01*
X157552749Y-87344300D01*
X157228590Y-86956632D01*
X156889809Y-86624154D01*
X156529758Y-86340601D01*
X156141790Y-86099709D01*
X155984526Y-86017487D01*
X155729755Y-85905249D01*
X155444775Y-85803860D01*
X155159833Y-85723163D01*
X154943803Y-85678758D01*
X154718720Y-85656305D01*
X154457558Y-85651943D01*
X154179385Y-85664107D01*
G36*
X137688736Y-89430004D02*
G01*
X137818574Y-89451940D01*
X137999035Y-89510036D01*
X138143735Y-89612505D01*
X138220492Y-89713859D01*
X138238971Y-89754272D01*
X138253592Y-89805616D01*
X138264931Y-89876238D01*
X138273564Y-89974487D01*
X138280067Y-90108711D01*
X138285015Y-90287258D01*
X138288986Y-90518477D01*
X138291860Y-90748291D01*
X138302318Y-91671157D01*
X138975670Y-91671157D01*
X138975670Y-88860224D01*
X138366070Y-88860224D01*
X138366070Y-89111037D01*
X138239070Y-88987647D01*
X138089881Y-88868628D01*
X137939323Y-88806656D01*
X137805065Y-88792490D01*
X137688736Y-88792490D01*
X137688736Y-89430004D01*
X137688736Y-89430004D01*
G37*
X137688736Y-89430004D02*
X137818574Y-89451940D01*
X137999035Y-89510036D01*
X138143735Y-89612505D01*
X138220492Y-89713859D01*
X138238971Y-89754272D01*
X138253592Y-89805616D01*
X138264931Y-89876238D01*
X138273564Y-89974487D01*
X138280067Y-90108711D01*
X138285015Y-90287258D01*
X138288986Y-90518477D01*
X138291860Y-90748291D01*
X138302318Y-91671157D01*
X138975670Y-91671157D01*
X138975670Y-88860224D01*
X138366070Y-88860224D01*
X138366070Y-89111037D01*
X138239070Y-88987647D01*
X138089881Y-88868628D01*
X137939323Y-88806656D01*
X137805065Y-88792490D01*
X137688736Y-88792490D01*
X137688736Y-89430004D01*
G36*
X144284726Y-89034207D02*
G01*
X144275803Y-90156457D01*
X143843906Y-89508340D01*
X143412008Y-88860224D01*
X143020640Y-88860224D01*
X142847784Y-88861813D01*
X142734303Y-88867220D01*
X142671899Y-88877407D01*
X142652273Y-88893335D01*
X142655141Y-88902557D01*
X142681542Y-88941198D01*
X142741546Y-89026591D01*
X142829275Y-89150450D01*
X142938852Y-89304488D01*
X143064398Y-89480421D01*
X143143099Y-89590460D01*
X143605187Y-90236029D01*
X143186208Y-90758860D01*
X143044871Y-90935371D01*
X142906753Y-91108115D01*
X142781768Y-91264675D01*
X142679831Y-91392630D01*
X142613336Y-91476424D01*
X142459442Y-91671157D01*
X142910423Y-91669464D01*
X143361403Y-91667771D01*
X143818603Y-91023874D01*
X144275803Y-90379978D01*
X144285001Y-91025567D01*
X144294199Y-91671157D01*
X144970070Y-91671157D01*
X144970070Y-87911957D01*
X144293650Y-87911957D01*
X144284726Y-89034207D01*
X144284726Y-89034207D01*
G37*
X144284726Y-89034207D02*
X144275803Y-90156457D01*
X143843906Y-89508340D01*
X143412008Y-88860224D01*
X143020640Y-88860224D01*
X142847784Y-88861813D01*
X142734303Y-88867220D01*
X142671899Y-88877407D01*
X142652273Y-88893335D01*
X142655141Y-88902557D01*
X142681542Y-88941198D01*
X142741546Y-89026591D01*
X142829275Y-89150450D01*
X142938852Y-89304488D01*
X143064398Y-89480421D01*
X143143099Y-89590460D01*
X143605187Y-90236029D01*
X143186208Y-90758860D01*
X143044871Y-90935371D01*
X142906753Y-91108115D01*
X142781768Y-91264675D01*
X142679831Y-91392630D01*
X142613336Y-91476424D01*
X142459442Y-91671157D01*
X142910423Y-91669464D01*
X143361403Y-91667771D01*
X143818603Y-91023874D01*
X144275803Y-90379978D01*
X144285001Y-91025567D01*
X144294199Y-91671157D01*
X144970070Y-91671157D01*
X144970070Y-87911957D01*
X144293650Y-87911957D01*
X144284726Y-89034207D01*
G36*
X135858971Y-88820468D02*
G01*
X135684232Y-88851996D01*
X135536431Y-88913723D01*
X135396147Y-89012674D01*
X135309603Y-89090821D01*
X135182603Y-89212637D01*
X135182603Y-88860224D01*
X134573003Y-88860224D01*
X134573003Y-91671157D01*
X135182603Y-91671157D01*
X135182603Y-91324609D01*
X135322391Y-91450899D01*
X135504248Y-91587591D01*
X135699384Y-91674501D01*
X135926673Y-91718825D01*
X136046203Y-91726858D01*
X136209575Y-91725836D01*
X136362947Y-91712834D01*
X136469536Y-91692382D01*
X136752156Y-91577004D01*
X136994392Y-91409985D01*
X137192465Y-91196675D01*
X137342595Y-90942421D01*
X137441005Y-90652574D01*
X137483915Y-90332482D01*
X137485536Y-90254206D01*
X137479101Y-90190896D01*
X136796529Y-90190896D01*
X136792128Y-90444854D01*
X136732739Y-90666234D01*
X136623322Y-90849675D01*
X136468837Y-90989815D01*
X136274243Y-91081291D01*
X136044501Y-91118742D01*
X135939733Y-91117137D01*
X135741812Y-91085049D01*
X135595608Y-91027334D01*
X135426685Y-90895247D01*
X135306755Y-90717112D01*
X135236547Y-90494400D01*
X135216470Y-90260345D01*
X135244558Y-90011771D01*
X135326973Y-89798371D01*
X135460941Y-89624898D01*
X135643689Y-89496109D01*
X135669706Y-89483444D01*
X135889984Y-89414298D01*
X136107652Y-89409635D01*
X136313784Y-89468248D01*
X136499450Y-89588929D01*
X136508253Y-89596767D01*
X136657704Y-89766315D01*
X136751479Y-89960125D01*
X136796529Y-90190896D01*
X137479101Y-90190896D01*
X137453180Y-89935908D01*
X137357929Y-89638848D01*
X137202511Y-89369315D01*
X137005727Y-89148270D01*
X136827615Y-89003031D01*
X136649152Y-88903572D01*
X136452260Y-88843327D01*
X136218856Y-88815731D01*
X136080070Y-88812114D01*
X135858971Y-88820468D01*
X135858971Y-88820468D01*
G37*
X135858971Y-88820468D02*
X135684232Y-88851996D01*
X135536431Y-88913723D01*
X135396147Y-89012674D01*
X135309603Y-89090821D01*
X135182603Y-89212637D01*
X135182603Y-88860224D01*
X134573003Y-88860224D01*
X134573003Y-91671157D01*
X135182603Y-91671157D01*
X135182603Y-91324609D01*
X135322391Y-91450899D01*
X135504248Y-91587591D01*
X135699384Y-91674501D01*
X135926673Y-91718825D01*
X136046203Y-91726858D01*
X136209575Y-91725836D01*
X136362947Y-91712834D01*
X136469536Y-91692382D01*
X136752156Y-91577004D01*
X136994392Y-91409985D01*
X137192465Y-91196675D01*
X137342595Y-90942421D01*
X137441005Y-90652574D01*
X137483915Y-90332482D01*
X137485536Y-90254206D01*
X137479101Y-90190896D01*
X136796529Y-90190896D01*
X136792128Y-90444854D01*
X136732739Y-90666234D01*
X136623322Y-90849675D01*
X136468837Y-90989815D01*
X136274243Y-91081291D01*
X136044501Y-91118742D01*
X135939733Y-91117137D01*
X135741812Y-91085049D01*
X135595608Y-91027334D01*
X135426685Y-90895247D01*
X135306755Y-90717112D01*
X135236547Y-90494400D01*
X135216470Y-90260345D01*
X135244558Y-90011771D01*
X135326973Y-89798371D01*
X135460941Y-89624898D01*
X135643689Y-89496109D01*
X135669706Y-89483444D01*
X135889984Y-89414298D01*
X136107652Y-89409635D01*
X136313784Y-89468248D01*
X136499450Y-89588929D01*
X136508253Y-89596767D01*
X136657704Y-89766315D01*
X136751479Y-89960125D01*
X136796529Y-90190896D01*
X137479101Y-90190896D01*
X137453180Y-89935908D01*
X137357929Y-89638848D01*
X137202511Y-89369315D01*
X137005727Y-89148270D01*
X136827615Y-89003031D01*
X136649152Y-88903572D01*
X136452260Y-88843327D01*
X136218856Y-88815731D01*
X136080070Y-88812114D01*
X135858971Y-88820468D01*
G36*
X141340661Y-89800024D02*
G01*
X141337177Y-90077125D01*
X141333649Y-90295080D01*
X141329341Y-90462475D01*
X141323513Y-90587894D01*
X141315429Y-90679921D01*
X141304352Y-90747141D01*
X141289542Y-90798138D01*
X141270264Y-90841498D01*
X141247656Y-90882530D01*
X141137501Y-91016823D01*
X140999853Y-91098405D01*
X140846415Y-91129802D01*
X140688892Y-91113544D01*
X140538988Y-91052158D01*
X140408407Y-90948172D01*
X140308852Y-90804113D01*
X140261163Y-90669469D01*
X140252522Y-90598854D01*
X140244751Y-90471649D01*
X140238210Y-90298995D01*
X140233264Y-90092034D01*
X140230274Y-89861905D01*
X140229544Y-89698424D01*
X140228736Y-88860224D01*
X139551403Y-88860224D01*
X139551403Y-91673699D01*
X139864670Y-91663961D01*
X140177936Y-91654224D01*
X140188540Y-91544278D01*
X140199143Y-91434333D01*
X140327791Y-91537717D01*
X140513008Y-91646873D01*
X140735024Y-91714325D01*
X140975134Y-91737188D01*
X141214633Y-91712578D01*
X141306600Y-91688631D01*
X141536853Y-91583106D01*
X141727180Y-91423106D01*
X141876681Y-91209516D01*
X141944279Y-91061557D01*
X141961583Y-91008371D01*
X141975546Y-90942552D01*
X141986660Y-90856048D01*
X141995416Y-90740807D01*
X142002305Y-90588776D01*
X142007818Y-90391901D01*
X142012445Y-90142131D01*
X142016017Y-89884691D01*
X142028901Y-88860224D01*
X141351918Y-88860224D01*
X141340661Y-89800024D01*
X141340661Y-89800024D01*
G37*
X141340661Y-89800024D02*
X141337177Y-90077125D01*
X141333649Y-90295080D01*
X141329341Y-90462475D01*
X141323513Y-90587894D01*
X141315429Y-90679921D01*
X141304352Y-90747141D01*
X141289542Y-90798138D01*
X141270264Y-90841498D01*
X141247656Y-90882530D01*
X141137501Y-91016823D01*
X140999853Y-91098405D01*
X140846415Y-91129802D01*
X140688892Y-91113544D01*
X140538988Y-91052158D01*
X140408407Y-90948172D01*
X140308852Y-90804113D01*
X140261163Y-90669469D01*
X140252522Y-90598854D01*
X140244751Y-90471649D01*
X140238210Y-90298995D01*
X140233264Y-90092034D01*
X140230274Y-89861905D01*
X140229544Y-89698424D01*
X140228736Y-88860224D01*
X139551403Y-88860224D01*
X139551403Y-91673699D01*
X139864670Y-91663961D01*
X140177936Y-91654224D01*
X140188540Y-91544278D01*
X140199143Y-91434333D01*
X140327791Y-91537717D01*
X140513008Y-91646873D01*
X140735024Y-91714325D01*
X140975134Y-91737188D01*
X141214633Y-91712578D01*
X141306600Y-91688631D01*
X141536853Y-91583106D01*
X141727180Y-91423106D01*
X141876681Y-91209516D01*
X141944279Y-91061557D01*
X141961583Y-91008371D01*
X141975546Y-90942552D01*
X141986660Y-90856048D01*
X141995416Y-90740807D01*
X142002305Y-90588776D01*
X142007818Y-90391901D01*
X142012445Y-90142131D01*
X142016017Y-89884691D01*
X142028901Y-88860224D01*
X141351918Y-88860224D01*
X141340661Y-89800024D01*
G36*
X146831771Y-88820468D02*
G01*
X146657032Y-88851996D01*
X146509231Y-88913723D01*
X146368947Y-89012674D01*
X146282403Y-89090821D01*
X146155403Y-89212637D01*
X146155403Y-88860224D01*
X145545803Y-88860224D01*
X145545803Y-91671157D01*
X146155403Y-91671157D01*
X146155403Y-91324609D01*
X146295191Y-91450899D01*
X146477048Y-91587591D01*
X146672184Y-91674501D01*
X146899473Y-91718825D01*
X147019003Y-91726858D01*
X147182375Y-91725836D01*
X147335747Y-91712834D01*
X147442336Y-91692382D01*
X147724956Y-91577004D01*
X147967192Y-91409985D01*
X148165265Y-91196675D01*
X148315395Y-90942421D01*
X148413805Y-90652574D01*
X148456715Y-90332482D01*
X148458336Y-90254206D01*
X148451901Y-90190896D01*
X147769329Y-90190896D01*
X147764928Y-90444854D01*
X147705539Y-90666234D01*
X147596122Y-90849675D01*
X147441637Y-90989815D01*
X147247043Y-91081291D01*
X147017301Y-91118742D01*
X146912533Y-91117137D01*
X146714612Y-91085049D01*
X146568408Y-91027334D01*
X146399485Y-90895247D01*
X146279555Y-90717112D01*
X146209347Y-90494400D01*
X146189270Y-90260345D01*
X146217358Y-90011771D01*
X146299773Y-89798371D01*
X146433741Y-89624898D01*
X146616489Y-89496109D01*
X146642506Y-89483444D01*
X146862784Y-89414298D01*
X147080452Y-89409635D01*
X147286584Y-89468248D01*
X147472250Y-89588929D01*
X147481053Y-89596767D01*
X147630504Y-89766315D01*
X147724279Y-89960125D01*
X147769329Y-90190896D01*
X148451901Y-90190896D01*
X148425980Y-89935908D01*
X148330729Y-89638848D01*
X148175311Y-89369315D01*
X147978527Y-89148270D01*
X147800415Y-89003031D01*
X147621952Y-88903572D01*
X147425060Y-88843327D01*
X147191656Y-88815731D01*
X147052870Y-88812114D01*
X146831771Y-88820468D01*
X146831771Y-88820468D01*
G37*
X146831771Y-88820468D02*
X146657032Y-88851996D01*
X146509231Y-88913723D01*
X146368947Y-89012674D01*
X146282403Y-89090821D01*
X146155403Y-89212637D01*
X146155403Y-88860224D01*
X145545803Y-88860224D01*
X145545803Y-91671157D01*
X146155403Y-91671157D01*
X146155403Y-91324609D01*
X146295191Y-91450899D01*
X146477048Y-91587591D01*
X146672184Y-91674501D01*
X146899473Y-91718825D01*
X147019003Y-91726858D01*
X147182375Y-91725836D01*
X147335747Y-91712834D01*
X147442336Y-91692382D01*
X147724956Y-91577004D01*
X147967192Y-91409985D01*
X148165265Y-91196675D01*
X148315395Y-90942421D01*
X148413805Y-90652574D01*
X148456715Y-90332482D01*
X148458336Y-90254206D01*
X148451901Y-90190896D01*
X147769329Y-90190896D01*
X147764928Y-90444854D01*
X147705539Y-90666234D01*
X147596122Y-90849675D01*
X147441637Y-90989815D01*
X147247043Y-91081291D01*
X147017301Y-91118742D01*
X146912533Y-91117137D01*
X146714612Y-91085049D01*
X146568408Y-91027334D01*
X146399485Y-90895247D01*
X146279555Y-90717112D01*
X146209347Y-90494400D01*
X146189270Y-90260345D01*
X146217358Y-90011771D01*
X146299773Y-89798371D01*
X146433741Y-89624898D01*
X146616489Y-89496109D01*
X146642506Y-89483444D01*
X146862784Y-89414298D01*
X147080452Y-89409635D01*
X147286584Y-89468248D01*
X147472250Y-89588929D01*
X147481053Y-89596767D01*
X147630504Y-89766315D01*
X147724279Y-89960125D01*
X147769329Y-90190896D01*
X148451901Y-90190896D01*
X148425980Y-89935908D01*
X148330729Y-89638848D01*
X148175311Y-89369315D01*
X147978527Y-89148270D01*
X147800415Y-89003031D01*
X147621952Y-88903572D01*
X147425060Y-88843327D01*
X147191656Y-88815731D01*
X147052870Y-88812114D01*
X146831771Y-88820468D01*
G36*
X149723261Y-87878382D02*
G01*
X149515989Y-87942679D01*
X149324388Y-88059327D01*
X149156487Y-88220458D01*
X149022658Y-88411121D01*
X148933274Y-88616367D01*
X148898708Y-88821245D01*
X148898603Y-88832504D01*
X148898603Y-88927957D01*
X149238333Y-88927957D01*
X149395633Y-88926501D01*
X149497856Y-88920744D01*
X149557623Y-88908600D01*
X149587555Y-88887986D01*
X149597107Y-88868690D01*
X149666546Y-88699129D01*
X149750580Y-88590383D01*
X149857691Y-88535810D01*
X149996366Y-88528767D01*
X150026882Y-88532241D01*
X150176553Y-88581453D01*
X150281757Y-88680980D01*
X150339256Y-88827397D01*
X150345619Y-88869334D01*
X150342741Y-88985960D01*
X150301382Y-89087189D01*
X150215166Y-89178961D01*
X150077717Y-89267219D01*
X149882658Y-89357905D01*
X149775378Y-89400708D01*
X149612282Y-89467281D01*
X149456257Y-89537598D01*
X149328207Y-89601901D01*
X149265490Y-89638719D01*
X149074397Y-89803266D01*
X148933432Y-90004319D01*
X148843325Y-90232041D01*
X148804806Y-90476595D01*
X148818606Y-90728145D01*
X148885453Y-90976853D01*
X149006079Y-91212884D01*
X149136264Y-91380013D01*
X149325750Y-91538165D01*
X149554138Y-91652511D01*
X149805475Y-91718981D01*
X150063807Y-91733501D01*
X150313182Y-91692000D01*
X150333737Y-91685668D01*
X150595864Y-91569320D01*
X150811628Y-91404021D01*
X150979478Y-91191609D01*
X151097865Y-90933920D01*
X151152846Y-90714424D01*
X151175208Y-90587424D01*
X150824306Y-90587602D01*
X150473403Y-90587779D01*
X150422603Y-90745990D01*
X150351561Y-90893950D01*
X150245285Y-90990238D01*
X150094412Y-91041793D01*
X150009141Y-91052271D01*
X149827815Y-91038450D01*
X149679212Y-90975032D01*
X149567628Y-90873282D01*
X149497357Y-90744468D01*
X149472694Y-90599857D01*
X149497933Y-90450714D01*
X149577369Y-90308308D01*
X149685968Y-90204458D01*
X149765198Y-90156899D01*
X149888136Y-90095842D01*
X150034801Y-90030857D01*
X150123154Y-89995024D01*
X150283365Y-89926360D01*
X150439653Y-89849009D01*
X150567984Y-89775278D01*
X150614221Y-89743567D01*
X150798903Y-89565808D01*
X150928689Y-89359548D01*
X151004594Y-89134520D01*
X151027630Y-88900459D01*
X150998812Y-88667100D01*
X150919152Y-88444178D01*
X150789664Y-88241426D01*
X150611362Y-88068579D01*
X150428040Y-87955299D01*
X150209902Y-87881860D01*
X149967068Y-87856111D01*
X149723261Y-87878382D01*
X149723261Y-87878382D01*
G37*
X149723261Y-87878382D02*
X149515989Y-87942679D01*
X149324388Y-88059327D01*
X149156487Y-88220458D01*
X149022658Y-88411121D01*
X148933274Y-88616367D01*
X148898708Y-88821245D01*
X148898603Y-88832504D01*
X148898603Y-88927957D01*
X149238333Y-88927957D01*
X149395633Y-88926501D01*
X149497856Y-88920744D01*
X149557623Y-88908600D01*
X149587555Y-88887986D01*
X149597107Y-88868690D01*
X149666546Y-88699129D01*
X149750580Y-88590383D01*
X149857691Y-88535810D01*
X149996366Y-88528767D01*
X150026882Y-88532241D01*
X150176553Y-88581453D01*
X150281757Y-88680980D01*
X150339256Y-88827397D01*
X150345619Y-88869334D01*
X150342741Y-88985960D01*
X150301382Y-89087189D01*
X150215166Y-89178961D01*
X150077717Y-89267219D01*
X149882658Y-89357905D01*
X149775378Y-89400708D01*
X149612282Y-89467281D01*
X149456257Y-89537598D01*
X149328207Y-89601901D01*
X149265490Y-89638719D01*
X149074397Y-89803266D01*
X148933432Y-90004319D01*
X148843325Y-90232041D01*
X148804806Y-90476595D01*
X148818606Y-90728145D01*
X148885453Y-90976853D01*
X149006079Y-91212884D01*
X149136264Y-91380013D01*
X149325750Y-91538165D01*
X149554138Y-91652511D01*
X149805475Y-91718981D01*
X150063807Y-91733501D01*
X150313182Y-91692000D01*
X150333737Y-91685668D01*
X150595864Y-91569320D01*
X150811628Y-91404021D01*
X150979478Y-91191609D01*
X151097865Y-90933920D01*
X151152846Y-90714424D01*
X151175208Y-90587424D01*
X150824306Y-90587602D01*
X150473403Y-90587779D01*
X150422603Y-90745990D01*
X150351561Y-90893950D01*
X150245285Y-90990238D01*
X150094412Y-91041793D01*
X150009141Y-91052271D01*
X149827815Y-91038450D01*
X149679212Y-90975032D01*
X149567628Y-90873282D01*
X149497357Y-90744468D01*
X149472694Y-90599857D01*
X149497933Y-90450714D01*
X149577369Y-90308308D01*
X149685968Y-90204458D01*
X149765198Y-90156899D01*
X149888136Y-90095842D01*
X150034801Y-90030857D01*
X150123154Y-89995024D01*
X150283365Y-89926360D01*
X150439653Y-89849009D01*
X150567984Y-89775278D01*
X150614221Y-89743567D01*
X150798903Y-89565808D01*
X150928689Y-89359548D01*
X151004594Y-89134520D01*
X151027630Y-88900459D01*
X150998812Y-88667100D01*
X150919152Y-88444178D01*
X150789664Y-88241426D01*
X150611362Y-88068579D01*
X150428040Y-87955299D01*
X150209902Y-87881860D01*
X149967068Y-87856111D01*
X149723261Y-87878382D01*
G36*
X155334508Y-89857511D02*
G01*
X154735546Y-89891158D01*
X154179801Y-89954798D01*
X153669880Y-90048024D01*
X153208394Y-90170432D01*
X152797951Y-90321616D01*
X152441160Y-90501172D01*
X152140631Y-90708694D01*
X151898971Y-90943777D01*
X151850938Y-91003064D01*
X151665079Y-91290378D01*
X151542727Y-91584337D01*
X151483612Y-91879519D01*
X151487467Y-92170499D01*
X151554022Y-92451851D01*
X151683008Y-92718153D01*
X151874157Y-92963979D01*
X151951896Y-93040669D01*
X152228957Y-93257239D01*
X152538031Y-93420708D01*
X152876480Y-93533451D01*
X153104257Y-93577454D01*
X153370615Y-93606530D01*
X153647734Y-93619131D01*
X153907797Y-93613711D01*
X154058706Y-93599218D01*
X154579023Y-93493660D01*
X155095554Y-93321898D01*
X155606225Y-93085438D01*
X156108966Y-92785789D01*
X156601704Y-92424456D01*
X157082367Y-92002948D01*
X157548883Y-91522771D01*
X157999180Y-90985433D01*
X158395485Y-90444600D01*
X158487591Y-90313214D01*
X158549295Y-90220026D01*
X158575022Y-90156951D01*
X158559198Y-90115903D01*
X158496248Y-90088795D01*
X158380600Y-90067542D01*
X158206679Y-90044057D01*
X158110337Y-90030945D01*
X157364600Y-89940572D01*
X156651644Y-89881813D01*
X155974076Y-89854260D01*
X155334508Y-89857511D01*
X155334508Y-89857511D01*
G37*
X155334508Y-89857511D02*
X154735546Y-89891158D01*
X154179801Y-89954798D01*
X153669880Y-90048024D01*
X153208394Y-90170432D01*
X152797951Y-90321616D01*
X152441160Y-90501172D01*
X152140631Y-90708694D01*
X151898971Y-90943777D01*
X151850938Y-91003064D01*
X151665079Y-91290378D01*
X151542727Y-91584337D01*
X151483612Y-91879519D01*
X151487467Y-92170499D01*
X151554022Y-92451851D01*
X151683008Y-92718153D01*
X151874157Y-92963979D01*
X151951896Y-93040669D01*
X152228957Y-93257239D01*
X152538031Y-93420708D01*
X152876480Y-93533451D01*
X153104257Y-93577454D01*
X153370615Y-93606530D01*
X153647734Y-93619131D01*
X153907797Y-93613711D01*
X154058706Y-93599218D01*
X154579023Y-93493660D01*
X155095554Y-93321898D01*
X155606225Y-93085438D01*
X156108966Y-92785789D01*
X156601704Y-92424456D01*
X157082367Y-92002948D01*
X157548883Y-91522771D01*
X157999180Y-90985433D01*
X158395485Y-90444600D01*
X158487591Y-90313214D01*
X158549295Y-90220026D01*
X158575022Y-90156951D01*
X158559198Y-90115903D01*
X158496248Y-90088795D01*
X158380600Y-90067542D01*
X158206679Y-90044057D01*
X158110337Y-90030945D01*
X157364600Y-89940572D01*
X156651644Y-89881813D01*
X155974076Y-89854260D01*
X155334508Y-89857511D01*
D14*
X160664300Y-122539940D02*
X161664300Y-122539940D01*
X161664300Y-124239940D02*
X160664300Y-124239940D01*
X168084300Y-112269940D02*
X167084300Y-112269940D01*
X167084300Y-110569940D02*
X168084300Y-110569940D01*
X162094300Y-91409940D02*
X162094300Y-90409940D01*
X163794300Y-90409940D02*
X163794300Y-91409940D01*
X142494450Y-118109790D02*
X142494450Y-117109790D01*
X144194450Y-117109790D02*
X144194450Y-118109790D01*
X158934450Y-104149790D02*
X158934450Y-105149790D01*
X157234450Y-105149790D02*
X157234450Y-104149790D01*
X132784300Y-102729940D02*
X131784300Y-102729940D01*
X131784300Y-101029940D02*
X132784300Y-101029940D01*
X132514300Y-109119940D02*
X133514300Y-109119940D01*
X133514300Y-110819940D02*
X132514300Y-110819940D01*
X146334450Y-102799790D02*
X146334450Y-103799790D01*
X144634450Y-103799790D02*
X144634450Y-102799790D01*
X151234300Y-122149940D02*
X150234300Y-122149940D01*
X150234300Y-120449940D02*
X151234300Y-120449940D01*
X136084300Y-94759940D02*
X136084300Y-95759940D01*
X134384300Y-95759940D02*
X134384300Y-94759940D01*
X130714300Y-88609940D02*
X130714300Y-87609940D01*
X132414300Y-87609940D02*
X132414300Y-88609940D01*
X168094300Y-97139940D02*
X167094300Y-97139940D01*
X167094300Y-95439940D02*
X168094300Y-95439940D01*
X168594300Y-109839940D02*
X166594300Y-109839940D01*
X166594300Y-107799940D02*
X168594300Y-107799940D01*
X166594300Y-97849940D02*
X168594300Y-97849940D01*
X168594300Y-99889940D02*
X166594300Y-99889940D01*
X170554450Y-100439790D02*
X164544450Y-100439790D01*
X168304450Y-107259790D02*
X164544450Y-107259790D01*
X164544450Y-100439790D02*
X164544450Y-101699790D01*
X164544450Y-107259790D02*
X164544450Y-105999790D01*
D12*
X161807157Y-121997082D02*
X161854776Y-122044701D01*
X161997633Y-122092320D01*
X162092871Y-122092320D01*
X162235728Y-122044701D01*
X162330966Y-121949463D01*
X162378585Y-121854225D01*
X162426204Y-121663749D01*
X162426204Y-121520892D01*
X162378585Y-121330416D01*
X162330966Y-121235178D01*
X162235728Y-121139940D01*
X162092871Y-121092320D01*
X161997633Y-121092320D01*
X161854776Y-121139940D01*
X161807157Y-121187559D01*
X160854776Y-122092320D02*
X161426204Y-122092320D01*
X161140490Y-122092320D02*
X161140490Y-121092320D01*
X161235728Y-121235178D01*
X161330966Y-121330416D01*
X161426204Y-121378035D01*
X159997633Y-121425654D02*
X159997633Y-122092320D01*
X160235728Y-121044701D02*
X160473823Y-121758987D01*
X159854776Y-121758987D01*
X164301116Y-111777082D02*
X164348735Y-111824701D01*
X164491592Y-111872320D01*
X164586830Y-111872320D01*
X164729688Y-111824701D01*
X164824926Y-111729463D01*
X164872545Y-111634225D01*
X164920164Y-111443749D01*
X164920164Y-111300892D01*
X164872545Y-111110416D01*
X164824926Y-111015178D01*
X164729688Y-110919940D01*
X164586830Y-110872320D01*
X164491592Y-110872320D01*
X164348735Y-110919940D01*
X164301116Y-110967559D01*
X163967783Y-110872320D02*
X163348735Y-110872320D01*
X163682069Y-111253273D01*
X163539211Y-111253273D01*
X163443973Y-111300892D01*
X163396354Y-111348511D01*
X163348735Y-111443749D01*
X163348735Y-111681844D01*
X163396354Y-111777082D01*
X163443973Y-111824701D01*
X163539211Y-111872320D01*
X163824926Y-111872320D01*
X163920164Y-111824701D01*
X163967783Y-111777082D01*
X161551442Y-90743273D02*
X161599061Y-90695654D01*
X161646680Y-90552797D01*
X161646680Y-90457559D01*
X161599061Y-90314701D01*
X161503823Y-90219463D01*
X161408585Y-90171844D01*
X161218109Y-90124225D01*
X161075252Y-90124225D01*
X160884776Y-90171844D01*
X160789538Y-90219463D01*
X160694300Y-90314701D01*
X160646680Y-90457559D01*
X160646680Y-90552797D01*
X160694300Y-90695654D01*
X160741919Y-90743273D01*
X160646680Y-91648035D02*
X160646680Y-91171844D01*
X161122871Y-91124225D01*
X161075252Y-91171844D01*
X161027633Y-91267082D01*
X161027633Y-91505178D01*
X161075252Y-91600416D01*
X161122871Y-91648035D01*
X161218109Y-91695654D01*
X161456204Y-91695654D01*
X161551442Y-91648035D01*
X161599061Y-91600416D01*
X161646680Y-91505178D01*
X161646680Y-91267082D01*
X161599061Y-91171844D01*
X161551442Y-91124225D01*
X145451592Y-117443123D02*
X145499211Y-117395504D01*
X145546830Y-117252647D01*
X145546830Y-117157409D01*
X145499211Y-117014551D01*
X145403973Y-116919313D01*
X145308735Y-116871694D01*
X145118259Y-116824075D01*
X144975402Y-116824075D01*
X144784926Y-116871694D01*
X144689688Y-116919313D01*
X144594450Y-117014551D01*
X144546830Y-117157409D01*
X144546830Y-117252647D01*
X144594450Y-117395504D01*
X144642069Y-117443123D01*
X144546830Y-118300266D02*
X144546830Y-118109790D01*
X144594450Y-118014551D01*
X144642069Y-117966932D01*
X144784926Y-117871694D01*
X144975402Y-117824075D01*
X145356354Y-117824075D01*
X145451592Y-117871694D01*
X145499211Y-117919313D01*
X145546830Y-118014551D01*
X145546830Y-118205028D01*
X145499211Y-118300266D01*
X145451592Y-118347885D01*
X145356354Y-118395504D01*
X145118259Y-118395504D01*
X145023021Y-118347885D01*
X144975402Y-118300266D01*
X144927783Y-118205028D01*
X144927783Y-118014551D01*
X144975402Y-117919313D01*
X145023021Y-117871694D01*
X145118259Y-117824075D01*
X160191592Y-104483123D02*
X160239211Y-104435504D01*
X160286830Y-104292647D01*
X160286830Y-104197409D01*
X160239211Y-104054551D01*
X160143973Y-103959313D01*
X160048735Y-103911694D01*
X159858259Y-103864075D01*
X159715402Y-103864075D01*
X159524926Y-103911694D01*
X159429688Y-103959313D01*
X159334450Y-104054551D01*
X159286830Y-104197409D01*
X159286830Y-104292647D01*
X159334450Y-104435504D01*
X159382069Y-104483123D01*
X159286830Y-104816456D02*
X159286830Y-105483123D01*
X160286830Y-105054551D01*
X132450966Y-100487082D02*
X132498585Y-100534701D01*
X132641442Y-100582320D01*
X132736680Y-100582320D01*
X132879538Y-100534701D01*
X132974776Y-100439463D01*
X133022395Y-100344225D01*
X133070014Y-100153749D01*
X133070014Y-100010892D01*
X133022395Y-99820416D01*
X132974776Y-99725178D01*
X132879538Y-99629940D01*
X132736680Y-99582320D01*
X132641442Y-99582320D01*
X132498585Y-99629940D01*
X132450966Y-99677559D01*
X131879538Y-100010892D02*
X131974776Y-99963273D01*
X132022395Y-99915654D01*
X132070014Y-99820416D01*
X132070014Y-99772797D01*
X132022395Y-99677559D01*
X131974776Y-99629940D01*
X131879538Y-99582320D01*
X131689061Y-99582320D01*
X131593823Y-99629940D01*
X131546204Y-99677559D01*
X131498585Y-99772797D01*
X131498585Y-99820416D01*
X131546204Y-99915654D01*
X131593823Y-99963273D01*
X131689061Y-100010892D01*
X131879538Y-100010892D01*
X131974776Y-100058511D01*
X132022395Y-100106130D01*
X132070014Y-100201368D01*
X132070014Y-100391844D01*
X132022395Y-100487082D01*
X131974776Y-100534701D01*
X131879538Y-100582320D01*
X131689061Y-100582320D01*
X131593823Y-100534701D01*
X131546204Y-100487082D01*
X131498585Y-100391844D01*
X131498585Y-100201368D01*
X131546204Y-100106130D01*
X131593823Y-100058511D01*
X131689061Y-100010892D01*
X133180966Y-108577082D02*
X133228585Y-108624701D01*
X133371442Y-108672320D01*
X133466680Y-108672320D01*
X133609538Y-108624701D01*
X133704776Y-108529463D01*
X133752395Y-108434225D01*
X133800014Y-108243749D01*
X133800014Y-108100892D01*
X133752395Y-107910416D01*
X133704776Y-107815178D01*
X133609538Y-107719940D01*
X133466680Y-107672320D01*
X133371442Y-107672320D01*
X133228585Y-107719940D01*
X133180966Y-107767559D01*
X132704776Y-108672320D02*
X132514300Y-108672320D01*
X132419061Y-108624701D01*
X132371442Y-108577082D01*
X132276204Y-108434225D01*
X132228585Y-108243749D01*
X132228585Y-107862797D01*
X132276204Y-107767559D01*
X132323823Y-107719940D01*
X132419061Y-107672320D01*
X132609538Y-107672320D01*
X132704776Y-107719940D01*
X132752395Y-107767559D01*
X132800014Y-107862797D01*
X132800014Y-108100892D01*
X132752395Y-108196130D01*
X132704776Y-108243749D01*
X132609538Y-108291368D01*
X132419061Y-108291368D01*
X132323823Y-108243749D01*
X132276204Y-108196130D01*
X132228585Y-108100892D01*
X144091592Y-102656932D02*
X144139211Y-102609313D01*
X144186830Y-102466456D01*
X144186830Y-102371218D01*
X144139211Y-102228361D01*
X144043973Y-102133123D01*
X143948735Y-102085504D01*
X143758259Y-102037885D01*
X143615402Y-102037885D01*
X143424926Y-102085504D01*
X143329688Y-102133123D01*
X143234450Y-102228361D01*
X143186830Y-102371218D01*
X143186830Y-102466456D01*
X143234450Y-102609313D01*
X143282069Y-102656932D01*
X144186830Y-103609313D02*
X144186830Y-103037885D01*
X144186830Y-103323599D02*
X143186830Y-103323599D01*
X143329688Y-103228361D01*
X143424926Y-103133123D01*
X143472545Y-103037885D01*
X143186830Y-104228361D02*
X143186830Y-104323599D01*
X143234450Y-104418837D01*
X143282069Y-104466456D01*
X143377307Y-104514075D01*
X143567783Y-104561694D01*
X143805878Y-104561694D01*
X143996354Y-104514075D01*
X144091592Y-104466456D01*
X144139211Y-104418837D01*
X144186830Y-104323599D01*
X144186830Y-104228361D01*
X144139211Y-104133123D01*
X144091592Y-104085504D01*
X143996354Y-104037885D01*
X143805878Y-103990266D01*
X143567783Y-103990266D01*
X143377307Y-104037885D01*
X143282069Y-104085504D01*
X143234450Y-104133123D01*
X143186830Y-104228361D01*
X151377157Y-123407082D02*
X151424776Y-123454701D01*
X151567633Y-123502320D01*
X151662871Y-123502320D01*
X151805728Y-123454701D01*
X151900966Y-123359463D01*
X151948585Y-123264225D01*
X151996204Y-123073749D01*
X151996204Y-122930892D01*
X151948585Y-122740416D01*
X151900966Y-122645178D01*
X151805728Y-122549940D01*
X151662871Y-122502320D01*
X151567633Y-122502320D01*
X151424776Y-122549940D01*
X151377157Y-122597559D01*
X150424776Y-123502320D02*
X150996204Y-123502320D01*
X150710490Y-123502320D02*
X150710490Y-122502320D01*
X150805728Y-122645178D01*
X150900966Y-122740416D01*
X150996204Y-122788035D01*
X149472395Y-123502320D02*
X150043823Y-123502320D01*
X149758109Y-123502320D02*
X149758109Y-122502320D01*
X149853347Y-122645178D01*
X149948585Y-122740416D01*
X150043823Y-122788035D01*
X133841442Y-94617082D02*
X133889061Y-94569463D01*
X133936680Y-94426606D01*
X133936680Y-94331368D01*
X133889061Y-94188511D01*
X133793823Y-94093273D01*
X133698585Y-94045654D01*
X133508109Y-93998035D01*
X133365252Y-93998035D01*
X133174776Y-94045654D01*
X133079538Y-94093273D01*
X132984300Y-94188511D01*
X132936680Y-94331368D01*
X132936680Y-94426606D01*
X132984300Y-94569463D01*
X133031919Y-94617082D01*
X133936680Y-95569463D02*
X133936680Y-94998035D01*
X133936680Y-95283749D02*
X132936680Y-95283749D01*
X133079538Y-95188511D01*
X133174776Y-95093273D01*
X133222395Y-94998035D01*
X133031919Y-95950416D02*
X132984300Y-95998035D01*
X132936680Y-96093273D01*
X132936680Y-96331368D01*
X132984300Y-96426606D01*
X133031919Y-96474225D01*
X133127157Y-96521844D01*
X133222395Y-96521844D01*
X133365252Y-96474225D01*
X133936680Y-95902797D01*
X133936680Y-96521844D01*
X130171442Y-87467082D02*
X130219061Y-87419463D01*
X130266680Y-87276606D01*
X130266680Y-87181368D01*
X130219061Y-87038511D01*
X130123823Y-86943273D01*
X130028585Y-86895654D01*
X129838109Y-86848035D01*
X129695252Y-86848035D01*
X129504776Y-86895654D01*
X129409538Y-86943273D01*
X129314300Y-87038511D01*
X129266680Y-87181368D01*
X129266680Y-87276606D01*
X129314300Y-87419463D01*
X129361919Y-87467082D01*
X130266680Y-88419463D02*
X130266680Y-87848035D01*
X130266680Y-88133749D02*
X129266680Y-88133749D01*
X129409538Y-88038511D01*
X129504776Y-87943273D01*
X129552395Y-87848035D01*
X129266680Y-88752797D02*
X129266680Y-89371844D01*
X129647633Y-89038511D01*
X129647633Y-89181368D01*
X129695252Y-89276606D01*
X129742871Y-89324225D01*
X129838109Y-89371844D01*
X130076204Y-89371844D01*
X130171442Y-89324225D01*
X130219061Y-89276606D01*
X130266680Y-89181368D01*
X130266680Y-88895654D01*
X130219061Y-88800416D01*
X130171442Y-88752797D01*
X164301116Y-96647082D02*
X164348735Y-96694701D01*
X164491592Y-96742320D01*
X164586830Y-96742320D01*
X164729688Y-96694701D01*
X164824926Y-96599463D01*
X164872545Y-96504225D01*
X164920164Y-96313749D01*
X164920164Y-96170892D01*
X164872545Y-95980416D01*
X164824926Y-95885178D01*
X164729688Y-95789940D01*
X164586830Y-95742320D01*
X164491592Y-95742320D01*
X164348735Y-95789940D01*
X164301116Y-95837559D01*
X163443973Y-96075654D02*
X163443973Y-96742320D01*
X163682069Y-95694701D02*
X163920164Y-96408987D01*
X163301116Y-96408987D01*
X163301116Y-109186932D02*
X163348735Y-109234551D01*
X163491592Y-109282170D01*
X163586830Y-109282170D01*
X163729688Y-109234551D01*
X163824926Y-109139313D01*
X163872545Y-109044075D01*
X163920164Y-108853599D01*
X163920164Y-108710742D01*
X163872545Y-108520266D01*
X163824926Y-108425028D01*
X163729688Y-108329790D01*
X163586830Y-108282170D01*
X163491592Y-108282170D01*
X163348735Y-108329790D01*
X163301116Y-108377409D01*
X162348735Y-109282170D02*
X162920164Y-109282170D01*
X162634450Y-109282170D02*
X162634450Y-108282170D01*
X162729688Y-108425028D01*
X162824926Y-108520266D01*
X162920164Y-108567885D01*
X163301116Y-99186932D02*
X163348735Y-99234551D01*
X163491592Y-99282170D01*
X163586830Y-99282170D01*
X163729688Y-99234551D01*
X163824926Y-99139313D01*
X163872545Y-99044075D01*
X163920164Y-98853599D01*
X163920164Y-98710742D01*
X163872545Y-98520266D01*
X163824926Y-98425028D01*
X163729688Y-98329790D01*
X163586830Y-98282170D01*
X163491592Y-98282170D01*
X163348735Y-98329790D01*
X163301116Y-98377409D01*
X162920164Y-98377409D02*
X162872545Y-98329790D01*
X162777307Y-98282170D01*
X162539211Y-98282170D01*
X162443973Y-98329790D01*
X162396354Y-98377409D01*
X162348735Y-98472647D01*
X162348735Y-98567885D01*
X162396354Y-98710742D01*
X162967783Y-99282170D01*
X162348735Y-99282170D01*
X167216354Y-103262170D02*
X167216354Y-104071694D01*
X167168735Y-104166932D01*
X167121116Y-104214551D01*
X167025878Y-104262170D01*
X166835402Y-104262170D01*
X166740164Y-104214551D01*
X166692545Y-104166932D01*
X166644926Y-104071694D01*
X166644926Y-103262170D01*
X165644926Y-104262170D02*
X166216354Y-104262170D01*
X165930640Y-104262170D02*
X165930640Y-103262170D01*
X166025878Y-103405028D01*
X166121116Y-103500266D01*
X166216354Y-103547885D01*
%LPC*%
D15*
X176464550Y-127593450D03*
X176464550Y-126323450D03*
X176464550Y-125053450D03*
X176464550Y-123783450D03*
X176464550Y-122513450D03*
X176464550Y-121243450D03*
X176464550Y-119973450D03*
X176464550Y-118703450D03*
X176464550Y-117433450D03*
X176464550Y-116163450D03*
X176464550Y-114893450D03*
X176464550Y-113623450D03*
X176464550Y-112353450D03*
X176464550Y-111083450D03*
X176464550Y-109813450D03*
X176464550Y-108543450D03*
X176464550Y-107273450D03*
X176464550Y-106003450D03*
X176464550Y-104733450D03*
X176464550Y-103463450D03*
X176464550Y-102193450D03*
X176464550Y-100923450D03*
X176464550Y-99653450D03*
X176464550Y-98383450D03*
X176464550Y-97113450D03*
X176464550Y-95843450D03*
X176464550Y-94573450D03*
X176464550Y-93303450D03*
X176464550Y-92033450D03*
X176464550Y-90763450D03*
X176464550Y-89493450D03*
X176464550Y-88223450D03*
X176464550Y-86953450D03*
X176464550Y-85683450D03*
D16*
X117524450Y-127859790D03*
X117524450Y-125359790D03*
X117524450Y-122859790D03*
X117524450Y-120359790D03*
X117524450Y-117859790D03*
X117524450Y-115359790D03*
X117524450Y-112859790D03*
X117524450Y-110359790D03*
X117524450Y-107859790D03*
X117524450Y-105359790D03*
X117524450Y-102859790D03*
X117524450Y-100359790D03*
X117524450Y-97859790D03*
X117524450Y-95359790D03*
X117524450Y-92859790D03*
X117524450Y-90359790D03*
X117524450Y-87859790D03*
X117524450Y-85359790D03*
X122934450Y-130669790D03*
X125434450Y-130669790D03*
X127934450Y-130669790D03*
X130434450Y-130669790D03*
X132934450Y-130669790D03*
X135434450Y-130669790D03*
X137934450Y-130669790D03*
X140434450Y-130669790D03*
X142934450Y-130669790D03*
X145434450Y-130669790D03*
X147934450Y-130669790D03*
X150434450Y-130669790D03*
X152934450Y-130669790D03*
X155434450Y-130669790D03*
X157934450Y-130669790D03*
X160434450Y-130669790D03*
X162934450Y-130669790D03*
X165434450Y-130669790D03*
X122924450Y-82739790D03*
X125424450Y-82739790D03*
X127924450Y-82739790D03*
X130424450Y-82739790D03*
X132924450Y-82739790D03*
X135424450Y-82739790D03*
X137924450Y-82739790D03*
X140424450Y-82739790D03*
X142924450Y-82739790D03*
X145424450Y-82739790D03*
X147924450Y-82739790D03*
X150424450Y-82739790D03*
X152924450Y-82739790D03*
X155424450Y-82739790D03*
X157924450Y-82739790D03*
X160424450Y-82739790D03*
X162924450Y-82739790D03*
X165424450Y-82739790D03*
D17*
X120420450Y-101531790D03*
X120420450Y-108331790D03*
D18*
X162414300Y-123389940D03*
X159914300Y-123389940D03*
X166334300Y-111419940D03*
X168834300Y-111419940D03*
D19*
X162944300Y-89659940D03*
X162944300Y-92159940D03*
X143344450Y-116359790D03*
X143344450Y-118859790D03*
X158084450Y-105899790D03*
X158084450Y-103399790D03*
D18*
X131034300Y-101879940D03*
X133534300Y-101879940D03*
X134264300Y-109969940D03*
X131764300Y-109969940D03*
D19*
X145484450Y-104549790D03*
X145484450Y-102049790D03*
D18*
X149484300Y-121299940D03*
X151984300Y-121299940D03*
D19*
X135234300Y-96509940D03*
X135234300Y-94009940D03*
X131564300Y-86859940D03*
X131564300Y-89359940D03*
D18*
X166344300Y-96289940D03*
X168844300Y-96289940D03*
D20*
X165594300Y-108819940D03*
X169594300Y-108819940D03*
X169594300Y-98869940D03*
X165594300Y-98869940D03*
D21*
X169604450Y-101549790D03*
X169604450Y-106149790D03*
X169604450Y-103849790D03*
D22*
X163304450Y-103849790D03*
D23*
X120974300Y-111849940D03*
X120974300Y-114389940D03*
X120974300Y-116929940D03*
X120974300Y-119469940D03*
X120974300Y-122009940D03*
D24*
X120974300Y-124549940D03*
M02*
