G04 #@! TF.GenerationSoftware,KiCad,Pcbnew,5.1.2-f72e74a~84~ubuntu16.04.1*
G04 #@! TF.CreationDate,2019-06-15T11:53:25+02:00*
G04 #@! TF.ProjectId,sakura,73616b75-7261-42e6-9b69-6361645f7063,2.1.2019*
G04 #@! TF.SameCoordinates,Original*
G04 #@! TF.FileFunction,Soldermask,Bot*
G04 #@! TF.FilePolarity,Negative*
%FSLAX46Y46*%
G04 Gerber Fmt 4.6, Leading zero omitted, Abs format (unit mm)*
G04 Created by KiCad (PCBNEW 5.1.2-f72e74a~84~ubuntu16.04.1) date 2019-06-15 11:53:25*
%MOMM*%
%LPD*%
G04 APERTURE LIST*
%ADD10C,0.100000*%
G04 APERTURE END LIST*
D10*
G36*
X163065709Y-130237083D02*
G01*
X163147605Y-130271005D01*
X163221308Y-130320252D01*
X163283988Y-130382932D01*
X163333235Y-130456635D01*
X163367157Y-130538531D01*
X163384450Y-130625468D01*
X163384450Y-130714112D01*
X163367157Y-130801049D01*
X163333235Y-130882945D01*
X163283988Y-130956648D01*
X163221308Y-131019328D01*
X163147605Y-131068575D01*
X163065709Y-131102497D01*
X162978772Y-131119790D01*
X162890128Y-131119790D01*
X162803191Y-131102497D01*
X162721295Y-131068575D01*
X162647592Y-131019328D01*
X162584912Y-130956648D01*
X162535665Y-130882945D01*
X162501743Y-130801049D01*
X162484450Y-130714112D01*
X162484450Y-130625468D01*
X162501743Y-130538531D01*
X162518705Y-130497582D01*
X162535665Y-130456635D01*
X162584912Y-130382932D01*
X162647592Y-130320252D01*
X162721295Y-130271005D01*
X162803191Y-130237083D01*
X162890128Y-130219790D01*
X162978772Y-130219790D01*
X163065709Y-130237083D01*
X163065709Y-130237083D01*
G37*
G36*
X140565709Y-130237083D02*
G01*
X140647605Y-130271005D01*
X140721308Y-130320252D01*
X140783988Y-130382932D01*
X140833235Y-130456635D01*
X140867157Y-130538531D01*
X140884450Y-130625468D01*
X140884450Y-130714112D01*
X140867157Y-130801049D01*
X140833235Y-130882945D01*
X140783988Y-130956648D01*
X140721308Y-131019328D01*
X140647605Y-131068575D01*
X140565709Y-131102497D01*
X140478772Y-131119790D01*
X140390128Y-131119790D01*
X140303191Y-131102497D01*
X140221295Y-131068575D01*
X140147592Y-131019328D01*
X140084912Y-130956648D01*
X140035665Y-130882945D01*
X140001743Y-130801049D01*
X139984450Y-130714112D01*
X139984450Y-130625468D01*
X140001743Y-130538531D01*
X140018705Y-130497582D01*
X140035665Y-130456635D01*
X140084912Y-130382932D01*
X140147592Y-130320252D01*
X140221295Y-130271005D01*
X140303191Y-130237083D01*
X140390128Y-130219790D01*
X140478772Y-130219790D01*
X140565709Y-130237083D01*
X140565709Y-130237083D01*
G37*
G36*
X123065709Y-130237083D02*
G01*
X123147605Y-130271005D01*
X123221308Y-130320252D01*
X123283988Y-130382932D01*
X123333235Y-130456635D01*
X123367157Y-130538531D01*
X123384450Y-130625468D01*
X123384450Y-130714112D01*
X123367157Y-130801049D01*
X123333235Y-130882945D01*
X123283988Y-130956648D01*
X123221308Y-131019328D01*
X123147605Y-131068575D01*
X123065709Y-131102497D01*
X122978772Y-131119790D01*
X122890128Y-131119790D01*
X122803191Y-131102497D01*
X122721295Y-131068575D01*
X122647592Y-131019328D01*
X122584912Y-130956648D01*
X122535665Y-130882945D01*
X122501743Y-130801049D01*
X122484450Y-130714112D01*
X122484450Y-130625468D01*
X122501743Y-130538531D01*
X122518705Y-130497582D01*
X122535665Y-130456635D01*
X122584912Y-130382932D01*
X122647592Y-130320252D01*
X122721295Y-130271005D01*
X122803191Y-130237083D01*
X122890128Y-130219790D01*
X122978772Y-130219790D01*
X123065709Y-130237083D01*
X123065709Y-130237083D01*
G37*
G36*
X125565709Y-130237083D02*
G01*
X125647605Y-130271005D01*
X125721308Y-130320252D01*
X125783988Y-130382932D01*
X125833235Y-130456635D01*
X125867157Y-130538531D01*
X125884450Y-130625468D01*
X125884450Y-130714112D01*
X125867157Y-130801049D01*
X125833235Y-130882945D01*
X125783988Y-130956648D01*
X125721308Y-131019328D01*
X125647605Y-131068575D01*
X125565709Y-131102497D01*
X125478772Y-131119790D01*
X125390128Y-131119790D01*
X125303191Y-131102497D01*
X125221295Y-131068575D01*
X125147592Y-131019328D01*
X125084912Y-130956648D01*
X125035665Y-130882945D01*
X125001743Y-130801049D01*
X124984450Y-130714112D01*
X124984450Y-130625468D01*
X125001743Y-130538531D01*
X125018705Y-130497582D01*
X125035665Y-130456635D01*
X125084912Y-130382932D01*
X125147592Y-130320252D01*
X125221295Y-130271005D01*
X125303191Y-130237083D01*
X125390128Y-130219790D01*
X125478772Y-130219790D01*
X125565709Y-130237083D01*
X125565709Y-130237083D01*
G37*
G36*
X128065709Y-130237083D02*
G01*
X128147605Y-130271005D01*
X128221308Y-130320252D01*
X128283988Y-130382932D01*
X128333235Y-130456635D01*
X128367157Y-130538531D01*
X128384450Y-130625468D01*
X128384450Y-130714112D01*
X128367157Y-130801049D01*
X128333235Y-130882945D01*
X128283988Y-130956648D01*
X128221308Y-131019328D01*
X128147605Y-131068575D01*
X128065709Y-131102497D01*
X127978772Y-131119790D01*
X127890128Y-131119790D01*
X127803191Y-131102497D01*
X127721295Y-131068575D01*
X127647592Y-131019328D01*
X127584912Y-130956648D01*
X127535665Y-130882945D01*
X127501743Y-130801049D01*
X127484450Y-130714112D01*
X127484450Y-130625468D01*
X127501743Y-130538531D01*
X127518705Y-130497582D01*
X127535665Y-130456635D01*
X127584912Y-130382932D01*
X127647592Y-130320252D01*
X127721295Y-130271005D01*
X127803191Y-130237083D01*
X127890128Y-130219790D01*
X127978772Y-130219790D01*
X128065709Y-130237083D01*
X128065709Y-130237083D01*
G37*
G36*
X130565709Y-130237083D02*
G01*
X130647605Y-130271005D01*
X130721308Y-130320252D01*
X130783988Y-130382932D01*
X130833235Y-130456635D01*
X130867157Y-130538531D01*
X130884450Y-130625468D01*
X130884450Y-130714112D01*
X130867157Y-130801049D01*
X130833235Y-130882945D01*
X130783988Y-130956648D01*
X130721308Y-131019328D01*
X130647605Y-131068575D01*
X130565709Y-131102497D01*
X130478772Y-131119790D01*
X130390128Y-131119790D01*
X130303191Y-131102497D01*
X130221295Y-131068575D01*
X130147592Y-131019328D01*
X130084912Y-130956648D01*
X130035665Y-130882945D01*
X130001743Y-130801049D01*
X129984450Y-130714112D01*
X129984450Y-130625468D01*
X130001743Y-130538531D01*
X130018705Y-130497582D01*
X130035665Y-130456635D01*
X130084912Y-130382932D01*
X130147592Y-130320252D01*
X130221295Y-130271005D01*
X130303191Y-130237083D01*
X130390128Y-130219790D01*
X130478772Y-130219790D01*
X130565709Y-130237083D01*
X130565709Y-130237083D01*
G37*
G36*
X133065709Y-130237083D02*
G01*
X133147605Y-130271005D01*
X133221308Y-130320252D01*
X133283988Y-130382932D01*
X133333235Y-130456635D01*
X133367157Y-130538531D01*
X133384450Y-130625468D01*
X133384450Y-130714112D01*
X133367157Y-130801049D01*
X133333235Y-130882945D01*
X133283988Y-130956648D01*
X133221308Y-131019328D01*
X133147605Y-131068575D01*
X133065709Y-131102497D01*
X132978772Y-131119790D01*
X132890128Y-131119790D01*
X132803191Y-131102497D01*
X132721295Y-131068575D01*
X132647592Y-131019328D01*
X132584912Y-130956648D01*
X132535665Y-130882945D01*
X132501743Y-130801049D01*
X132484450Y-130714112D01*
X132484450Y-130625468D01*
X132501743Y-130538531D01*
X132518705Y-130497582D01*
X132535665Y-130456635D01*
X132584912Y-130382932D01*
X132647592Y-130320252D01*
X132721295Y-130271005D01*
X132803191Y-130237083D01*
X132890128Y-130219790D01*
X132978772Y-130219790D01*
X133065709Y-130237083D01*
X133065709Y-130237083D01*
G37*
G36*
X135565709Y-130237083D02*
G01*
X135647605Y-130271005D01*
X135721308Y-130320252D01*
X135783988Y-130382932D01*
X135833235Y-130456635D01*
X135867157Y-130538531D01*
X135884450Y-130625468D01*
X135884450Y-130714112D01*
X135867157Y-130801049D01*
X135833235Y-130882945D01*
X135783988Y-130956648D01*
X135721308Y-131019328D01*
X135647605Y-131068575D01*
X135565709Y-131102497D01*
X135478772Y-131119790D01*
X135390128Y-131119790D01*
X135303191Y-131102497D01*
X135221295Y-131068575D01*
X135147592Y-131019328D01*
X135084912Y-130956648D01*
X135035665Y-130882945D01*
X135001743Y-130801049D01*
X134984450Y-130714112D01*
X134984450Y-130625468D01*
X135001743Y-130538531D01*
X135018705Y-130497582D01*
X135035665Y-130456635D01*
X135084912Y-130382932D01*
X135147592Y-130320252D01*
X135221295Y-130271005D01*
X135303191Y-130237083D01*
X135390128Y-130219790D01*
X135478772Y-130219790D01*
X135565709Y-130237083D01*
X135565709Y-130237083D01*
G37*
G36*
X138065709Y-130237083D02*
G01*
X138147605Y-130271005D01*
X138221308Y-130320252D01*
X138283988Y-130382932D01*
X138333235Y-130456635D01*
X138367157Y-130538531D01*
X138384450Y-130625468D01*
X138384450Y-130714112D01*
X138367157Y-130801049D01*
X138333235Y-130882945D01*
X138283988Y-130956648D01*
X138221308Y-131019328D01*
X138147605Y-131068575D01*
X138065709Y-131102497D01*
X137978772Y-131119790D01*
X137890128Y-131119790D01*
X137803191Y-131102497D01*
X137721295Y-131068575D01*
X137647592Y-131019328D01*
X137584912Y-130956648D01*
X137535665Y-130882945D01*
X137501743Y-130801049D01*
X137484450Y-130714112D01*
X137484450Y-130625468D01*
X137501743Y-130538531D01*
X137518705Y-130497582D01*
X137535665Y-130456635D01*
X137584912Y-130382932D01*
X137647592Y-130320252D01*
X137721295Y-130271005D01*
X137803191Y-130237083D01*
X137890128Y-130219790D01*
X137978772Y-130219790D01*
X138065709Y-130237083D01*
X138065709Y-130237083D01*
G37*
G36*
X165565709Y-130237083D02*
G01*
X165647605Y-130271005D01*
X165721308Y-130320252D01*
X165783988Y-130382932D01*
X165833235Y-130456635D01*
X165867157Y-130538531D01*
X165884450Y-130625468D01*
X165884450Y-130714112D01*
X165867157Y-130801049D01*
X165833235Y-130882945D01*
X165783988Y-130956648D01*
X165721308Y-131019328D01*
X165647605Y-131068575D01*
X165565709Y-131102497D01*
X165478772Y-131119790D01*
X165390128Y-131119790D01*
X165303191Y-131102497D01*
X165221295Y-131068575D01*
X165147592Y-131019328D01*
X165084912Y-130956648D01*
X165035665Y-130882945D01*
X165001743Y-130801049D01*
X164984450Y-130714112D01*
X164984450Y-130625468D01*
X165001743Y-130538531D01*
X165018705Y-130497582D01*
X165035665Y-130456635D01*
X165084912Y-130382932D01*
X165147592Y-130320252D01*
X165221295Y-130271005D01*
X165303191Y-130237083D01*
X165390128Y-130219790D01*
X165478772Y-130219790D01*
X165565709Y-130237083D01*
X165565709Y-130237083D01*
G37*
G36*
X145565709Y-130237083D02*
G01*
X145647605Y-130271005D01*
X145721308Y-130320252D01*
X145783988Y-130382932D01*
X145833235Y-130456635D01*
X145867157Y-130538531D01*
X145884450Y-130625468D01*
X145884450Y-130714112D01*
X145867157Y-130801049D01*
X145833235Y-130882945D01*
X145783988Y-130956648D01*
X145721308Y-131019328D01*
X145647605Y-131068575D01*
X145565709Y-131102497D01*
X145478772Y-131119790D01*
X145390128Y-131119790D01*
X145303191Y-131102497D01*
X145221295Y-131068575D01*
X145147592Y-131019328D01*
X145084912Y-130956648D01*
X145035665Y-130882945D01*
X145001743Y-130801049D01*
X144984450Y-130714112D01*
X144984450Y-130625468D01*
X145001743Y-130538531D01*
X145018705Y-130497582D01*
X145035665Y-130456635D01*
X145084912Y-130382932D01*
X145147592Y-130320252D01*
X145221295Y-130271005D01*
X145303191Y-130237083D01*
X145390128Y-130219790D01*
X145478772Y-130219790D01*
X145565709Y-130237083D01*
X145565709Y-130237083D01*
G37*
G36*
X143065709Y-130237083D02*
G01*
X143147605Y-130271005D01*
X143221308Y-130320252D01*
X143283988Y-130382932D01*
X143333235Y-130456635D01*
X143367157Y-130538531D01*
X143384450Y-130625468D01*
X143384450Y-130714112D01*
X143367157Y-130801049D01*
X143333235Y-130882945D01*
X143283988Y-130956648D01*
X143221308Y-131019328D01*
X143147605Y-131068575D01*
X143065709Y-131102497D01*
X142978772Y-131119790D01*
X142890128Y-131119790D01*
X142803191Y-131102497D01*
X142721295Y-131068575D01*
X142647592Y-131019328D01*
X142584912Y-130956648D01*
X142535665Y-130882945D01*
X142501743Y-130801049D01*
X142484450Y-130714112D01*
X142484450Y-130625468D01*
X142501743Y-130538531D01*
X142518705Y-130497582D01*
X142535665Y-130456635D01*
X142584912Y-130382932D01*
X142647592Y-130320252D01*
X142721295Y-130271005D01*
X142803191Y-130237083D01*
X142890128Y-130219790D01*
X142978772Y-130219790D01*
X143065709Y-130237083D01*
X143065709Y-130237083D01*
G37*
G36*
X160565709Y-130237083D02*
G01*
X160647605Y-130271005D01*
X160721308Y-130320252D01*
X160783988Y-130382932D01*
X160833235Y-130456635D01*
X160867157Y-130538531D01*
X160884450Y-130625468D01*
X160884450Y-130714112D01*
X160867157Y-130801049D01*
X160833235Y-130882945D01*
X160783988Y-130956648D01*
X160721308Y-131019328D01*
X160647605Y-131068575D01*
X160565709Y-131102497D01*
X160478772Y-131119790D01*
X160390128Y-131119790D01*
X160303191Y-131102497D01*
X160221295Y-131068575D01*
X160147592Y-131019328D01*
X160084912Y-130956648D01*
X160035665Y-130882945D01*
X160001743Y-130801049D01*
X159984450Y-130714112D01*
X159984450Y-130625468D01*
X160001743Y-130538531D01*
X160018705Y-130497582D01*
X160035665Y-130456635D01*
X160084912Y-130382932D01*
X160147592Y-130320252D01*
X160221295Y-130271005D01*
X160303191Y-130237083D01*
X160390128Y-130219790D01*
X160478772Y-130219790D01*
X160565709Y-130237083D01*
X160565709Y-130237083D01*
G37*
G36*
X158065709Y-130237083D02*
G01*
X158147605Y-130271005D01*
X158221308Y-130320252D01*
X158283988Y-130382932D01*
X158333235Y-130456635D01*
X158367157Y-130538531D01*
X158384450Y-130625468D01*
X158384450Y-130714112D01*
X158367157Y-130801049D01*
X158333235Y-130882945D01*
X158283988Y-130956648D01*
X158221308Y-131019328D01*
X158147605Y-131068575D01*
X158065709Y-131102497D01*
X157978772Y-131119790D01*
X157890128Y-131119790D01*
X157803191Y-131102497D01*
X157721295Y-131068575D01*
X157647592Y-131019328D01*
X157584912Y-130956648D01*
X157535665Y-130882945D01*
X157501743Y-130801049D01*
X157484450Y-130714112D01*
X157484450Y-130625468D01*
X157501743Y-130538531D01*
X157518705Y-130497582D01*
X157535665Y-130456635D01*
X157584912Y-130382932D01*
X157647592Y-130320252D01*
X157721295Y-130271005D01*
X157803191Y-130237083D01*
X157890128Y-130219790D01*
X157978772Y-130219790D01*
X158065709Y-130237083D01*
X158065709Y-130237083D01*
G37*
G36*
X155565709Y-130237083D02*
G01*
X155647605Y-130271005D01*
X155721308Y-130320252D01*
X155783988Y-130382932D01*
X155833235Y-130456635D01*
X155867157Y-130538531D01*
X155884450Y-130625468D01*
X155884450Y-130714112D01*
X155867157Y-130801049D01*
X155833235Y-130882945D01*
X155783988Y-130956648D01*
X155721308Y-131019328D01*
X155647605Y-131068575D01*
X155565709Y-131102497D01*
X155478772Y-131119790D01*
X155390128Y-131119790D01*
X155303191Y-131102497D01*
X155221295Y-131068575D01*
X155147592Y-131019328D01*
X155084912Y-130956648D01*
X155035665Y-130882945D01*
X155001743Y-130801049D01*
X154984450Y-130714112D01*
X154984450Y-130625468D01*
X155001743Y-130538531D01*
X155018705Y-130497582D01*
X155035665Y-130456635D01*
X155084912Y-130382932D01*
X155147592Y-130320252D01*
X155221295Y-130271005D01*
X155303191Y-130237083D01*
X155390128Y-130219790D01*
X155478772Y-130219790D01*
X155565709Y-130237083D01*
X155565709Y-130237083D01*
G37*
G36*
X150565709Y-130237083D02*
G01*
X150647605Y-130271005D01*
X150721308Y-130320252D01*
X150783988Y-130382932D01*
X150833235Y-130456635D01*
X150867157Y-130538531D01*
X150884450Y-130625468D01*
X150884450Y-130714112D01*
X150867157Y-130801049D01*
X150833235Y-130882945D01*
X150783988Y-130956648D01*
X150721308Y-131019328D01*
X150647605Y-131068575D01*
X150565709Y-131102497D01*
X150478772Y-131119790D01*
X150390128Y-131119790D01*
X150303191Y-131102497D01*
X150221295Y-131068575D01*
X150147592Y-131019328D01*
X150084912Y-130956648D01*
X150035665Y-130882945D01*
X150001743Y-130801049D01*
X149984450Y-130714112D01*
X149984450Y-130625468D01*
X150001743Y-130538531D01*
X150018705Y-130497582D01*
X150035665Y-130456635D01*
X150084912Y-130382932D01*
X150147592Y-130320252D01*
X150221295Y-130271005D01*
X150303191Y-130237083D01*
X150390128Y-130219790D01*
X150478772Y-130219790D01*
X150565709Y-130237083D01*
X150565709Y-130237083D01*
G37*
G36*
X148065709Y-130237083D02*
G01*
X148147605Y-130271005D01*
X148221308Y-130320252D01*
X148283988Y-130382932D01*
X148333235Y-130456635D01*
X148367157Y-130538531D01*
X148384450Y-130625468D01*
X148384450Y-130714112D01*
X148367157Y-130801049D01*
X148333235Y-130882945D01*
X148283988Y-130956648D01*
X148221308Y-131019328D01*
X148147605Y-131068575D01*
X148065709Y-131102497D01*
X147978772Y-131119790D01*
X147890128Y-131119790D01*
X147803191Y-131102497D01*
X147721295Y-131068575D01*
X147647592Y-131019328D01*
X147584912Y-130956648D01*
X147535665Y-130882945D01*
X147501743Y-130801049D01*
X147484450Y-130714112D01*
X147484450Y-130625468D01*
X147501743Y-130538531D01*
X147518705Y-130497582D01*
X147535665Y-130456635D01*
X147584912Y-130382932D01*
X147647592Y-130320252D01*
X147721295Y-130271005D01*
X147803191Y-130237083D01*
X147890128Y-130219790D01*
X147978772Y-130219790D01*
X148065709Y-130237083D01*
X148065709Y-130237083D01*
G37*
G36*
X153065709Y-130237083D02*
G01*
X153147605Y-130271005D01*
X153221308Y-130320252D01*
X153283988Y-130382932D01*
X153333235Y-130456635D01*
X153367157Y-130538531D01*
X153384450Y-130625468D01*
X153384450Y-130714112D01*
X153367157Y-130801049D01*
X153333235Y-130882945D01*
X153283988Y-130956648D01*
X153221308Y-131019328D01*
X153147605Y-131068575D01*
X153065709Y-131102497D01*
X152978772Y-131119790D01*
X152890128Y-131119790D01*
X152803191Y-131102497D01*
X152721295Y-131068575D01*
X152647592Y-131019328D01*
X152584912Y-130956648D01*
X152535665Y-130882945D01*
X152501743Y-130801049D01*
X152484450Y-130714112D01*
X152484450Y-130625468D01*
X152501743Y-130538531D01*
X152518705Y-130497582D01*
X152535665Y-130456635D01*
X152584912Y-130382932D01*
X152647592Y-130320252D01*
X152721295Y-130271005D01*
X152803191Y-130237083D01*
X152890128Y-130219790D01*
X152978772Y-130219790D01*
X153065709Y-130237083D01*
X153065709Y-130237083D01*
G37*
G36*
X117655709Y-127427083D02*
G01*
X117696658Y-127444045D01*
X117737605Y-127461005D01*
X117811308Y-127510252D01*
X117873988Y-127572932D01*
X117923235Y-127646635D01*
X117940195Y-127687582D01*
X117957157Y-127728531D01*
X117974450Y-127815468D01*
X117974450Y-127904112D01*
X117957157Y-127991049D01*
X117923235Y-128072945D01*
X117873988Y-128146648D01*
X117811308Y-128209328D01*
X117737605Y-128258575D01*
X117696658Y-128275535D01*
X117655709Y-128292497D01*
X117568772Y-128309790D01*
X117480128Y-128309790D01*
X117393191Y-128292497D01*
X117352242Y-128275535D01*
X117311295Y-128258575D01*
X117237592Y-128209328D01*
X117174912Y-128146648D01*
X117125665Y-128072945D01*
X117108705Y-128031998D01*
X117091743Y-127991049D01*
X117074450Y-127904112D01*
X117074450Y-127815468D01*
X117091743Y-127728531D01*
X117108705Y-127687582D01*
X117125665Y-127646635D01*
X117174912Y-127572932D01*
X117237592Y-127510252D01*
X117311295Y-127461005D01*
X117352242Y-127444045D01*
X117393191Y-127427083D01*
X117480128Y-127409790D01*
X117568772Y-127409790D01*
X117655709Y-127427083D01*
X117655709Y-127427083D01*
G37*
G36*
X178514550Y-128043450D02*
G01*
X174414550Y-128043450D01*
X174414550Y-127143450D01*
X178514550Y-127143450D01*
X178514550Y-128043450D01*
X178514550Y-128043450D01*
G37*
G36*
X178514550Y-126773450D02*
G01*
X174414550Y-126773450D01*
X174414550Y-125873450D01*
X178514550Y-125873450D01*
X178514550Y-126773450D01*
X178514550Y-126773450D01*
G37*
G36*
X117655709Y-124927083D02*
G01*
X117696658Y-124944045D01*
X117737605Y-124961005D01*
X117811308Y-125010252D01*
X117873988Y-125072932D01*
X117923235Y-125146635D01*
X117940195Y-125187582D01*
X117957157Y-125228531D01*
X117974450Y-125315468D01*
X117974450Y-125404112D01*
X117957157Y-125491049D01*
X117952020Y-125503450D01*
X117923235Y-125572945D01*
X117873988Y-125646648D01*
X117811308Y-125709328D01*
X117737605Y-125758575D01*
X117696658Y-125775535D01*
X117655709Y-125792497D01*
X117568772Y-125809790D01*
X117480128Y-125809790D01*
X117393191Y-125792497D01*
X117352242Y-125775535D01*
X117311295Y-125758575D01*
X117237592Y-125709328D01*
X117174912Y-125646648D01*
X117125665Y-125572945D01*
X117096880Y-125503450D01*
X117091743Y-125491049D01*
X117074450Y-125404112D01*
X117074450Y-125315468D01*
X117091743Y-125228531D01*
X117108705Y-125187582D01*
X117125665Y-125146635D01*
X117174912Y-125072932D01*
X117237592Y-125010252D01*
X117311295Y-124961005D01*
X117352242Y-124944045D01*
X117393191Y-124927083D01*
X117480128Y-124909790D01*
X117568772Y-124909790D01*
X117655709Y-124927083D01*
X117655709Y-124927083D01*
G37*
G36*
X178514550Y-125503450D02*
G01*
X174414550Y-125503450D01*
X174414550Y-124603450D01*
X178514550Y-124603450D01*
X178514550Y-125503450D01*
X178514550Y-125503450D01*
G37*
G36*
X121874300Y-125449940D02*
G01*
X120074300Y-125449940D01*
X120074300Y-123649940D01*
X121874300Y-123649940D01*
X121874300Y-125449940D01*
X121874300Y-125449940D01*
G37*
G36*
X178514550Y-124233450D02*
G01*
X174414550Y-124233450D01*
X174414550Y-123333450D01*
X178514550Y-123333450D01*
X178514550Y-124233450D01*
X178514550Y-124233450D01*
G37*
G36*
X160714300Y-124064940D02*
G01*
X159114300Y-124064940D01*
X159114300Y-122714940D01*
X160714300Y-122714940D01*
X160714300Y-124064940D01*
X160714300Y-124064940D01*
G37*
G36*
X163214300Y-124064940D02*
G01*
X161614300Y-124064940D01*
X161614300Y-122714940D01*
X163214300Y-122714940D01*
X163214300Y-124064940D01*
X163214300Y-124064940D01*
G37*
G36*
X117655709Y-122427083D02*
G01*
X117737605Y-122461005D01*
X117811308Y-122510252D01*
X117873988Y-122572932D01*
X117923235Y-122646635D01*
X117924386Y-122649415D01*
X117957157Y-122728531D01*
X117974450Y-122815468D01*
X117974450Y-122904112D01*
X117957157Y-122991049D01*
X117923235Y-123072945D01*
X117873988Y-123146648D01*
X117811308Y-123209328D01*
X117737605Y-123258575D01*
X117655709Y-123292497D01*
X117568772Y-123309790D01*
X117480128Y-123309790D01*
X117393191Y-123292497D01*
X117311295Y-123258575D01*
X117237592Y-123209328D01*
X117174912Y-123146648D01*
X117125665Y-123072945D01*
X117091743Y-122991049D01*
X117074450Y-122904112D01*
X117074450Y-122815468D01*
X117091743Y-122728531D01*
X117124514Y-122649415D01*
X117125665Y-122646635D01*
X117174912Y-122572932D01*
X117237592Y-122510252D01*
X117311295Y-122461005D01*
X117393191Y-122427083D01*
X117480128Y-122409790D01*
X117568772Y-122409790D01*
X117655709Y-122427083D01*
X117655709Y-122427083D01*
G37*
G36*
X178514550Y-122963450D02*
G01*
X174414550Y-122963450D01*
X174414550Y-122063450D01*
X178514550Y-122063450D01*
X178514550Y-122963450D01*
X178514550Y-122963450D01*
G37*
G36*
X121150727Y-121122962D02*
G01*
X121150730Y-121122963D01*
X121150731Y-121122963D01*
X121320381Y-121174426D01*
X121320383Y-121174427D01*
X121320386Y-121174428D01*
X121476731Y-121257996D01*
X121613775Y-121370465D01*
X121726244Y-121507509D01*
X121809812Y-121663854D01*
X121861278Y-121833513D01*
X121878654Y-122009940D01*
X121861278Y-122186367D01*
X121809812Y-122356026D01*
X121726244Y-122512371D01*
X121613775Y-122649415D01*
X121476731Y-122761884D01*
X121320386Y-122845452D01*
X121320383Y-122845453D01*
X121320381Y-122845454D01*
X121150731Y-122896917D01*
X121150730Y-122896917D01*
X121150727Y-122896918D01*
X121018511Y-122909940D01*
X120930089Y-122909940D01*
X120797873Y-122896918D01*
X120797870Y-122896917D01*
X120797869Y-122896917D01*
X120628219Y-122845454D01*
X120628217Y-122845453D01*
X120628214Y-122845452D01*
X120471869Y-122761884D01*
X120334825Y-122649415D01*
X120222356Y-122512371D01*
X120138788Y-122356026D01*
X120087322Y-122186367D01*
X120069946Y-122009940D01*
X120087322Y-121833513D01*
X120138788Y-121663854D01*
X120222356Y-121507509D01*
X120334825Y-121370465D01*
X120471869Y-121257996D01*
X120628214Y-121174428D01*
X120628217Y-121174427D01*
X120628219Y-121174426D01*
X120797869Y-121122963D01*
X120797870Y-121122963D01*
X120797873Y-121122962D01*
X120930089Y-121109940D01*
X121018511Y-121109940D01*
X121150727Y-121122962D01*
X121150727Y-121122962D01*
G37*
G36*
X150284300Y-121974940D02*
G01*
X148684300Y-121974940D01*
X148684300Y-120624940D01*
X150284300Y-120624940D01*
X150284300Y-121974940D01*
X150284300Y-121974940D01*
G37*
G36*
X152784300Y-121974940D02*
G01*
X151184300Y-121974940D01*
X151184300Y-120624940D01*
X152784300Y-120624940D01*
X152784300Y-121974940D01*
X152784300Y-121974940D01*
G37*
G36*
X178514550Y-121693450D02*
G01*
X174414550Y-121693450D01*
X174414550Y-120793450D01*
X178514550Y-120793450D01*
X178514550Y-121693450D01*
X178514550Y-121693450D01*
G37*
G36*
X117655709Y-119927083D02*
G01*
X117737605Y-119961005D01*
X117811308Y-120010252D01*
X117873988Y-120072932D01*
X117923235Y-120146635D01*
X117957157Y-120228531D01*
X117974450Y-120315468D01*
X117974450Y-120404112D01*
X117957157Y-120491049D01*
X117940195Y-120531998D01*
X117923235Y-120572945D01*
X117873988Y-120646648D01*
X117811308Y-120709328D01*
X117737605Y-120758575D01*
X117655709Y-120792497D01*
X117568772Y-120809790D01*
X117480128Y-120809790D01*
X117393191Y-120792497D01*
X117311295Y-120758575D01*
X117237592Y-120709328D01*
X117174912Y-120646648D01*
X117125665Y-120572945D01*
X117108705Y-120531998D01*
X117091743Y-120491049D01*
X117074450Y-120404112D01*
X117074450Y-120315468D01*
X117091743Y-120228531D01*
X117125665Y-120146635D01*
X117174912Y-120072932D01*
X117237592Y-120010252D01*
X117311295Y-119961005D01*
X117393191Y-119927083D01*
X117480128Y-119909790D01*
X117568772Y-119909790D01*
X117655709Y-119927083D01*
X117655709Y-119927083D01*
G37*
G36*
X178514550Y-120423450D02*
G01*
X174414550Y-120423450D01*
X174414550Y-119523450D01*
X178514550Y-119523450D01*
X178514550Y-120423450D01*
X178514550Y-120423450D01*
G37*
G36*
X121150727Y-118582962D02*
G01*
X121150730Y-118582963D01*
X121150731Y-118582963D01*
X121320381Y-118634426D01*
X121320383Y-118634427D01*
X121320386Y-118634428D01*
X121476731Y-118717996D01*
X121613775Y-118830465D01*
X121726244Y-118967509D01*
X121809812Y-119123854D01*
X121861278Y-119293513D01*
X121878654Y-119469940D01*
X121861278Y-119646367D01*
X121809812Y-119816026D01*
X121726244Y-119972371D01*
X121613775Y-120109415D01*
X121476731Y-120221884D01*
X121320386Y-120305452D01*
X121320383Y-120305453D01*
X121320381Y-120305454D01*
X121150731Y-120356917D01*
X121150730Y-120356917D01*
X121150727Y-120356918D01*
X121018511Y-120369940D01*
X120930089Y-120369940D01*
X120797873Y-120356918D01*
X120797870Y-120356917D01*
X120797869Y-120356917D01*
X120628219Y-120305454D01*
X120628217Y-120305453D01*
X120628214Y-120305452D01*
X120471869Y-120221884D01*
X120334825Y-120109415D01*
X120222356Y-119972371D01*
X120138788Y-119816026D01*
X120087322Y-119646367D01*
X120069946Y-119469940D01*
X120087322Y-119293513D01*
X120138788Y-119123854D01*
X120222356Y-118967509D01*
X120334825Y-118830465D01*
X120471869Y-118717996D01*
X120628214Y-118634428D01*
X120628217Y-118634427D01*
X120628219Y-118634426D01*
X120797869Y-118582963D01*
X120797870Y-118582963D01*
X120797873Y-118582962D01*
X120930089Y-118569940D01*
X121018511Y-118569940D01*
X121150727Y-118582962D01*
X121150727Y-118582962D01*
G37*
G36*
X144019450Y-119659790D02*
G01*
X142669450Y-119659790D01*
X142669450Y-118059790D01*
X144019450Y-118059790D01*
X144019450Y-119659790D01*
X144019450Y-119659790D01*
G37*
G36*
X178514550Y-119153450D02*
G01*
X174414550Y-119153450D01*
X174414550Y-118253450D01*
X178514550Y-118253450D01*
X178514550Y-119153450D01*
X178514550Y-119153450D01*
G37*
G36*
X117655709Y-117427083D02*
G01*
X117696658Y-117444045D01*
X117737605Y-117461005D01*
X117811308Y-117510252D01*
X117873988Y-117572932D01*
X117923235Y-117646635D01*
X117937835Y-117681883D01*
X117957157Y-117728531D01*
X117974450Y-117815468D01*
X117974450Y-117904112D01*
X117957157Y-117991049D01*
X117940195Y-118031998D01*
X117923235Y-118072945D01*
X117873988Y-118146648D01*
X117811308Y-118209328D01*
X117737605Y-118258575D01*
X117696658Y-118275535D01*
X117655709Y-118292497D01*
X117568772Y-118309790D01*
X117480128Y-118309790D01*
X117393191Y-118292497D01*
X117352242Y-118275535D01*
X117311295Y-118258575D01*
X117237592Y-118209328D01*
X117174912Y-118146648D01*
X117125665Y-118072945D01*
X117108705Y-118031998D01*
X117091743Y-117991049D01*
X117074450Y-117904112D01*
X117074450Y-117815468D01*
X117091743Y-117728531D01*
X117111065Y-117681883D01*
X117125665Y-117646635D01*
X117174912Y-117572932D01*
X117237592Y-117510252D01*
X117311295Y-117461005D01*
X117352242Y-117444045D01*
X117393191Y-117427083D01*
X117480128Y-117409790D01*
X117568772Y-117409790D01*
X117655709Y-117427083D01*
X117655709Y-117427083D01*
G37*
G36*
X178514550Y-117883450D02*
G01*
X174414550Y-117883450D01*
X174414550Y-116983450D01*
X178514550Y-116983450D01*
X178514550Y-117883450D01*
X178514550Y-117883450D01*
G37*
G36*
X121150727Y-116042962D02*
G01*
X121150730Y-116042963D01*
X121150731Y-116042963D01*
X121320381Y-116094426D01*
X121320383Y-116094427D01*
X121320386Y-116094428D01*
X121476731Y-116177996D01*
X121613775Y-116290465D01*
X121726244Y-116427509D01*
X121809812Y-116583854D01*
X121861278Y-116753513D01*
X121878654Y-116929940D01*
X121861278Y-117106367D01*
X121809812Y-117276026D01*
X121726244Y-117432371D01*
X121613775Y-117569415D01*
X121476731Y-117681884D01*
X121320386Y-117765452D01*
X121320383Y-117765453D01*
X121320381Y-117765454D01*
X121150731Y-117816917D01*
X121150730Y-117816917D01*
X121150727Y-117816918D01*
X121018511Y-117829940D01*
X120930089Y-117829940D01*
X120797873Y-117816918D01*
X120797870Y-117816917D01*
X120797869Y-117816917D01*
X120628219Y-117765454D01*
X120628217Y-117765453D01*
X120628214Y-117765452D01*
X120471869Y-117681884D01*
X120334825Y-117569415D01*
X120222356Y-117432371D01*
X120138788Y-117276026D01*
X120087322Y-117106367D01*
X120069946Y-116929940D01*
X120087322Y-116753513D01*
X120138788Y-116583854D01*
X120222356Y-116427509D01*
X120334825Y-116290465D01*
X120471869Y-116177996D01*
X120628214Y-116094428D01*
X120628217Y-116094427D01*
X120628219Y-116094426D01*
X120797869Y-116042963D01*
X120797870Y-116042963D01*
X120797873Y-116042962D01*
X120930089Y-116029940D01*
X121018511Y-116029940D01*
X121150727Y-116042962D01*
X121150727Y-116042962D01*
G37*
G36*
X144019450Y-117159790D02*
G01*
X142669450Y-117159790D01*
X142669450Y-115559790D01*
X144019450Y-115559790D01*
X144019450Y-117159790D01*
X144019450Y-117159790D01*
G37*
G36*
X178514550Y-116613450D02*
G01*
X174414550Y-116613450D01*
X174414550Y-115713450D01*
X178514550Y-115713450D01*
X178514550Y-116613450D01*
X178514550Y-116613450D01*
G37*
G36*
X117655709Y-114927083D02*
G01*
X117737605Y-114961005D01*
X117811308Y-115010252D01*
X117873988Y-115072932D01*
X117923235Y-115146635D01*
X117957157Y-115228531D01*
X117974450Y-115315468D01*
X117974450Y-115404112D01*
X117957157Y-115491049D01*
X117940195Y-115531998D01*
X117923235Y-115572945D01*
X117873988Y-115646648D01*
X117811308Y-115709328D01*
X117737605Y-115758575D01*
X117655709Y-115792497D01*
X117568772Y-115809790D01*
X117480128Y-115809790D01*
X117393191Y-115792497D01*
X117311295Y-115758575D01*
X117237592Y-115709328D01*
X117174912Y-115646648D01*
X117125665Y-115572945D01*
X117108705Y-115531998D01*
X117091743Y-115491049D01*
X117074450Y-115404112D01*
X117074450Y-115315468D01*
X117091743Y-115228531D01*
X117125665Y-115146635D01*
X117174912Y-115072932D01*
X117237592Y-115010252D01*
X117311295Y-114961005D01*
X117393191Y-114927083D01*
X117480128Y-114909790D01*
X117568772Y-114909790D01*
X117655709Y-114927083D01*
X117655709Y-114927083D01*
G37*
G36*
X178514550Y-115343450D02*
G01*
X174414550Y-115343450D01*
X174414550Y-114443450D01*
X178514550Y-114443450D01*
X178514550Y-115343450D01*
X178514550Y-115343450D01*
G37*
G36*
X121150727Y-113502962D02*
G01*
X121150730Y-113502963D01*
X121150731Y-113502963D01*
X121320381Y-113554426D01*
X121320383Y-113554427D01*
X121320386Y-113554428D01*
X121476731Y-113637996D01*
X121613775Y-113750465D01*
X121726244Y-113887509D01*
X121809812Y-114043854D01*
X121861278Y-114213513D01*
X121878654Y-114389940D01*
X121861278Y-114566367D01*
X121809812Y-114736026D01*
X121726244Y-114892371D01*
X121613775Y-115029415D01*
X121476731Y-115141884D01*
X121320386Y-115225452D01*
X121320383Y-115225453D01*
X121320381Y-115225454D01*
X121150731Y-115276917D01*
X121150730Y-115276917D01*
X121150727Y-115276918D01*
X121018511Y-115289940D01*
X120930089Y-115289940D01*
X120797873Y-115276918D01*
X120797870Y-115276917D01*
X120797869Y-115276917D01*
X120628219Y-115225454D01*
X120628217Y-115225453D01*
X120628214Y-115225452D01*
X120471869Y-115141884D01*
X120334825Y-115029415D01*
X120222356Y-114892371D01*
X120138788Y-114736026D01*
X120087322Y-114566367D01*
X120069946Y-114389940D01*
X120087322Y-114213513D01*
X120138788Y-114043854D01*
X120222356Y-113887509D01*
X120334825Y-113750465D01*
X120471869Y-113637996D01*
X120628214Y-113554428D01*
X120628217Y-113554427D01*
X120628219Y-113554426D01*
X120797869Y-113502963D01*
X120797870Y-113502963D01*
X120797873Y-113502962D01*
X120930089Y-113489940D01*
X121018511Y-113489940D01*
X121150727Y-113502962D01*
X121150727Y-113502962D01*
G37*
G36*
X178514550Y-114073450D02*
G01*
X174414550Y-114073450D01*
X174414550Y-113173450D01*
X178514550Y-113173450D01*
X178514550Y-114073450D01*
X178514550Y-114073450D01*
G37*
G36*
X117655709Y-112427083D02*
G01*
X117737605Y-112461005D01*
X117811308Y-112510252D01*
X117873988Y-112572932D01*
X117923235Y-112646635D01*
X117939313Y-112685452D01*
X117957157Y-112728531D01*
X117974450Y-112815468D01*
X117974450Y-112904112D01*
X117957157Y-112991049D01*
X117923235Y-113072945D01*
X117873988Y-113146648D01*
X117811308Y-113209328D01*
X117737605Y-113258575D01*
X117696658Y-113275535D01*
X117655709Y-113292497D01*
X117568772Y-113309790D01*
X117480128Y-113309790D01*
X117393191Y-113292497D01*
X117352242Y-113275535D01*
X117311295Y-113258575D01*
X117237592Y-113209328D01*
X117174912Y-113146648D01*
X117125665Y-113072945D01*
X117091743Y-112991049D01*
X117074450Y-112904112D01*
X117074450Y-112815468D01*
X117091743Y-112728531D01*
X117109587Y-112685452D01*
X117125665Y-112646635D01*
X117174912Y-112572932D01*
X117237592Y-112510252D01*
X117311295Y-112461005D01*
X117393191Y-112427083D01*
X117480128Y-112409790D01*
X117568772Y-112409790D01*
X117655709Y-112427083D01*
X117655709Y-112427083D01*
G37*
G36*
X178514550Y-112803450D02*
G01*
X174414550Y-112803450D01*
X174414550Y-111903450D01*
X178514550Y-111903450D01*
X178514550Y-112803450D01*
X178514550Y-112803450D01*
G37*
G36*
X121150727Y-110962962D02*
G01*
X121150730Y-110962963D01*
X121150731Y-110962963D01*
X121320381Y-111014426D01*
X121320383Y-111014427D01*
X121320386Y-111014428D01*
X121476731Y-111097996D01*
X121613775Y-111210465D01*
X121726244Y-111347509D01*
X121809812Y-111503854D01*
X121861278Y-111673513D01*
X121878654Y-111849940D01*
X121861278Y-112026367D01*
X121861277Y-112026370D01*
X121861277Y-112026371D01*
X121840477Y-112094940D01*
X121809812Y-112196026D01*
X121726244Y-112352371D01*
X121613775Y-112489415D01*
X121476731Y-112601884D01*
X121320386Y-112685452D01*
X121320383Y-112685453D01*
X121320381Y-112685454D01*
X121150731Y-112736917D01*
X121150730Y-112736917D01*
X121150727Y-112736918D01*
X121018511Y-112749940D01*
X120930089Y-112749940D01*
X120797873Y-112736918D01*
X120797870Y-112736917D01*
X120797869Y-112736917D01*
X120628219Y-112685454D01*
X120628217Y-112685453D01*
X120628214Y-112685452D01*
X120471869Y-112601884D01*
X120334825Y-112489415D01*
X120222356Y-112352371D01*
X120138788Y-112196026D01*
X120108124Y-112094940D01*
X120087323Y-112026371D01*
X120087323Y-112026370D01*
X120087322Y-112026367D01*
X120069946Y-111849940D01*
X120087322Y-111673513D01*
X120138788Y-111503854D01*
X120222356Y-111347509D01*
X120334825Y-111210465D01*
X120471869Y-111097996D01*
X120628214Y-111014428D01*
X120628217Y-111014427D01*
X120628219Y-111014426D01*
X120797869Y-110962963D01*
X120797870Y-110962963D01*
X120797873Y-110962962D01*
X120930089Y-110949940D01*
X121018511Y-110949940D01*
X121150727Y-110962962D01*
X121150727Y-110962962D01*
G37*
G36*
X169634300Y-112094940D02*
G01*
X168034300Y-112094940D01*
X168034300Y-110744940D01*
X169634300Y-110744940D01*
X169634300Y-112094940D01*
X169634300Y-112094940D01*
G37*
G36*
X167134300Y-112094940D02*
G01*
X165534300Y-112094940D01*
X165534300Y-110744940D01*
X167134300Y-110744940D01*
X167134300Y-112094940D01*
X167134300Y-112094940D01*
G37*
G36*
X178514550Y-111533450D02*
G01*
X174414550Y-111533450D01*
X174414550Y-110633450D01*
X178514550Y-110633450D01*
X178514550Y-111533450D01*
X178514550Y-111533450D01*
G37*
G36*
X117655709Y-109927083D02*
G01*
X117696658Y-109944045D01*
X117737605Y-109961005D01*
X117811308Y-110010252D01*
X117873988Y-110072932D01*
X117923235Y-110146635D01*
X117957157Y-110228531D01*
X117974450Y-110315468D01*
X117974450Y-110404112D01*
X117957157Y-110491049D01*
X117923235Y-110572945D01*
X117873988Y-110646648D01*
X117811308Y-110709328D01*
X117737605Y-110758575D01*
X117655709Y-110792497D01*
X117568772Y-110809790D01*
X117480128Y-110809790D01*
X117393191Y-110792497D01*
X117352242Y-110775535D01*
X117311295Y-110758575D01*
X117237592Y-110709328D01*
X117174912Y-110646648D01*
X117125665Y-110572945D01*
X117091743Y-110491049D01*
X117074450Y-110404112D01*
X117074450Y-110315468D01*
X117091743Y-110228531D01*
X117125665Y-110146635D01*
X117174912Y-110072932D01*
X117237592Y-110010252D01*
X117311295Y-109961005D01*
X117393191Y-109927083D01*
X117480128Y-109909790D01*
X117568772Y-109909790D01*
X117655709Y-109927083D01*
X117655709Y-109927083D01*
G37*
G36*
X132564300Y-110644940D02*
G01*
X130964300Y-110644940D01*
X130964300Y-109294940D01*
X132564300Y-109294940D01*
X132564300Y-110644940D01*
X132564300Y-110644940D01*
G37*
G36*
X135064300Y-110644940D02*
G01*
X133464300Y-110644940D01*
X133464300Y-109294940D01*
X135064300Y-109294940D01*
X135064300Y-110644940D01*
X135064300Y-110644940D01*
G37*
G36*
X178514550Y-110263450D02*
G01*
X174414550Y-110263450D01*
X174414550Y-109363450D01*
X178514550Y-109363450D01*
X178514550Y-110263450D01*
X178514550Y-110263450D01*
G37*
G36*
X170644300Y-109669940D02*
G01*
X168544300Y-109669940D01*
X168544300Y-107969940D01*
X170644300Y-107969940D01*
X170644300Y-109669940D01*
X170644300Y-109669940D01*
G37*
G36*
X166644300Y-109669940D02*
G01*
X164544300Y-109669940D01*
X164544300Y-107969940D01*
X166644300Y-107969940D01*
X166644300Y-109669940D01*
X166644300Y-109669940D01*
G37*
G36*
X178514550Y-108993450D02*
G01*
X174414550Y-108993450D01*
X174414550Y-108093450D01*
X178514550Y-108093450D01*
X178514550Y-108993450D01*
X178514550Y-108993450D01*
G37*
G36*
X120566293Y-107851004D02*
G01*
X120566296Y-107851005D01*
X120566295Y-107851005D01*
X120657289Y-107888696D01*
X120739181Y-107943415D01*
X120808825Y-108013059D01*
X120848841Y-108072946D01*
X120863545Y-108094953D01*
X120901236Y-108185947D01*
X120920450Y-108282543D01*
X120920450Y-108381037D01*
X120901236Y-108477633D01*
X120901235Y-108477635D01*
X120863544Y-108568629D01*
X120808825Y-108650521D01*
X120739181Y-108720165D01*
X120657289Y-108774884D01*
X120657288Y-108774885D01*
X120657287Y-108774885D01*
X120566293Y-108812576D01*
X120469697Y-108831790D01*
X120371203Y-108831790D01*
X120274607Y-108812576D01*
X120183613Y-108774885D01*
X120183612Y-108774885D01*
X120183611Y-108774884D01*
X120101719Y-108720165D01*
X120032075Y-108650521D01*
X119977356Y-108568629D01*
X119939665Y-108477635D01*
X119939664Y-108477633D01*
X119920450Y-108381037D01*
X119920450Y-108282543D01*
X119939664Y-108185947D01*
X119977355Y-108094953D01*
X119992060Y-108072946D01*
X120032075Y-108013059D01*
X120101719Y-107943415D01*
X120183611Y-107888696D01*
X120274605Y-107851005D01*
X120274604Y-107851005D01*
X120274607Y-107851004D01*
X120371203Y-107831790D01*
X120469697Y-107831790D01*
X120566293Y-107851004D01*
X120566293Y-107851004D01*
G37*
G36*
X117655709Y-107427083D02*
G01*
X117737605Y-107461005D01*
X117811308Y-107510252D01*
X117873988Y-107572932D01*
X117923235Y-107646635D01*
X117957157Y-107728531D01*
X117974450Y-107815468D01*
X117974450Y-107904112D01*
X117957157Y-107991049D01*
X117923235Y-108072945D01*
X117873988Y-108146648D01*
X117811308Y-108209328D01*
X117737605Y-108258575D01*
X117696658Y-108275535D01*
X117655709Y-108292497D01*
X117568772Y-108309790D01*
X117480128Y-108309790D01*
X117393191Y-108292497D01*
X117352242Y-108275535D01*
X117311295Y-108258575D01*
X117237592Y-108209328D01*
X117174912Y-108146648D01*
X117125665Y-108072945D01*
X117108705Y-108031998D01*
X117091743Y-107991049D01*
X117074450Y-107904112D01*
X117074450Y-107815468D01*
X117091743Y-107728531D01*
X117125665Y-107646635D01*
X117174912Y-107572932D01*
X117237592Y-107510252D01*
X117311295Y-107461005D01*
X117393191Y-107427083D01*
X117480128Y-107409790D01*
X117568772Y-107409790D01*
X117655709Y-107427083D01*
X117655709Y-107427083D01*
G37*
G36*
X178514550Y-107723450D02*
G01*
X174414550Y-107723450D01*
X174414550Y-106823450D01*
X178514550Y-106823450D01*
X178514550Y-107723450D01*
X178514550Y-107723450D01*
G37*
G36*
X170654450Y-106949790D02*
G01*
X168554450Y-106949790D01*
X168554450Y-105349790D01*
X170654450Y-105349790D01*
X170654450Y-106949790D01*
X170654450Y-106949790D01*
G37*
G36*
X158759450Y-106699790D02*
G01*
X157409450Y-106699790D01*
X157409450Y-105099790D01*
X158759450Y-105099790D01*
X158759450Y-106699790D01*
X158759450Y-106699790D01*
G37*
G36*
X178514550Y-106453450D02*
G01*
X174414550Y-106453450D01*
X174414550Y-105553450D01*
X178514550Y-105553450D01*
X178514550Y-106453450D01*
X178514550Y-106453450D01*
G37*
G36*
X117655709Y-104927083D02*
G01*
X117737605Y-104961005D01*
X117811308Y-105010252D01*
X117873988Y-105072932D01*
X117923235Y-105146635D01*
X117938484Y-105183450D01*
X117957157Y-105228531D01*
X117974450Y-105315468D01*
X117974450Y-105404112D01*
X117957157Y-105491049D01*
X117940195Y-105531998D01*
X117923235Y-105572945D01*
X117873988Y-105646648D01*
X117811308Y-105709328D01*
X117737605Y-105758575D01*
X117696658Y-105775535D01*
X117655709Y-105792497D01*
X117568772Y-105809790D01*
X117480128Y-105809790D01*
X117393191Y-105792497D01*
X117311295Y-105758575D01*
X117237592Y-105709328D01*
X117174912Y-105646648D01*
X117125665Y-105572945D01*
X117108705Y-105531998D01*
X117091743Y-105491049D01*
X117074450Y-105404112D01*
X117074450Y-105315468D01*
X117091743Y-105228531D01*
X117110416Y-105183450D01*
X117125665Y-105146635D01*
X117174912Y-105072932D01*
X117237592Y-105010252D01*
X117311295Y-104961005D01*
X117393191Y-104927083D01*
X117480128Y-104909790D01*
X117568772Y-104909790D01*
X117655709Y-104927083D01*
X117655709Y-104927083D01*
G37*
G36*
X164354450Y-105799790D02*
G01*
X162254450Y-105799790D01*
X162254450Y-101899790D01*
X164354450Y-101899790D01*
X164354450Y-105799790D01*
X164354450Y-105799790D01*
G37*
G36*
X146159450Y-105349790D02*
G01*
X144809450Y-105349790D01*
X144809450Y-103749790D01*
X146159450Y-103749790D01*
X146159450Y-105349790D01*
X146159450Y-105349790D01*
G37*
G36*
X178514550Y-105183450D02*
G01*
X174414550Y-105183450D01*
X174414550Y-104283450D01*
X178514550Y-104283450D01*
X178514550Y-105183450D01*
X178514550Y-105183450D01*
G37*
G36*
X170654450Y-104649790D02*
G01*
X168554450Y-104649790D01*
X168554450Y-103049790D01*
X170654450Y-103049790D01*
X170654450Y-104649790D01*
X170654450Y-104649790D01*
G37*
G36*
X158759450Y-104199790D02*
G01*
X157409450Y-104199790D01*
X157409450Y-102599790D01*
X158759450Y-102599790D01*
X158759450Y-104199790D01*
X158759450Y-104199790D01*
G37*
G36*
X178514550Y-103913450D02*
G01*
X174414550Y-103913450D01*
X174414550Y-103013450D01*
X178514550Y-103013450D01*
X178514550Y-103913450D01*
X178514550Y-103913450D01*
G37*
G36*
X117655709Y-102427083D02*
G01*
X117696658Y-102444045D01*
X117737605Y-102461005D01*
X117811308Y-102510252D01*
X117873988Y-102572932D01*
X117923235Y-102646635D01*
X117940195Y-102687582D01*
X117957157Y-102728531D01*
X117974450Y-102815468D01*
X117974450Y-102904112D01*
X117957157Y-102991049D01*
X117947878Y-103013450D01*
X117923235Y-103072945D01*
X117873988Y-103146648D01*
X117811308Y-103209328D01*
X117737605Y-103258575D01*
X117655709Y-103292497D01*
X117568772Y-103309790D01*
X117480128Y-103309790D01*
X117393191Y-103292497D01*
X117352242Y-103275535D01*
X117311295Y-103258575D01*
X117237592Y-103209328D01*
X117174912Y-103146648D01*
X117125665Y-103072945D01*
X117101022Y-103013450D01*
X117091743Y-102991049D01*
X117074450Y-102904112D01*
X117074450Y-102815468D01*
X117091743Y-102728531D01*
X117108705Y-102687582D01*
X117125665Y-102646635D01*
X117174912Y-102572932D01*
X117237592Y-102510252D01*
X117311295Y-102461005D01*
X117352242Y-102444045D01*
X117393191Y-102427083D01*
X117480128Y-102409790D01*
X117568772Y-102409790D01*
X117655709Y-102427083D01*
X117655709Y-102427083D01*
G37*
G36*
X146159450Y-102849790D02*
G01*
X144809450Y-102849790D01*
X144809450Y-101249790D01*
X146159450Y-101249790D01*
X146159450Y-102849790D01*
X146159450Y-102849790D01*
G37*
G36*
X178514550Y-102643450D02*
G01*
X174414550Y-102643450D01*
X174414550Y-101743450D01*
X178514550Y-101743450D01*
X178514550Y-102643450D01*
X178514550Y-102643450D01*
G37*
G36*
X131834300Y-102554940D02*
G01*
X130234300Y-102554940D01*
X130234300Y-101204940D01*
X131834300Y-101204940D01*
X131834300Y-102554940D01*
X131834300Y-102554940D01*
G37*
G36*
X134334300Y-102554940D02*
G01*
X132734300Y-102554940D01*
X132734300Y-101204940D01*
X134334300Y-101204940D01*
X134334300Y-102554940D01*
X134334300Y-102554940D01*
G37*
G36*
X170654450Y-102349790D02*
G01*
X168554450Y-102349790D01*
X168554450Y-100749790D01*
X170654450Y-100749790D01*
X170654450Y-102349790D01*
X170654450Y-102349790D01*
G37*
G36*
X120566293Y-101051004D02*
G01*
X120566296Y-101051005D01*
X120566295Y-101051005D01*
X120657289Y-101088696D01*
X120698513Y-101116241D01*
X120739180Y-101143414D01*
X120808826Y-101213060D01*
X120863545Y-101294953D01*
X120901236Y-101385947D01*
X120920450Y-101482543D01*
X120920450Y-101581037D01*
X120901236Y-101677633D01*
X120863545Y-101768627D01*
X120863544Y-101768629D01*
X120808825Y-101850521D01*
X120739181Y-101920165D01*
X120657289Y-101974884D01*
X120657288Y-101974885D01*
X120657287Y-101974885D01*
X120566293Y-102012576D01*
X120469697Y-102031790D01*
X120371203Y-102031790D01*
X120274607Y-102012576D01*
X120183613Y-101974885D01*
X120183612Y-101974885D01*
X120183611Y-101974884D01*
X120101719Y-101920165D01*
X120032075Y-101850521D01*
X119977356Y-101768629D01*
X119977355Y-101768627D01*
X119939664Y-101677633D01*
X119920450Y-101581037D01*
X119920450Y-101482543D01*
X119939664Y-101385947D01*
X119977355Y-101294953D01*
X120032074Y-101213060D01*
X120101720Y-101143414D01*
X120142387Y-101116241D01*
X120183611Y-101088696D01*
X120274605Y-101051005D01*
X120274604Y-101051005D01*
X120274607Y-101051004D01*
X120371203Y-101031790D01*
X120469697Y-101031790D01*
X120566293Y-101051004D01*
X120566293Y-101051004D01*
G37*
G36*
X178514550Y-101373450D02*
G01*
X174414550Y-101373450D01*
X174414550Y-100473450D01*
X178514550Y-100473450D01*
X178514550Y-101373450D01*
X178514550Y-101373450D01*
G37*
G36*
X117655709Y-99927083D02*
G01*
X117737605Y-99961005D01*
X117811308Y-100010252D01*
X117873988Y-100072932D01*
X117923235Y-100146635D01*
X117940195Y-100187582D01*
X117957157Y-100228531D01*
X117974450Y-100315468D01*
X117974450Y-100404112D01*
X117957157Y-100491049D01*
X117923235Y-100572945D01*
X117873988Y-100646648D01*
X117811308Y-100709328D01*
X117737605Y-100758575D01*
X117655709Y-100792497D01*
X117568772Y-100809790D01*
X117480128Y-100809790D01*
X117393191Y-100792497D01*
X117311295Y-100758575D01*
X117237592Y-100709328D01*
X117174912Y-100646648D01*
X117125665Y-100572945D01*
X117091743Y-100491049D01*
X117074450Y-100404112D01*
X117074450Y-100315468D01*
X117091743Y-100228531D01*
X117108705Y-100187582D01*
X117125665Y-100146635D01*
X117174912Y-100072932D01*
X117237592Y-100010252D01*
X117311295Y-99961005D01*
X117352242Y-99944045D01*
X117393191Y-99927083D01*
X117480128Y-99909790D01*
X117568772Y-99909790D01*
X117655709Y-99927083D01*
X117655709Y-99927083D01*
G37*
G36*
X178514550Y-100103450D02*
G01*
X174414550Y-100103450D01*
X174414550Y-99203450D01*
X178514550Y-99203450D01*
X178514550Y-100103450D01*
X178514550Y-100103450D01*
G37*
G36*
X170644300Y-99719940D02*
G01*
X168544300Y-99719940D01*
X168544300Y-98019940D01*
X170644300Y-98019940D01*
X170644300Y-99719940D01*
X170644300Y-99719940D01*
G37*
G36*
X166644300Y-99719940D02*
G01*
X164544300Y-99719940D01*
X164544300Y-98019940D01*
X166644300Y-98019940D01*
X166644300Y-99719940D01*
X166644300Y-99719940D01*
G37*
G36*
X178514550Y-98833450D02*
G01*
X174414550Y-98833450D01*
X174414550Y-97933450D01*
X178514550Y-97933450D01*
X178514550Y-98833450D01*
X178514550Y-98833450D01*
G37*
G36*
X117655709Y-97427083D02*
G01*
X117696658Y-97444045D01*
X117737605Y-97461005D01*
X117811308Y-97510252D01*
X117873988Y-97572932D01*
X117923235Y-97646635D01*
X117957157Y-97728531D01*
X117974450Y-97815468D01*
X117974450Y-97904112D01*
X117957157Y-97991049D01*
X117945190Y-98019940D01*
X117923235Y-98072945D01*
X117873988Y-98146648D01*
X117811308Y-98209328D01*
X117737605Y-98258575D01*
X117655709Y-98292497D01*
X117568772Y-98309790D01*
X117480128Y-98309790D01*
X117393191Y-98292497D01*
X117311295Y-98258575D01*
X117237592Y-98209328D01*
X117174912Y-98146648D01*
X117125665Y-98072945D01*
X117103710Y-98019940D01*
X117091743Y-97991049D01*
X117074450Y-97904112D01*
X117074450Y-97815468D01*
X117091743Y-97728531D01*
X117108705Y-97687582D01*
X117125665Y-97646635D01*
X117174912Y-97572932D01*
X117237592Y-97510252D01*
X117311295Y-97461005D01*
X117352242Y-97444045D01*
X117393191Y-97427083D01*
X117480128Y-97409790D01*
X117568772Y-97409790D01*
X117655709Y-97427083D01*
X117655709Y-97427083D01*
G37*
G36*
X178514550Y-97563450D02*
G01*
X174414550Y-97563450D01*
X174414550Y-96663450D01*
X178514550Y-96663450D01*
X178514550Y-97563450D01*
X178514550Y-97563450D01*
G37*
G36*
X135909300Y-97309940D02*
G01*
X134559300Y-97309940D01*
X134559300Y-95709940D01*
X135909300Y-95709940D01*
X135909300Y-97309940D01*
X135909300Y-97309940D01*
G37*
G36*
X169644300Y-96964940D02*
G01*
X168044300Y-96964940D01*
X168044300Y-95614940D01*
X169644300Y-95614940D01*
X169644300Y-96964940D01*
X169644300Y-96964940D01*
G37*
G36*
X167144300Y-96964940D02*
G01*
X165544300Y-96964940D01*
X165544300Y-95614940D01*
X167144300Y-95614940D01*
X167144300Y-96964940D01*
X167144300Y-96964940D01*
G37*
G36*
X178514550Y-96293450D02*
G01*
X174414550Y-96293450D01*
X174414550Y-95393450D01*
X178514550Y-95393450D01*
X178514550Y-96293450D01*
X178514550Y-96293450D01*
G37*
G36*
X117655709Y-94927083D02*
G01*
X117737605Y-94961005D01*
X117811308Y-95010252D01*
X117873988Y-95072932D01*
X117923235Y-95146635D01*
X117940195Y-95187582D01*
X117957157Y-95228531D01*
X117974450Y-95315468D01*
X117974450Y-95404112D01*
X117957157Y-95491049D01*
X117923235Y-95572945D01*
X117873988Y-95646648D01*
X117811308Y-95709328D01*
X117737605Y-95758575D01*
X117696658Y-95775535D01*
X117655709Y-95792497D01*
X117568772Y-95809790D01*
X117480128Y-95809790D01*
X117393191Y-95792497D01*
X117311295Y-95758575D01*
X117237592Y-95709328D01*
X117174912Y-95646648D01*
X117125665Y-95572945D01*
X117091743Y-95491049D01*
X117074450Y-95404112D01*
X117074450Y-95315468D01*
X117091743Y-95228531D01*
X117108705Y-95187582D01*
X117125665Y-95146635D01*
X117174912Y-95072932D01*
X117237592Y-95010252D01*
X117311295Y-94961005D01*
X117393191Y-94927083D01*
X117480128Y-94909790D01*
X117568772Y-94909790D01*
X117655709Y-94927083D01*
X117655709Y-94927083D01*
G37*
G36*
X178514550Y-95023450D02*
G01*
X174414550Y-95023450D01*
X174414550Y-94123450D01*
X178514550Y-94123450D01*
X178514550Y-95023450D01*
X178514550Y-95023450D01*
G37*
G36*
X135909300Y-94809940D02*
G01*
X134559300Y-94809940D01*
X134559300Y-93209940D01*
X135909300Y-93209940D01*
X135909300Y-94809940D01*
X135909300Y-94809940D01*
G37*
G36*
X178514550Y-93753450D02*
G01*
X174414550Y-93753450D01*
X174414550Y-92853450D01*
X178514550Y-92853450D01*
X178514550Y-93753450D01*
X178514550Y-93753450D01*
G37*
G36*
X117655709Y-92427083D02*
G01*
X117696658Y-92444045D01*
X117737605Y-92461005D01*
X117811308Y-92510252D01*
X117873988Y-92572932D01*
X117923235Y-92646635D01*
X117957157Y-92728531D01*
X117974450Y-92815468D01*
X117974450Y-92904112D01*
X117957157Y-92991049D01*
X117940195Y-93031998D01*
X117923235Y-93072945D01*
X117873988Y-93146648D01*
X117811308Y-93209328D01*
X117737605Y-93258575D01*
X117655709Y-93292497D01*
X117568772Y-93309790D01*
X117480128Y-93309790D01*
X117393191Y-93292497D01*
X117311295Y-93258575D01*
X117237592Y-93209328D01*
X117174912Y-93146648D01*
X117125665Y-93072945D01*
X117091743Y-92991049D01*
X117074450Y-92904112D01*
X117074450Y-92815468D01*
X117091743Y-92728531D01*
X117125665Y-92646635D01*
X117174912Y-92572932D01*
X117237592Y-92510252D01*
X117311295Y-92461005D01*
X117352242Y-92444045D01*
X117393191Y-92427083D01*
X117480128Y-92409790D01*
X117568772Y-92409790D01*
X117655709Y-92427083D01*
X117655709Y-92427083D01*
G37*
G36*
X163619300Y-92959940D02*
G01*
X162269300Y-92959940D01*
X162269300Y-91359940D01*
X163619300Y-91359940D01*
X163619300Y-92959940D01*
X163619300Y-92959940D01*
G37*
G36*
X178514550Y-92483450D02*
G01*
X174414550Y-92483450D01*
X174414550Y-91583450D01*
X178514550Y-91583450D01*
X178514550Y-92483450D01*
X178514550Y-92483450D01*
G37*
G36*
X178514550Y-91213450D02*
G01*
X174414550Y-91213450D01*
X174414550Y-90313450D01*
X178514550Y-90313450D01*
X178514550Y-91213450D01*
X178514550Y-91213450D01*
G37*
G36*
X117655709Y-89927083D02*
G01*
X117695222Y-89943450D01*
X117737605Y-89961005D01*
X117811308Y-90010252D01*
X117873988Y-90072932D01*
X117923235Y-90146635D01*
X117928746Y-90159940D01*
X117957157Y-90228531D01*
X117974450Y-90315468D01*
X117974450Y-90404112D01*
X117957157Y-90491049D01*
X117940195Y-90531998D01*
X117923235Y-90572945D01*
X117873988Y-90646648D01*
X117811308Y-90709328D01*
X117737605Y-90758575D01*
X117655709Y-90792497D01*
X117568772Y-90809790D01*
X117480128Y-90809790D01*
X117393191Y-90792497D01*
X117311295Y-90758575D01*
X117237592Y-90709328D01*
X117174912Y-90646648D01*
X117125665Y-90572945D01*
X117108705Y-90531998D01*
X117091743Y-90491049D01*
X117074450Y-90404112D01*
X117074450Y-90315468D01*
X117091743Y-90228531D01*
X117120154Y-90159940D01*
X117125665Y-90146635D01*
X117174912Y-90072932D01*
X117237592Y-90010252D01*
X117311295Y-89961005D01*
X117353678Y-89943450D01*
X117393191Y-89927083D01*
X117480128Y-89909790D01*
X117568772Y-89909790D01*
X117655709Y-89927083D01*
X117655709Y-89927083D01*
G37*
G36*
X163619300Y-90459940D02*
G01*
X162269300Y-90459940D01*
X162269300Y-88859940D01*
X163619300Y-88859940D01*
X163619300Y-90459940D01*
X163619300Y-90459940D01*
G37*
G36*
X132239300Y-90159940D02*
G01*
X130889300Y-90159940D01*
X130889300Y-88559940D01*
X132239300Y-88559940D01*
X132239300Y-90159940D01*
X132239300Y-90159940D01*
G37*
G36*
X178514550Y-89943450D02*
G01*
X174414550Y-89943450D01*
X174414550Y-89043450D01*
X178514550Y-89043450D01*
X178514550Y-89943450D01*
X178514550Y-89943450D01*
G37*
G36*
X178514550Y-88673450D02*
G01*
X174414550Y-88673450D01*
X174414550Y-87773450D01*
X178514550Y-87773450D01*
X178514550Y-88673450D01*
X178514550Y-88673450D01*
G37*
G36*
X117655709Y-87427083D02*
G01*
X117737605Y-87461005D01*
X117811308Y-87510252D01*
X117873988Y-87572932D01*
X117923235Y-87646635D01*
X117928746Y-87659940D01*
X117957157Y-87728531D01*
X117974450Y-87815468D01*
X117974450Y-87904112D01*
X117957157Y-87991049D01*
X117940195Y-88031998D01*
X117923235Y-88072945D01*
X117873988Y-88146648D01*
X117811308Y-88209328D01*
X117737605Y-88258575D01*
X117696658Y-88275535D01*
X117655709Y-88292497D01*
X117568772Y-88309790D01*
X117480128Y-88309790D01*
X117393191Y-88292497D01*
X117352242Y-88275535D01*
X117311295Y-88258575D01*
X117237592Y-88209328D01*
X117174912Y-88146648D01*
X117125665Y-88072945D01*
X117108705Y-88031998D01*
X117091743Y-87991049D01*
X117074450Y-87904112D01*
X117074450Y-87815468D01*
X117091743Y-87728531D01*
X117120154Y-87659940D01*
X117125665Y-87646635D01*
X117174912Y-87572932D01*
X117237592Y-87510252D01*
X117311295Y-87461005D01*
X117393191Y-87427083D01*
X117480128Y-87409790D01*
X117568772Y-87409790D01*
X117655709Y-87427083D01*
X117655709Y-87427083D01*
G37*
G36*
X132239300Y-87659940D02*
G01*
X130889300Y-87659940D01*
X130889300Y-86059940D01*
X132239300Y-86059940D01*
X132239300Y-87659940D01*
X132239300Y-87659940D01*
G37*
G36*
X178514550Y-87403450D02*
G01*
X174414550Y-87403450D01*
X174414550Y-86503450D01*
X178514550Y-86503450D01*
X178514550Y-87403450D01*
X178514550Y-87403450D01*
G37*
G36*
X178514550Y-86133450D02*
G01*
X174414550Y-86133450D01*
X174414550Y-85233450D01*
X178514550Y-85233450D01*
X178514550Y-86133450D01*
X178514550Y-86133450D01*
G37*
G36*
X117655709Y-84927083D02*
G01*
X117737605Y-84961005D01*
X117811308Y-85010252D01*
X117873988Y-85072932D01*
X117923235Y-85146635D01*
X117940195Y-85187582D01*
X117957157Y-85228531D01*
X117974450Y-85315468D01*
X117974450Y-85404112D01*
X117957157Y-85491049D01*
X117940195Y-85531998D01*
X117923235Y-85572945D01*
X117873988Y-85646648D01*
X117811308Y-85709328D01*
X117737605Y-85758575D01*
X117696658Y-85775535D01*
X117655709Y-85792497D01*
X117568772Y-85809790D01*
X117480128Y-85809790D01*
X117393191Y-85792497D01*
X117352242Y-85775535D01*
X117311295Y-85758575D01*
X117237592Y-85709328D01*
X117174912Y-85646648D01*
X117125665Y-85572945D01*
X117108705Y-85531998D01*
X117091743Y-85491049D01*
X117074450Y-85404112D01*
X117074450Y-85315468D01*
X117091743Y-85228531D01*
X117108705Y-85187582D01*
X117125665Y-85146635D01*
X117174912Y-85072932D01*
X117237592Y-85010252D01*
X117311295Y-84961005D01*
X117393191Y-84927083D01*
X117480128Y-84909790D01*
X117568772Y-84909790D01*
X117655709Y-84927083D01*
X117655709Y-84927083D01*
G37*
G36*
X145555709Y-82307083D02*
G01*
X145637605Y-82341005D01*
X145711308Y-82390252D01*
X145773988Y-82452932D01*
X145823235Y-82526635D01*
X145857157Y-82608531D01*
X145874450Y-82695468D01*
X145874450Y-82784112D01*
X145857157Y-82871049D01*
X145840195Y-82911998D01*
X145823235Y-82952945D01*
X145773988Y-83026648D01*
X145711308Y-83089328D01*
X145637605Y-83138575D01*
X145555709Y-83172497D01*
X145468772Y-83189790D01*
X145380128Y-83189790D01*
X145293191Y-83172497D01*
X145252242Y-83155535D01*
X145211295Y-83138575D01*
X145137592Y-83089328D01*
X145074912Y-83026648D01*
X145025665Y-82952945D01*
X145008705Y-82911998D01*
X144991743Y-82871049D01*
X144974450Y-82784112D01*
X144974450Y-82695468D01*
X144991743Y-82608531D01*
X145025665Y-82526635D01*
X145074912Y-82452932D01*
X145137592Y-82390252D01*
X145211295Y-82341005D01*
X145293191Y-82307083D01*
X145380128Y-82289790D01*
X145468772Y-82289790D01*
X145555709Y-82307083D01*
X145555709Y-82307083D01*
G37*
G36*
X123055709Y-82307083D02*
G01*
X123137605Y-82341005D01*
X123211308Y-82390252D01*
X123273988Y-82452932D01*
X123323235Y-82526635D01*
X123357157Y-82608531D01*
X123374450Y-82695468D01*
X123374450Y-82784112D01*
X123357157Y-82871049D01*
X123340195Y-82911998D01*
X123323235Y-82952945D01*
X123273988Y-83026648D01*
X123211308Y-83089328D01*
X123137605Y-83138575D01*
X123055709Y-83172497D01*
X122968772Y-83189790D01*
X122880128Y-83189790D01*
X122793191Y-83172497D01*
X122752242Y-83155535D01*
X122711295Y-83138575D01*
X122637592Y-83089328D01*
X122574912Y-83026648D01*
X122525665Y-82952945D01*
X122508705Y-82911998D01*
X122491743Y-82871049D01*
X122474450Y-82784112D01*
X122474450Y-82695468D01*
X122491743Y-82608531D01*
X122525665Y-82526635D01*
X122574912Y-82452932D01*
X122637592Y-82390252D01*
X122711295Y-82341005D01*
X122793191Y-82307083D01*
X122880128Y-82289790D01*
X122968772Y-82289790D01*
X123055709Y-82307083D01*
X123055709Y-82307083D01*
G37*
G36*
X125555709Y-82307083D02*
G01*
X125637605Y-82341005D01*
X125711308Y-82390252D01*
X125773988Y-82452932D01*
X125823235Y-82526635D01*
X125857157Y-82608531D01*
X125874450Y-82695468D01*
X125874450Y-82784112D01*
X125857157Y-82871049D01*
X125840195Y-82911998D01*
X125823235Y-82952945D01*
X125773988Y-83026648D01*
X125711308Y-83089328D01*
X125637605Y-83138575D01*
X125555709Y-83172497D01*
X125468772Y-83189790D01*
X125380128Y-83189790D01*
X125293191Y-83172497D01*
X125252242Y-83155535D01*
X125211295Y-83138575D01*
X125137592Y-83089328D01*
X125074912Y-83026648D01*
X125025665Y-82952945D01*
X125008705Y-82911998D01*
X124991743Y-82871049D01*
X124974450Y-82784112D01*
X124974450Y-82695468D01*
X124991743Y-82608531D01*
X125025665Y-82526635D01*
X125074912Y-82452932D01*
X125137592Y-82390252D01*
X125211295Y-82341005D01*
X125293191Y-82307083D01*
X125380128Y-82289790D01*
X125468772Y-82289790D01*
X125555709Y-82307083D01*
X125555709Y-82307083D01*
G37*
G36*
X128055709Y-82307083D02*
G01*
X128137605Y-82341005D01*
X128211308Y-82390252D01*
X128273988Y-82452932D01*
X128323235Y-82526635D01*
X128357157Y-82608531D01*
X128374450Y-82695468D01*
X128374450Y-82784112D01*
X128357157Y-82871049D01*
X128340195Y-82911998D01*
X128323235Y-82952945D01*
X128273988Y-83026648D01*
X128211308Y-83089328D01*
X128137605Y-83138575D01*
X128055709Y-83172497D01*
X127968772Y-83189790D01*
X127880128Y-83189790D01*
X127793191Y-83172497D01*
X127752242Y-83155535D01*
X127711295Y-83138575D01*
X127637592Y-83089328D01*
X127574912Y-83026648D01*
X127525665Y-82952945D01*
X127508705Y-82911998D01*
X127491743Y-82871049D01*
X127474450Y-82784112D01*
X127474450Y-82695468D01*
X127491743Y-82608531D01*
X127525665Y-82526635D01*
X127574912Y-82452932D01*
X127637592Y-82390252D01*
X127711295Y-82341005D01*
X127793191Y-82307083D01*
X127880128Y-82289790D01*
X127968772Y-82289790D01*
X128055709Y-82307083D01*
X128055709Y-82307083D01*
G37*
G36*
X165555709Y-82307083D02*
G01*
X165637605Y-82341005D01*
X165711308Y-82390252D01*
X165773988Y-82452932D01*
X165823235Y-82526635D01*
X165857157Y-82608531D01*
X165874450Y-82695468D01*
X165874450Y-82784112D01*
X165857157Y-82871049D01*
X165840195Y-82911998D01*
X165823235Y-82952945D01*
X165773988Y-83026648D01*
X165711308Y-83089328D01*
X165637605Y-83138575D01*
X165555709Y-83172497D01*
X165468772Y-83189790D01*
X165380128Y-83189790D01*
X165293191Y-83172497D01*
X165252242Y-83155535D01*
X165211295Y-83138575D01*
X165137592Y-83089328D01*
X165074912Y-83026648D01*
X165025665Y-82952945D01*
X165008705Y-82911998D01*
X164991743Y-82871049D01*
X164974450Y-82784112D01*
X164974450Y-82695468D01*
X164991743Y-82608531D01*
X165025665Y-82526635D01*
X165074912Y-82452932D01*
X165137592Y-82390252D01*
X165211295Y-82341005D01*
X165293191Y-82307083D01*
X165380128Y-82289790D01*
X165468772Y-82289790D01*
X165555709Y-82307083D01*
X165555709Y-82307083D01*
G37*
G36*
X163055709Y-82307083D02*
G01*
X163137605Y-82341005D01*
X163211308Y-82390252D01*
X163273988Y-82452932D01*
X163323235Y-82526635D01*
X163357157Y-82608531D01*
X163374450Y-82695468D01*
X163374450Y-82784112D01*
X163357157Y-82871049D01*
X163340195Y-82911998D01*
X163323235Y-82952945D01*
X163273988Y-83026648D01*
X163211308Y-83089328D01*
X163137605Y-83138575D01*
X163055709Y-83172497D01*
X162968772Y-83189790D01*
X162880128Y-83189790D01*
X162793191Y-83172497D01*
X162752242Y-83155535D01*
X162711295Y-83138575D01*
X162637592Y-83089328D01*
X162574912Y-83026648D01*
X162525665Y-82952945D01*
X162508705Y-82911998D01*
X162491743Y-82871049D01*
X162474450Y-82784112D01*
X162474450Y-82695468D01*
X162491743Y-82608531D01*
X162525665Y-82526635D01*
X162574912Y-82452932D01*
X162637592Y-82390252D01*
X162711295Y-82341005D01*
X162793191Y-82307083D01*
X162880128Y-82289790D01*
X162968772Y-82289790D01*
X163055709Y-82307083D01*
X163055709Y-82307083D01*
G37*
G36*
X160555709Y-82307083D02*
G01*
X160637605Y-82341005D01*
X160711308Y-82390252D01*
X160773988Y-82452932D01*
X160823235Y-82526635D01*
X160857157Y-82608531D01*
X160874450Y-82695468D01*
X160874450Y-82784112D01*
X160857157Y-82871049D01*
X160840195Y-82911998D01*
X160823235Y-82952945D01*
X160773988Y-83026648D01*
X160711308Y-83089328D01*
X160637605Y-83138575D01*
X160555709Y-83172497D01*
X160468772Y-83189790D01*
X160380128Y-83189790D01*
X160293191Y-83172497D01*
X160252242Y-83155535D01*
X160211295Y-83138575D01*
X160137592Y-83089328D01*
X160074912Y-83026648D01*
X160025665Y-82952945D01*
X160008705Y-82911998D01*
X159991743Y-82871049D01*
X159974450Y-82784112D01*
X159974450Y-82695468D01*
X159991743Y-82608531D01*
X160025665Y-82526635D01*
X160074912Y-82452932D01*
X160137592Y-82390252D01*
X160211295Y-82341005D01*
X160293191Y-82307083D01*
X160380128Y-82289790D01*
X160468772Y-82289790D01*
X160555709Y-82307083D01*
X160555709Y-82307083D01*
G37*
G36*
X158055709Y-82307083D02*
G01*
X158137605Y-82341005D01*
X158211308Y-82390252D01*
X158273988Y-82452932D01*
X158323235Y-82526635D01*
X158357157Y-82608531D01*
X158374450Y-82695468D01*
X158374450Y-82784112D01*
X158357157Y-82871049D01*
X158340195Y-82911998D01*
X158323235Y-82952945D01*
X158273988Y-83026648D01*
X158211308Y-83089328D01*
X158137605Y-83138575D01*
X158055709Y-83172497D01*
X157968772Y-83189790D01*
X157880128Y-83189790D01*
X157793191Y-83172497D01*
X157752242Y-83155535D01*
X157711295Y-83138575D01*
X157637592Y-83089328D01*
X157574912Y-83026648D01*
X157525665Y-82952945D01*
X157508705Y-82911998D01*
X157491743Y-82871049D01*
X157474450Y-82784112D01*
X157474450Y-82695468D01*
X157491743Y-82608531D01*
X157525665Y-82526635D01*
X157574912Y-82452932D01*
X157637592Y-82390252D01*
X157711295Y-82341005D01*
X157793191Y-82307083D01*
X157880128Y-82289790D01*
X157968772Y-82289790D01*
X158055709Y-82307083D01*
X158055709Y-82307083D01*
G37*
G36*
X155555709Y-82307083D02*
G01*
X155637605Y-82341005D01*
X155711308Y-82390252D01*
X155773988Y-82452932D01*
X155823235Y-82526635D01*
X155857157Y-82608531D01*
X155874450Y-82695468D01*
X155874450Y-82784112D01*
X155857157Y-82871049D01*
X155840195Y-82911998D01*
X155823235Y-82952945D01*
X155773988Y-83026648D01*
X155711308Y-83089328D01*
X155637605Y-83138575D01*
X155555709Y-83172497D01*
X155468772Y-83189790D01*
X155380128Y-83189790D01*
X155293191Y-83172497D01*
X155252242Y-83155535D01*
X155211295Y-83138575D01*
X155137592Y-83089328D01*
X155074912Y-83026648D01*
X155025665Y-82952945D01*
X155008705Y-82911998D01*
X154991743Y-82871049D01*
X154974450Y-82784112D01*
X154974450Y-82695468D01*
X154991743Y-82608531D01*
X155025665Y-82526635D01*
X155074912Y-82452932D01*
X155137592Y-82390252D01*
X155211295Y-82341005D01*
X155293191Y-82307083D01*
X155380128Y-82289790D01*
X155468772Y-82289790D01*
X155555709Y-82307083D01*
X155555709Y-82307083D01*
G37*
G36*
X153055709Y-82307083D02*
G01*
X153137605Y-82341005D01*
X153211308Y-82390252D01*
X153273988Y-82452932D01*
X153323235Y-82526635D01*
X153357157Y-82608531D01*
X153374450Y-82695468D01*
X153374450Y-82784112D01*
X153357157Y-82871049D01*
X153340195Y-82911998D01*
X153323235Y-82952945D01*
X153273988Y-83026648D01*
X153211308Y-83089328D01*
X153137605Y-83138575D01*
X153055709Y-83172497D01*
X152968772Y-83189790D01*
X152880128Y-83189790D01*
X152793191Y-83172497D01*
X152752242Y-83155535D01*
X152711295Y-83138575D01*
X152637592Y-83089328D01*
X152574912Y-83026648D01*
X152525665Y-82952945D01*
X152508705Y-82911998D01*
X152491743Y-82871049D01*
X152474450Y-82784112D01*
X152474450Y-82695468D01*
X152491743Y-82608531D01*
X152525665Y-82526635D01*
X152574912Y-82452932D01*
X152637592Y-82390252D01*
X152711295Y-82341005D01*
X152793191Y-82307083D01*
X152880128Y-82289790D01*
X152968772Y-82289790D01*
X153055709Y-82307083D01*
X153055709Y-82307083D01*
G37*
G36*
X150555709Y-82307083D02*
G01*
X150637605Y-82341005D01*
X150711308Y-82390252D01*
X150773988Y-82452932D01*
X150823235Y-82526635D01*
X150857157Y-82608531D01*
X150874450Y-82695468D01*
X150874450Y-82784112D01*
X150857157Y-82871049D01*
X150840195Y-82911998D01*
X150823235Y-82952945D01*
X150773988Y-83026648D01*
X150711308Y-83089328D01*
X150637605Y-83138575D01*
X150555709Y-83172497D01*
X150468772Y-83189790D01*
X150380128Y-83189790D01*
X150293191Y-83172497D01*
X150252242Y-83155535D01*
X150211295Y-83138575D01*
X150137592Y-83089328D01*
X150074912Y-83026648D01*
X150025665Y-82952945D01*
X150008705Y-82911998D01*
X149991743Y-82871049D01*
X149974450Y-82784112D01*
X149974450Y-82695468D01*
X149991743Y-82608531D01*
X150025665Y-82526635D01*
X150074912Y-82452932D01*
X150137592Y-82390252D01*
X150211295Y-82341005D01*
X150293191Y-82307083D01*
X150380128Y-82289790D01*
X150468772Y-82289790D01*
X150555709Y-82307083D01*
X150555709Y-82307083D01*
G37*
G36*
X148055709Y-82307083D02*
G01*
X148137605Y-82341005D01*
X148211308Y-82390252D01*
X148273988Y-82452932D01*
X148323235Y-82526635D01*
X148357157Y-82608531D01*
X148374450Y-82695468D01*
X148374450Y-82784112D01*
X148357157Y-82871049D01*
X148340195Y-82911998D01*
X148323235Y-82952945D01*
X148273988Y-83026648D01*
X148211308Y-83089328D01*
X148137605Y-83138575D01*
X148055709Y-83172497D01*
X147968772Y-83189790D01*
X147880128Y-83189790D01*
X147793191Y-83172497D01*
X147752242Y-83155535D01*
X147711295Y-83138575D01*
X147637592Y-83089328D01*
X147574912Y-83026648D01*
X147525665Y-82952945D01*
X147508705Y-82911998D01*
X147491743Y-82871049D01*
X147474450Y-82784112D01*
X147474450Y-82695468D01*
X147491743Y-82608531D01*
X147525665Y-82526635D01*
X147574912Y-82452932D01*
X147637592Y-82390252D01*
X147711295Y-82341005D01*
X147793191Y-82307083D01*
X147880128Y-82289790D01*
X147968772Y-82289790D01*
X148055709Y-82307083D01*
X148055709Y-82307083D01*
G37*
G36*
X130555709Y-82307083D02*
G01*
X130637605Y-82341005D01*
X130711308Y-82390252D01*
X130773988Y-82452932D01*
X130823235Y-82526635D01*
X130857157Y-82608531D01*
X130874450Y-82695468D01*
X130874450Y-82784112D01*
X130857157Y-82871049D01*
X130840195Y-82911998D01*
X130823235Y-82952945D01*
X130773988Y-83026648D01*
X130711308Y-83089328D01*
X130637605Y-83138575D01*
X130555709Y-83172497D01*
X130468772Y-83189790D01*
X130380128Y-83189790D01*
X130293191Y-83172497D01*
X130252242Y-83155535D01*
X130211295Y-83138575D01*
X130137592Y-83089328D01*
X130074912Y-83026648D01*
X130025665Y-82952945D01*
X130008705Y-82911998D01*
X129991743Y-82871049D01*
X129974450Y-82784112D01*
X129974450Y-82695468D01*
X129991743Y-82608531D01*
X130025665Y-82526635D01*
X130074912Y-82452932D01*
X130137592Y-82390252D01*
X130211295Y-82341005D01*
X130293191Y-82307083D01*
X130380128Y-82289790D01*
X130468772Y-82289790D01*
X130555709Y-82307083D01*
X130555709Y-82307083D01*
G37*
G36*
X133055709Y-82307083D02*
G01*
X133137605Y-82341005D01*
X133211308Y-82390252D01*
X133273988Y-82452932D01*
X133323235Y-82526635D01*
X133357157Y-82608531D01*
X133374450Y-82695468D01*
X133374450Y-82784112D01*
X133357157Y-82871049D01*
X133340195Y-82911998D01*
X133323235Y-82952945D01*
X133273988Y-83026648D01*
X133211308Y-83089328D01*
X133137605Y-83138575D01*
X133055709Y-83172497D01*
X132968772Y-83189790D01*
X132880128Y-83189790D01*
X132793191Y-83172497D01*
X132752242Y-83155535D01*
X132711295Y-83138575D01*
X132637592Y-83089328D01*
X132574912Y-83026648D01*
X132525665Y-82952945D01*
X132508705Y-82911998D01*
X132491743Y-82871049D01*
X132474450Y-82784112D01*
X132474450Y-82695468D01*
X132491743Y-82608531D01*
X132525665Y-82526635D01*
X132574912Y-82452932D01*
X132637592Y-82390252D01*
X132711295Y-82341005D01*
X132793191Y-82307083D01*
X132880128Y-82289790D01*
X132968772Y-82289790D01*
X133055709Y-82307083D01*
X133055709Y-82307083D01*
G37*
G36*
X135555709Y-82307083D02*
G01*
X135637605Y-82341005D01*
X135711308Y-82390252D01*
X135773988Y-82452932D01*
X135823235Y-82526635D01*
X135857157Y-82608531D01*
X135874450Y-82695468D01*
X135874450Y-82784112D01*
X135857157Y-82871049D01*
X135840195Y-82911998D01*
X135823235Y-82952945D01*
X135773988Y-83026648D01*
X135711308Y-83089328D01*
X135637605Y-83138575D01*
X135555709Y-83172497D01*
X135468772Y-83189790D01*
X135380128Y-83189790D01*
X135293191Y-83172497D01*
X135252242Y-83155535D01*
X135211295Y-83138575D01*
X135137592Y-83089328D01*
X135074912Y-83026648D01*
X135025665Y-82952945D01*
X135008705Y-82911998D01*
X134991743Y-82871049D01*
X134974450Y-82784112D01*
X134974450Y-82695468D01*
X134991743Y-82608531D01*
X135025665Y-82526635D01*
X135074912Y-82452932D01*
X135137592Y-82390252D01*
X135211295Y-82341005D01*
X135293191Y-82307083D01*
X135380128Y-82289790D01*
X135468772Y-82289790D01*
X135555709Y-82307083D01*
X135555709Y-82307083D01*
G37*
G36*
X138055709Y-82307083D02*
G01*
X138137605Y-82341005D01*
X138211308Y-82390252D01*
X138273988Y-82452932D01*
X138323235Y-82526635D01*
X138357157Y-82608531D01*
X138374450Y-82695468D01*
X138374450Y-82784112D01*
X138357157Y-82871049D01*
X138340195Y-82911998D01*
X138323235Y-82952945D01*
X138273988Y-83026648D01*
X138211308Y-83089328D01*
X138137605Y-83138575D01*
X138055709Y-83172497D01*
X137968772Y-83189790D01*
X137880128Y-83189790D01*
X137793191Y-83172497D01*
X137752242Y-83155535D01*
X137711295Y-83138575D01*
X137637592Y-83089328D01*
X137574912Y-83026648D01*
X137525665Y-82952945D01*
X137508705Y-82911998D01*
X137491743Y-82871049D01*
X137474450Y-82784112D01*
X137474450Y-82695468D01*
X137491743Y-82608531D01*
X137525665Y-82526635D01*
X137574912Y-82452932D01*
X137637592Y-82390252D01*
X137711295Y-82341005D01*
X137793191Y-82307083D01*
X137880128Y-82289790D01*
X137968772Y-82289790D01*
X138055709Y-82307083D01*
X138055709Y-82307083D01*
G37*
G36*
X143055709Y-82307083D02*
G01*
X143137605Y-82341005D01*
X143211308Y-82390252D01*
X143273988Y-82452932D01*
X143323235Y-82526635D01*
X143357157Y-82608531D01*
X143374450Y-82695468D01*
X143374450Y-82784112D01*
X143357157Y-82871049D01*
X143340195Y-82911998D01*
X143323235Y-82952945D01*
X143273988Y-83026648D01*
X143211308Y-83089328D01*
X143137605Y-83138575D01*
X143055709Y-83172497D01*
X142968772Y-83189790D01*
X142880128Y-83189790D01*
X142793191Y-83172497D01*
X142752242Y-83155535D01*
X142711295Y-83138575D01*
X142637592Y-83089328D01*
X142574912Y-83026648D01*
X142525665Y-82952945D01*
X142508705Y-82911998D01*
X142491743Y-82871049D01*
X142474450Y-82784112D01*
X142474450Y-82695468D01*
X142491743Y-82608531D01*
X142525665Y-82526635D01*
X142574912Y-82452932D01*
X142637592Y-82390252D01*
X142711295Y-82341005D01*
X142793191Y-82307083D01*
X142880128Y-82289790D01*
X142968772Y-82289790D01*
X143055709Y-82307083D01*
X143055709Y-82307083D01*
G37*
G36*
X140555709Y-82307083D02*
G01*
X140637605Y-82341005D01*
X140711308Y-82390252D01*
X140773988Y-82452932D01*
X140823235Y-82526635D01*
X140857157Y-82608531D01*
X140874450Y-82695468D01*
X140874450Y-82784112D01*
X140857157Y-82871049D01*
X140840195Y-82911998D01*
X140823235Y-82952945D01*
X140773988Y-83026648D01*
X140711308Y-83089328D01*
X140637605Y-83138575D01*
X140555709Y-83172497D01*
X140468772Y-83189790D01*
X140380128Y-83189790D01*
X140293191Y-83172497D01*
X140252242Y-83155535D01*
X140211295Y-83138575D01*
X140137592Y-83089328D01*
X140074912Y-83026648D01*
X140025665Y-82952945D01*
X140008705Y-82911998D01*
X139991743Y-82871049D01*
X139974450Y-82784112D01*
X139974450Y-82695468D01*
X139991743Y-82608531D01*
X140025665Y-82526635D01*
X140074912Y-82452932D01*
X140137592Y-82390252D01*
X140211295Y-82341005D01*
X140293191Y-82307083D01*
X140380128Y-82289790D01*
X140468772Y-82289790D01*
X140555709Y-82307083D01*
X140555709Y-82307083D01*
G37*
M02*
